SplineFontDB: 3.2
FontName: Sulive
FullName: Sulive
FamilyName: Sulive
Weight: Regular
Copyright: Copyright (c) 2025, W.F.Turnip
UComments: "2025-1-29: Created with FontForge (http://fontforge.org)"
Version: 001.000
ItalicAngle: 0
UnderlinePosition: -65
UnderlineWidth: 32
Ascent: 550
Descent: 100
InvalidEm: 0
LayerCount: 2
Layer: 0 1 "+gMyXYgAA" 1
Layer: 1 1 "+Uk2XYgAA" 0
XUID: [1021 352 -730677569 10509752]
OS2Version: 0
OS2_WeightWidthSlopeOnly: 0
OS2_UseTypoMetrics: 1
CreationTime: 1738142398
ModificationTime: 1760845972
OS2TypoAscent: 0
OS2TypoAOffset: 1
OS2TypoDescent: 0
OS2TypoDOffset: 1
OS2TypoLinegap: 0
OS2WinAscent: 0
OS2WinAOffset: 1
OS2WinDescent: 0
OS2WinDOffset: 1
HheadAscent: 0
HheadAOffset: 1
HheadDescent: 0
HheadDOffset: 1
OS2Vendor: 'PfEd'
Lookup: 1 8 0 "init" { "init-1" ("init") } ['init' ('DFLT' <'dflt' > 'latn' <'dflt' > ) ]
Lookup: 1 8 0 "medi" { "medi-1" ("medi") } ['medi' ('DFLT' <'dflt' > 'latn' <'dflt' > ) ]
Lookup: 1 8 0 "fina" { "fina-1" ("fina") } ['fina' ('DFLT' <'dflt' > 'latn' <'dflt' > ) ]
Lookup: 1 8 0 "isol" { "isol-1" ("isol") } ['isol' ('DFLT' <'dflt' > 'latn' <'dflt' > ) ]
Lookup: 6 8 0 "calt" { "calt-1"  } ['calt' ('DFLT' <'dflt' > 'latn' <'dflt' > ) ]
MarkAttachClasses: 1
DEI: 91125
ChainSub2: class "calt-1" 4 4 4 6
  Class: 79 B C D F G H J K L M N P Q R S T V X Y Z b c d f g h j k l m n p q r s t v x y z
  Class: 519 uni0042.init uni0043.init uni0044.init uni0046.init uni0047.init uni0048.init uni004A.init uni004B.init uni004C.init uni004D.init uni004E.init uni0050.init uni0051.init uni0052.init uni0053.init uni0054.init uni0056.init uni0058.init uni0059.init uni005A.init uni0062.init uni0063.init uni0064.init uni0066.init uni0067.init uni0068.init uni006A.init uni006B.init uni006C.init uni006D.init uni006E.init uni0070.init uni0071.init uni0072.init uni0073.init uni0074.init uni0076.init uni0078.init uni0079.init uni007A.init

StartChar: nine
Encoding: 57 57 0
Width: 500
VWidth: 1000
Flags: W
LayerCount: 2
Fore
SplineSet
50 0 m 128,-1,1
 40 0 40 0 32.5 7.5 c 128,-1,2
 25 15 25 15 25 25 c 2,3,-1
 25 325 l 2,4,5
 25 377 25 377 61.5 413.5 c 128,-1,6
 98 450 98 450 150 450 c 2,7,-1
 450 450 l 2,8,9
 460 450 460 450 467.5 442.5 c 128,-1,10
 475 435 475 435 475 425 c 128,-1,11
 475 415 475 415 467.5 407.5 c 128,-1,12
 460 400 460 400 450 400 c 2,13,-1
 150 400 l 2,14,15
 119 400 119 400 97 378 c 128,-1,16
 75 356 75 356 75 325 c 2,17,-1
 75 25 l 2,18,19
 75 15 75 15 67.5 7.5 c 128,-1,0
 60 0 60 0 50 0 c 128,-1,1
250 350 m 128,-1,21
 302 350 302 350 338.5 313.5 c 128,-1,22
 375 277 375 277 375 225 c 128,-1,23
 375 173 375 173 338.5 136.5 c 128,-1,24
 302 100 302 100 250 100 c 128,-1,25
 198 100 198 100 161.5 136.5 c 128,-1,26
 125 173 125 173 125 225 c 128,-1,27
 125 277 125 277 161.5 313.5 c 128,-1,20
 198 350 198 350 250 350 c 128,-1,21
250 300 m 128,-1,29
 219 300 219 300 197 278 c 128,-1,30
 175 256 175 256 175 225 c 128,-1,31
 175 194 175 194 197 172 c 128,-1,32
 219 150 219 150 250 150 c 128,-1,33
 281 150 281 150 303 172 c 128,-1,34
 325 194 325 194 325 225 c 128,-1,35
 325 256 325 256 303 278 c 128,-1,28
 281 300 281 300 250 300 c 128,-1,29
EndSplineSet
EndChar

StartChar: eight
Encoding: 56 56 1
Width: 500
VWidth: 1000
Flags: W
LayerCount: 2
Fore
SplineSet
50 0 m 128,-1,1
 40 0 40 0 32.5 7.5 c 128,-1,2
 25 15 25 15 25 25 c 2,3,-1
 25 325 l 2,4,5
 25 377 25 377 61.5 413.5 c 128,-1,6
 98 450 98 450 150 450 c 2,7,-1
 350 450 l 2,8,9
 402 450 402 450 438.5 413.5 c 128,-1,10
 475 377 475 377 475 325 c 2,11,-1
 475 25 l 2,12,13
 475 15 475 15 467.5 7.5 c 128,-1,14
 460 0 460 0 450 0 c 128,-1,15
 440 0 440 0 432.5 7.5 c 128,-1,16
 425 15 425 15 425 25 c 2,17,-1
 425 325 l 2,18,19
 425 356 425 356 403 378 c 128,-1,20
 381 400 381 400 350 400 c 2,21,-1
 150 400 l 2,22,23
 119 400 119 400 97 378 c 128,-1,24
 75 356 75 356 75 325 c 2,25,-1
 75 25 l 2,26,27
 75 15 75 15 67.5 7.5 c 128,-1,0
 60 0 60 0 50 0 c 128,-1,1
250 350 m 128,-1,29
 302 350 302 350 338.5 313.5 c 128,-1,30
 375 277 375 277 375 225 c 128,-1,31
 375 173 375 173 338.5 136.5 c 128,-1,32
 302 100 302 100 250 100 c 128,-1,33
 198 100 198 100 161.5 136.5 c 128,-1,34
 125 173 125 173 125 225 c 128,-1,35
 125 277 125 277 161.5 313.5 c 128,-1,28
 198 350 198 350 250 350 c 128,-1,29
250 300 m 128,-1,37
 219 300 219 300 197 278 c 128,-1,38
 175 256 175 256 175 225 c 128,-1,39
 175 194 175 194 197 172 c 128,-1,40
 219 150 219 150 250 150 c 128,-1,41
 281 150 281 150 303 172 c 128,-1,42
 325 194 325 194 325 225 c 128,-1,43
 325 256 325 256 303 278 c 128,-1,36
 281 300 281 300 250 300 c 128,-1,37
EndSplineSet
EndChar

StartChar: parenleft
Encoding: 40 40 2
Width: 500
VWidth: 1000
Flags: W
LayerCount: 2
Fore
SplineSet
350 500 m 0,0,1
 360 500 360 500 367.5 492.5 c 128,-1,2
 375 485 375 485 375 475 c 128,-1,3
 375 465 375 465 367.5 457.5 c 128,-1,4
 360 450 360 450 350 450 c 0,5,6
 319 450 319 450 297 428 c 128,-1,7
 275 406 275 406 275 375 c 2,8,-1
 275 75 l 2,9,10
 275 44 275 44 297 22 c 128,-1,11
 319 0 319 0 350 0 c 0,12,13
 360 0 360 0 367.5 -7.5 c 128,-1,14
 375 -15 375 -15 375 -25 c 128,-1,15
 375 -35 375 -35 367.5 -42.5 c 128,-1,16
 360 -50 360 -50 350 -50 c 0,17,18
 298 -50 298 -50 261.5 -13.5 c 128,-1,19
 225 23 225 23 225 75 c 2,20,-1
 225 375 l 2,21,22
 225 427 225 427 261.5 463.5 c 128,-1,23
 298 500 298 500 350 500 c 0,0,1
EndSplineSet
EndChar

StartChar: parenright
Encoding: 41 41 3
Width: 500
VWidth: 1000
Flags: W
LayerCount: 2
Fore
SplineSet
150 500 m 0,0,1
 202 500 202 500 238.5 463.5 c 128,-1,2
 275 427 275 427 275 375 c 2,3,-1
 275 75 l 2,4,5
 275 23 275 23 238.5 -13.5 c 128,-1,6
 202 -50 202 -50 150 -50 c 0,7,8
 140 -50 140 -50 132.5 -42.5 c 128,-1,9
 125 -35 125 -35 125 -25 c 128,-1,10
 125 -15 125 -15 132.5 -7.5 c 128,-1,11
 140 0 140 0 150 0 c 0,12,13
 181 0 181 0 203 22 c 128,-1,14
 225 44 225 44 225 75 c 2,15,-1
 225 375 l 2,16,17
 225 406 225 406 203 428 c 128,-1,18
 181 450 181 450 150 450 c 0,19,20
 140 450 140 450 132.5 457.5 c 128,-1,21
 125 465 125 465 125 475 c 128,-1,22
 125 485 125 485 132.5 492.5 c 128,-1,23
 140 500 140 500 150 500 c 0,0,1
EndSplineSet
EndChar

StartChar: l
Encoding: 108 108 4
Width: 500
VWidth: 1000
Flags: W
LayerCount: 2
Fore
SplineSet
150 450 m 2,0,-1
 350 450 l 2,1,2
 402 450 402 450 438.5 413.5 c 128,-1,3
 475 377 475 377 475 325 c 2,4,-1
 475 125 l 2,5,6
 475 73 475 73 438.5 36.5 c 128,-1,7
 402 0 402 0 350 0 c 2,8,-1
 150 0 l 2,9,10
 98 0 98 0 61.5 36.5 c 128,-1,11
 25 73 25 73 25 125 c 2,12,-1
 25 325 l 2,13,14
 25 377 25 377 61.5 413.5 c 128,-1,15
 98 450 98 450 150 450 c 2,0,-1
150 400 m 2,16,17
 119 400 119 400 97 378 c 128,-1,18
 75 356 75 356 75 325 c 2,19,-1
 75 125 l 2,20,21
 75 94 75 94 97 72 c 128,-1,22
 119 50 119 50 150 50 c 2,23,-1
 350 50 l 2,24,25
 381 50 381 50 403 72 c 128,-1,26
 425 94 425 94 425 125 c 2,27,-1
 425 325 l 2,28,29
 425 356 425 356 403 378 c 128,-1,30
 381 400 381 400 350 400 c 2,31,-1
 150 400 l 2,16,17
50 450 m 0,32,33
 46.708238605 450 46.708238605 450 43.5302734375 449.1484375 c 0,34,35
 37.0594857498 447.4149545 37.0594857498 447.4149545 32.322265625 442.677734375 c 0,36,37
 24.99609375 435.3515625 24.99609375 435.3515625 24.99609375 425.00390625 c 128,-1,38
 24.99609375 414.6484375 24.99609375 414.6484375 32.322265625 407.322265625 c 1,39,-1
 32.322265625 407.322265625 432.322265625 7.322265625 432.322265625 7.322265625 c 2,40,41
 439.6484375 -0.00390625 439.6484375 -0.00390625 449.99609375 -0.00390625 c 128,-1,42
 460.3515625 -0.00390625 460.3515625 -0.00390625 467.677734375 7.322265625 c 128,-1,43
 475.00390625 14.6484375 475.00390625 14.6484375 475.00390625 24.99609375 c 128,-1,44
 475.00390625 35.3515625 475.00390625 35.3515625 467.677734375 42.677734375 c 1,45,-1
 467.677734375 42.677734375 67.677734375 442.677734375 67.677734375 442.677734375 c 2,46,47
 60.35546875 450 60.35546875 450 50 450 c 1024,48,-1
EndSplineSet
Substitution2: "isol-1" uni006C.isol
Substitution2: "fina-1" uni006C.fina
Substitution2: "medi-1" uni006C.medi
Substitution2: "init-1" uni006C.init
EndChar

StartChar: Y
Encoding: 89 89 5
Width: 500
VWidth: 1000
Flags: W
LayerCount: 2
Fore
SplineSet
350 450 m 2,0,1
 402 450 402 450 438.5 413.5 c 128,-1,2
 475 377 475 377 475 325 c 2,3,-1
 475 125 l 2,4,5
 475 73 475 73 438.5 36.5 c 128,-1,6
 402 0 402 0 350 0 c 2,7,-1
 50 0 l 2,8,9
 40 0 40 0 32.5 7.5 c 128,-1,10
 25 15 25 15 25 25 c 128,-1,11
 25 35 25 35 32.5 42.5 c 128,-1,12
 40 50 40 50 50 50 c 2,13,-1
 350 50 l 2,14,15
 381 50 381 50 403 72 c 128,-1,16
 425 94 425 94 425 125 c 2,17,-1
 425 325 l 2,18,19
 425 356 425 356 403 378 c 128,-1,20
 381 400 381 400 350 400 c 2,21,-1
 50 400 l 2,22,23
 40 400 40 400 32.5 407.5 c 128,-1,24
 25 415 25 415 25 425 c 128,-1,25
 25 435 25 435 32.5 442.5 c 128,-1,26
 40 450 40 450 50 450 c 2,27,-1
 350 450 l 2,0,1
50 450 m 0,28,29
 46.708238605 450 46.708238605 450 43.5302734375 449.1484375 c 0,30,31
 37.0594857498 447.4149545 37.0594857498 447.4149545 32.322265625 442.677734375 c 0,32,33
 24.99609375 435.3515625 24.99609375 435.3515625 24.99609375 425.00390625 c 128,-1,34
 24.99609375 414.6484375 24.99609375 414.6484375 32.322265625 407.322265625 c 1,35,-1
 32.322265625 407.322265625 432.322265625 7.322265625 432.322265625 7.322265625 c 2,36,37
 439.6484375 -0.00390625 439.6484375 -0.00390625 449.99609375 -0.00390625 c 128,-1,38
 460.3515625 -0.00390625 460.3515625 -0.00390625 467.677734375 7.322265625 c 128,-1,39
 475.00390625 14.6484375 475.00390625 14.6484375 475.00390625 24.99609375 c 128,-1,40
 475.00390625 35.3515625 475.00390625 35.3515625 467.677734375 42.677734375 c 1,41,-1
 467.677734375 42.677734375 67.677734375 442.677734375 67.677734375 442.677734375 c 2,42,43
 60.35546875 450 60.35546875 450 50 450 c 1024,44,-1
250 350 m 128,-1,46
 302 350 302 350 338.5 313.5 c 128,-1,47
 375 277 375 277 375 225 c 128,-1,48
 375 173 375 173 338.5 136.5 c 128,-1,49
 302 100 302 100 250 100 c 128,-1,50
 198 100 198 100 161.5 136.5 c 128,-1,51
 125 173 125 173 125 225 c 128,-1,52
 125 277 125 277 161.5 313.5 c 128,-1,45
 198 350 198 350 250 350 c 128,-1,46
250 300 m 128,-1,54
 219 300 219 300 197 278 c 128,-1,55
 175 256 175 256 175 225 c 128,-1,56
 175 194 175 194 197 172 c 128,-1,57
 219 150 219 150 250 150 c 128,-1,58
 281 150 281 150 303 172 c 128,-1,59
 325 194 325 194 325 225 c 128,-1,60
 325 256 325 256 303 278 c 128,-1,53
 281 300 281 300 250 300 c 128,-1,54
EndSplineSet
Substitution2: "isol-1" uni0059.isol
Substitution2: "fina-1" uni0059.fina
Substitution2: "medi-1" uni0059.medi
Substitution2: "init-1" uni0059.init
EndChar

StartChar: q
Encoding: 113 113 6
Width: 500
VWidth: 1000
Flags: W
LayerCount: 2
Fore
SplineSet
350 450 m 2,0,1
 402 450 402 450 438.5 413.5 c 128,-1,2
 475 377 475 377 475 325 c 2,3,-1
 475 125 l 2,4,5
 475 73 475 73 438.5 36.5 c 128,-1,6
 402 0 402 0 350 0 c 2,7,-1
 50 0 l 2,8,9
 40 0 40 0 32.5 7.5 c 128,-1,10
 25 15 25 15 25 25 c 128,-1,11
 25 35 25 35 32.5 42.5 c 128,-1,12
 40 50 40 50 50 50 c 2,13,-1
 350 50 l 2,14,15
 381 50 381 50 403 72 c 128,-1,16
 425 94 425 94 425 125 c 2,17,-1
 425 325 l 2,18,19
 425 356 425 356 403 378 c 128,-1,20
 381 400 381 400 350 400 c 2,21,-1
 50 400 l 2,22,23
 40 400 40 400 32.5 407.5 c 128,-1,24
 25 415 25 415 25 425 c 128,-1,25
 25 435 25 435 32.5 442.5 c 128,-1,26
 40 450 40 450 50 450 c 2,27,-1
 350 450 l 2,0,1
EndSplineSet
Substitution2: "isol-1" uni0071.isol
Substitution2: "fina-1" uni0071.fina
Substitution2: "medi-1" uni0071.medi
Substitution2: "init-1" uni0071.init
EndChar

StartChar: e
Encoding: 101 101 7
Width: 0
VWidth: 1000
GlyphClass: 4
Flags: W
LayerCount: 2
Fore
SplineSet
-250.544921875 499.994140625 m 0,0,-1
 -250 500 l 0,1,2
 -240 500 -240 500 -232.5 492.5 c 128,-1,3
 -225 485 -225 485 -225 475 c 128,-1,4
 -225 465 -225 465 -232.5 457.5 c 128,-1,5
 -240 450 -240 450 -250 450 c 128,-1,6
 -260 450 -260 450 -267.5 457.5 c 128,-1,7
 -275 465 -275 465 -275 475 c 128,-1,8
 -275 484.83435089 -275 484.83435089 -268.296024405 492.017364189 c 128,-1,9
 -261.592048809 499.200377487 -261.592048809 499.200377487 -251.869140625 499.9296875 c 0,10,11
 -251.200190918 499.979895646 -251.200190918 499.979895646 -250.544921875 499.994140625 c 0,0,-1
EndSplineSet
EndChar

StartChar: d
Encoding: 100 100 8
Width: 500
VWidth: 1000
Flags: W
LayerCount: 2
Fore
SplineSet
50 450 m 128,-1,1
 60 450 60 450 67.5 442.5 c 128,-1,2
 75 435 75 435 75 425 c 2,3,-1
 75 125 l 2,4,5
 75 94 75 94 97 72 c 128,-1,6
 119 50 119 50 150 50 c 2,7,-1
 350 50 l 2,8,9
 381 50 381 50 403 72 c 128,-1,10
 425 94 425 94 425 125 c 2,11,-1
 425 425 l 2,12,13
 425 435 425 435 432.5 442.5 c 128,-1,14
 440 450 440 450 450 450 c 128,-1,15
 460 450 460 450 467.5 442.5 c 128,-1,16
 475 435 475 435 475 425 c 2,17,-1
 475 125 l 2,18,19
 475 73 475 73 438.5 36.5 c 128,-1,20
 402 0 402 0 350 0 c 2,21,-1
 150 0 l 2,22,23
 98 0 98 0 61.5 36.5 c 128,-1,24
 25 73 25 73 25 125 c 2,25,-1
 25 425 l 2,26,27
 25 435 25 435 32.5 442.5 c 128,-1,0
 40 450 40 450 50 450 c 128,-1,1
50 450 m 0,28,29
 46.708238605 450 46.708238605 450 43.5302734375 449.1484375 c 0,30,31
 37.0594857498 447.4149545 37.0594857498 447.4149545 32.322265625 442.677734375 c 0,32,33
 24.99609375 435.3515625 24.99609375 435.3515625 24.99609375 425.00390625 c 128,-1,34
 24.99609375 414.6484375 24.99609375 414.6484375 32.322265625 407.322265625 c 1,35,-1
 32.322265625 407.322265625 432.322265625 7.322265625 432.322265625 7.322265625 c 2,36,37
 439.6484375 -0.00390625 439.6484375 -0.00390625 449.99609375 -0.00390625 c 128,-1,38
 460.3515625 -0.00390625 460.3515625 -0.00390625 467.677734375 7.322265625 c 128,-1,39
 475.00390625 14.6484375 475.00390625 14.6484375 475.00390625 24.99609375 c 128,-1,40
 475.00390625 35.3515625 475.00390625 35.3515625 467.677734375 42.677734375 c 1,41,-1
 467.677734375 42.677734375 67.677734375 442.677734375 67.677734375 442.677734375 c 2,42,43
 60.35546875 450 60.35546875 450 50 450 c 1024,44,-1
EndSplineSet
Substitution2: "isol-1" uni0064.isol
Substitution2: "fina-1" uni0064.fina
Substitution2: "medi-1" uni0064.medi
Substitution2: "init-1" uni0064.init
EndChar

StartChar: p
Encoding: 112 112 9
Width: 500
VWidth: 1000
Flags: W
LayerCount: 2
Fore
SplineSet
150 450 m 2,0,-1
 450 450 l 2,1,2
 460 450 460 450 467.5 442.5 c 128,-1,3
 475 435 475 435 475 425 c 128,-1,4
 475 415 475 415 467.5 407.5 c 128,-1,5
 460 400 460 400 450 400 c 2,6,-1
 150 400 l 2,7,8
 119 400 119 400 97 378 c 128,-1,9
 75 356 75 356 75 325 c 2,10,-1
 75 125 l 2,11,12
 75 94 75 94 97 72 c 128,-1,13
 119 50 119 50 150 50 c 2,14,-1
 450 50 l 2,15,16
 460 50 460 50 467.5 42.5 c 128,-1,17
 475 35 475 35 475 25 c 128,-1,18
 475 15 475 15 467.5 7.5 c 128,-1,19
 460 0 460 0 450 0 c 2,20,-1
 150 0 l 2,21,22
 98 0 98 0 61.5 36.5 c 128,-1,23
 25 73 25 73 25 125 c 2,24,-1
 25 325 l 2,25,26
 25 377 25 377 61.5 413.5 c 128,-1,27
 98 450 98 450 150 450 c 2,0,-1
EndSplineSet
Substitution2: "isol-1" uni0070.isol
Substitution2: "fina-1" uni0070.fina
Substitution2: "medi-1" uni0070.medi
Substitution2: "init-1" uni0070.init
EndChar

StartChar: X
Encoding: 88 88 10
Width: 500
VWidth: 1000
Flags: W
LayerCount: 2
Fore
SplineSet
450 0 m 128,-1,1
 440 0 440 0 432.5 7.5 c 128,-1,2
 425 15 425 15 425 25 c 2,3,-1
 425 325 l 2,4,5
 425 356 425 356 403 378 c 128,-1,6
 381 400 381 400 350 400 c 2,7,-1
 50 400 l 2,8,9
 40 400 40 400 32.5 407.5 c 128,-1,10
 25 415 25 415 25 425 c 128,-1,11
 25 435 25 435 32.5 442.5 c 128,-1,12
 40 450 40 450 50 450 c 2,13,-1
 350 450 l 2,14,15
 402 450 402 450 438.5 413.5 c 128,-1,16
 475 377 475 377 475 325 c 2,17,-1
 475 25 l 2,18,19
 475 15 475 15 467.5 7.5 c 128,-1,0
 460 0 460 0 450 0 c 128,-1,1
50 450 m 0,20,21
 46.708238605 450 46.708238605 450 43.5302734375 449.1484375 c 0,22,23
 37.0594857498 447.4149545 37.0594857498 447.4149545 32.322265625 442.677734375 c 0,24,25
 24.99609375 435.3515625 24.99609375 435.3515625 24.99609375 425.00390625 c 128,-1,26
 24.99609375 414.6484375 24.99609375 414.6484375 32.322265625 407.322265625 c 1,27,-1
 32.322265625 407.322265625 432.322265625 7.322265625 432.322265625 7.322265625 c 2,28,29
 439.6484375 -0.00390625 439.6484375 -0.00390625 449.99609375 -0.00390625 c 128,-1,30
 460.3515625 -0.00390625 460.3515625 -0.00390625 467.677734375 7.322265625 c 128,-1,31
 475.00390625 14.6484375 475.00390625 14.6484375 475.00390625 24.99609375 c 128,-1,32
 475.00390625 35.3515625 475.00390625 35.3515625 467.677734375 42.677734375 c 1,33,-1
 467.677734375 42.677734375 67.677734375 442.677734375 67.677734375 442.677734375 c 2,34,35
 60.35546875 450 60.35546875 450 50 450 c 1024,36,-1
EndSplineSet
Substitution2: "isol-1" uni0058.isol
Substitution2: "fina-1" uni0058.fina
Substitution2: "medi-1" uni0058.medi
Substitution2: "init-1" uni0058.init
EndChar

StartChar: k
Encoding: 107 107 11
Width: 500
VWidth: 1000
Flags: W
LayerCount: 2
Fore
SplineSet
450 450 m 128,-1,1
 460 450 460 450 467.5 442.5 c 128,-1,2
 475 435 475 435 475 425 c 2,3,-1
 475 125 l 2,4,5
 475 73 475 73 438.5 36.5 c 128,-1,6
 402 0 402 0 350 0 c 2,7,-1
 50 0 l 2,8,9
 40 0 40 0 32.5 7.5 c 128,-1,10
 25 15 25 15 25 25 c 128,-1,11
 25 35 25 35 32.5 42.5 c 128,-1,12
 40 50 40 50 50 50 c 2,13,-1
 350 50 l 2,14,15
 381 50 381 50 403 72 c 128,-1,16
 425 94 425 94 425 125 c 2,17,-1
 425 425 l 2,18,19
 425 435 425 435 432.5 442.5 c 128,-1,0
 440 450 440 450 450 450 c 128,-1,1
EndSplineSet
Substitution2: "isol-1" uni006B.isol
Substitution2: "fina-1" uni006B.fina
Substitution2: "medi-1" uni006B.medi
Substitution2: "init-1" uni006B.init
EndChar

StartChar: braceright
Encoding: 125 125 12
Width: 500
VWidth: 1000
Flags: W
LayerCount: 2
Fore
SplineSet
150 500 m 0,0,1
 202 500 202 500 238.5 463.5 c 128,-1,2
 275 427 275 427 275 375 c 2,3,-1
 275 325 l 2,4,5
 275 294 275 294 297 272 c 128,-1,6
 319 250 319 250 350 250 c 0,7,8
 351.602721956 249.98557406 351.602721956 249.98557406 353.1796875 249.76953125 c 2,9,-1
 353.1796875 249.76953125 l 0,10,-1
 354.119140625 249.630859375 l 1,11,12
 355.308530132 249.427005933 355.308530132 249.427005933 356.470703125 249.109375 c 2,13,-1
 356.470703125 249.109375 l 0,14,-1
 357.310546875 248.890625 l 1,15,16
 358.839039774 248.428693556 358.839039774 248.428693556 360.2890625 247.779296875 c 2,17,-1
 360.73046875 247.55078125 l 1,18,19
 361.95907105 246.969960968 361.95907105 246.969960968 363.130859375 246.25 c 2,20,-1
 363.9296875 245.73046875 l 0,21,22
 364.966028488 245.031811904 364.966028488 245.031811904 365.9296875 244.23046875 c 2,23,-1
 366.509765625 243.75 l 0,24,25
 367.700481492 242.700481492 367.700481492 242.700481492 368.75 241.509765625 c 2,26,-1
 369.220703125 240.9296875 l 0,27,28
 370.022046279 239.966028488 370.022046279 239.966028488 370.720703125 238.9296875 c 2,29,-1
 370.720703125 238.9296875 l 0,30,-1
 371.240234375 238.130859375 l 1,31,32
 371.957487687 236.974471382 371.957487687 236.974471382 372.55078125 235.73046875 c 2,33,-1
 372.76953125 235.2890625 l 1,34,35
 373.426172381 233.832837951 373.426172381 233.832837951 373.890625 232.310546875 c 2,36,-1
 373.890625 232.310546875 l 0,37,-1
 374.109375 231.470703125 l 1,38,39
 374.421291829 230.307698949 374.421291829 230.307698949 374.619140625 229.119140625 c 2,40,-1
 374.76953125 228.1796875 l 0,41,42
 374.98557406 226.602721956 374.98557406 226.602721956 375 225 c 0,43,44
 374.919385687 220.47552171 374.919385687 220.47552171 373.259765625 216.26953125 c 0,45,46
 372.701611567 214.997527529 372.701611567 214.997527529 372.009765625 213.80078125 c 0,47,48
 370.606793128 211.003604835 370.606793128 211.003604835 368.560546875 208.640625 c 0,49,50
 367.528383608 207.471616392 367.528383608 207.471616392 366.359375 206.439453125 c 0,51,52
 363.996395165 204.393206872 363.996395165 204.393206872 361.19921875 202.990234375 c 0,53,54
 360.002472471 202.298388433 360.002472471 202.298388433 358.73046875 201.740234375 c 0,55,56
 354.52447829 200.080614313 354.52447829 200.080614313 350 200 c 0,57,58
 319 200 319 200 297 178 c 128,-1,59
 275 156 275 156 275 125 c 2,60,-1
 275 75 l 2,61,62
 275 23 275 23 238.5 -13.5 c 128,-1,63
 202 -50 202 -50 150 -50 c 0,64,65
 140 -50 140 -50 132.5 -42.5 c 128,-1,66
 125 -35 125 -35 125 -25 c 128,-1,67
 125 -15 125 -15 132.5 -7.5 c 128,-1,68
 140 0 140 0 150 0 c 0,69,70
 181 0 181 0 203 22 c 128,-1,71
 225 44 225 44 225 75 c 2,72,-1
 225 125 l 0,73,74
 225.064205522 187.794494121 225.064205522 187.794494121 275.48046875 225.23046875 c 1,75,76
 225.2956749 262.49313155 225.2956749 262.49313155 225 325 c 2,77,-1
 225 375 l 2,78,79
 225 406 225 406 203 428 c 128,-1,80
 181 450 181 450 150 450 c 0,81,82
 140 450 140 450 132.5 457.5 c 128,-1,83
 125 465 125 465 125 475 c 128,-1,84
 125 485 125 485 132.5 492.5 c 128,-1,85
 140 500 140 500 150 500 c 0,0,1
EndSplineSet
EndChar

StartChar: f
Encoding: 102 102 13
Width: 500
VWidth: 1000
Flags: W
LayerCount: 2
Fore
SplineSet
50 0 m 128,-1,1
 40 0 40 0 32.5 7.5 c 128,-1,2
 25 15 25 15 25 25 c 2,3,-1
 25 325 l 2,4,5
 25 377 25 377 61.5 413.5 c 128,-1,6
 98 450 98 450 150 450 c 2,7,-1
 350 450 l 2,8,9
 402 450 402 450 438.5 413.5 c 128,-1,10
 475 377 475 377 475 325 c 2,11,-1
 475 25 l 2,12,13
 475 15 475 15 467.5 7.5 c 128,-1,14
 460 0 460 0 450 0 c 128,-1,15
 440 0 440 0 432.5 7.5 c 128,-1,16
 425 15 425 15 425 25 c 2,17,-1
 425 325 l 2,18,19
 425 356 425 356 403 378 c 128,-1,20
 381 400 381 400 350 400 c 2,21,-1
 150 400 l 2,22,23
 119 400 119 400 97 378 c 128,-1,24
 75 356 75 356 75 325 c 2,25,-1
 75 25 l 2,26,27
 75 15 75 15 67.5 7.5 c 128,-1,0
 60 0 60 0 50 0 c 128,-1,1
EndSplineSet
Substitution2: "isol-1" uni0066.isol
Substitution2: "fina-1" uni0066.fina
Substitution2: "medi-1" uni0066.medi
Substitution2: "init-1" uni0066.init
EndChar

StartChar: r
Encoding: 114 114 14
Width: 500
VWidth: 1000
Flags: W
LayerCount: 2
Fore
SplineSet
150 450 m 2,0,-1
 350 450 l 2,1,2
 402 450 402 450 438.5 413.5 c 128,-1,3
 475 377 475 377 475 325 c 2,4,-1
 475 125 l 2,5,6
 475 73 475 73 438.5 36.5 c 128,-1,7
 402 0 402 0 350 0 c 2,8,-1
 150 0 l 2,9,10
 98 0 98 0 61.5 36.5 c 128,-1,11
 25 73 25 73 25 125 c 2,12,-1
 25 325 l 2,13,14
 25 377 25 377 61.5 413.5 c 128,-1,15
 98 450 98 450 150 450 c 2,0,-1
150 400 m 2,16,17
 119 400 119 400 97 378 c 128,-1,18
 75 356 75 356 75 325 c 2,19,-1
 75 125 l 2,20,21
 75 94 75 94 97 72 c 128,-1,22
 119 50 119 50 150 50 c 2,23,-1
 350 50 l 2,24,25
 381 50 381 50 403 72 c 128,-1,26
 425 94 425 94 425 125 c 2,27,-1
 425 325 l 2,28,29
 425 356 425 356 403 378 c 128,-1,30
 381 400 381 400 350 400 c 2,31,-1
 150 400 l 2,16,17
EndSplineSet
Substitution2: "isol-1" uni0072.isol
Substitution2: "fina-1" uni0072.fina
Substitution2: "medi-1" uni0072.medi
Substitution2: "init-1" uni0072.init
EndChar

StartChar: s
Encoding: 115 115 15
Width: 500
VWidth: 1000
Flags: W
LayerCount: 2
Fore
SplineSet
50 450 m 128,-1,1
 60 450 60 450 67.5 442.5 c 128,-1,2
 75 435 75 435 75 425 c 2,3,-1
 75 125 l 2,4,5
 75 94 75 94 97 72 c 128,-1,6
 119 50 119 50 150 50 c 2,7,-1
 450 50 l 2,8,9
 460 50 460 50 467.5 42.5 c 128,-1,10
 475 35 475 35 475 25 c 128,-1,11
 475 15 475 15 467.5 7.5 c 128,-1,12
 460 0 460 0 450 0 c 2,13,-1
 150 0 l 2,14,15
 98 0 98 0 61.5 36.5 c 128,-1,16
 25 73 25 73 25 125 c 2,17,-1
 25 425 l 2,18,19
 25 435 25 435 32.5 442.5 c 128,-1,0
 40 450 40 450 50 450 c 128,-1,1
EndSplineSet
Substitution2: "isol-1" uni0073.isol
Substitution2: "fina-1" uni0073.fina
Substitution2: "medi-1" uni0073.medi
Substitution2: "init-1" uni0073.init
EndChar

StartChar: g
Encoding: 103 103 16
Width: 500
VWidth: 1000
Flags: W
LayerCount: 2
Fore
SplineSet
450 450 m 128,-1,1
 460 450 460 450 467.5 442.5 c 128,-1,2
 475 435 475 435 475 425 c 2,3,-1
 475 125 l 2,4,5
 475 73 475 73 438.5 36.5 c 128,-1,6
 402 0 402 0 350 0 c 2,7,-1
 50 0 l 2,8,9
 40 0 40 0 32.5 7.5 c 128,-1,10
 25 15 25 15 25 25 c 128,-1,11
 25 35 25 35 32.5 42.5 c 128,-1,12
 40 50 40 50 50 50 c 2,13,-1
 350 50 l 2,14,15
 381 50 381 50 403 72 c 128,-1,16
 425 94 425 94 425 125 c 2,17,-1
 425 425 l 2,18,19
 425 435 425 435 432.5 442.5 c 128,-1,0
 440 450 440 450 450 450 c 128,-1,1
50 450 m 0,20,21
 46.708238605 450 46.708238605 450 43.5302734375 449.1484375 c 0,22,23
 37.0594857498 447.4149545 37.0594857498 447.4149545 32.322265625 442.677734375 c 0,24,25
 24.99609375 435.3515625 24.99609375 435.3515625 24.99609375 425.00390625 c 128,-1,26
 24.99609375 414.6484375 24.99609375 414.6484375 32.322265625 407.322265625 c 1,27,-1
 32.322265625 407.322265625 432.322265625 7.322265625 432.322265625 7.322265625 c 2,28,29
 439.6484375 -0.00390625 439.6484375 -0.00390625 449.99609375 -0.00390625 c 128,-1,30
 460.3515625 -0.00390625 460.3515625 -0.00390625 467.677734375 7.322265625 c 128,-1,31
 475.00390625 14.6484375 475.00390625 14.6484375 475.00390625 24.99609375 c 128,-1,32
 475.00390625 35.3515625 475.00390625 35.3515625 467.677734375 42.677734375 c 1,33,-1
 467.677734375 42.677734375 67.677734375 442.677734375 67.677734375 442.677734375 c 2,34,35
 60.35546875 450 60.35546875 450 50 450 c 1024,36,-1
EndSplineSet
Substitution2: "isol-1" uni0067.isol
Substitution2: "fina-1" uni0067.fina
Substitution2: "medi-1" uni0067.medi
Substitution2: "init-1" uni0067.init
EndChar

StartChar: asciitilde
Encoding: 126 126 17
Width: 500
VWidth: 1000
Flags: W
LayerCount: 2
Fore
SplineSet
150 350 m 128,-1,1
 202 350 202 350 238.5 313.5 c 128,-1,2
 275 277 275 277 275 225 c 0,3,4
 275 194 275 194 297 172 c 128,-1,5
 319 150 319 150 350 150 c 128,-1,6
 381 150 381 150 403 172 c 128,-1,7
 425 194 425 194 425 225 c 0,8,9
 425 235 425 235 432.5 242.5 c 128,-1,10
 440 250 440 250 450 250 c 128,-1,11
 460 250 460 250 467.5 242.5 c 128,-1,12
 475 235 475 235 475 225 c 0,13,14
 475 173 475 173 438.5 136.5 c 128,-1,15
 402 100 402 100 350 100 c 128,-1,16
 298 100 298 100 261.5 136.5 c 128,-1,17
 225 173 225 173 225 225 c 0,18,19
 225 256 225 256 203 278 c 128,-1,20
 181 300 181 300 150 300 c 128,-1,21
 119 300 119 300 97 278 c 128,-1,22
 75 256 75 256 75 225 c 0,23,24
 75 215 75 215 67.5 207.5 c 128,-1,25
 60 200 60 200 50 200 c 128,-1,26
 40 200 40 200 32.5 207.5 c 128,-1,27
 25 215 25 215 25 225 c 0,28,29
 25 277 25 277 61.5 313.5 c 128,-1,0
 98 350 98 350 150 350 c 128,-1,1
EndSplineSet
EndChar

StartChar: j
Encoding: 106 106 18
Width: 500
VWidth: 1000
Flags: W
LayerCount: 2
Fore
SplineSet
50 450 m 128,-1,1
 60 450 60 450 67.5 442.5 c 128,-1,2
 75 435 75 435 75 425 c 2,3,-1
 75 125 l 2,4,5
 75 94 75 94 97 72 c 128,-1,6
 119 50 119 50 150 50 c 2,7,-1
 450 50 l 2,8,9
 460 50 460 50 467.5 42.5 c 128,-1,10
 475 35 475 35 475 25 c 128,-1,11
 475 15 475 15 467.5 7.5 c 128,-1,12
 460 0 460 0 450 0 c 2,13,-1
 150 0 l 2,14,15
 98 0 98 0 61.5 36.5 c 128,-1,16
 25 73 25 73 25 125 c 2,17,-1
 25 425 l 2,18,19
 25 435 25 435 32.5 442.5 c 128,-1,0
 40 450 40 450 50 450 c 128,-1,1
50 450 m 0,20,21
 46.708238605 450 46.708238605 450 43.5302734375 449.1484375 c 0,22,23
 37.0594857498 447.4149545 37.0594857498 447.4149545 32.322265625 442.677734375 c 0,24,25
 24.99609375 435.3515625 24.99609375 435.3515625 24.99609375 425.00390625 c 128,-1,26
 24.99609375 414.6484375 24.99609375 414.6484375 32.322265625 407.322265625 c 1,27,-1
 32.322265625 407.322265625 432.322265625 7.322265625 432.322265625 7.322265625 c 2,28,29
 439.6484375 -0.00390625 439.6484375 -0.00390625 449.99609375 -0.00390625 c 128,-1,30
 460.3515625 -0.00390625 460.3515625 -0.00390625 467.677734375 7.322265625 c 128,-1,31
 475.00390625 14.6484375 475.00390625 14.6484375 475.00390625 24.99609375 c 128,-1,32
 475.00390625 35.3515625 475.00390625 35.3515625 467.677734375 42.677734375 c 1,33,-1
 467.677734375 42.677734375 67.677734375 442.677734375 67.677734375 442.677734375 c 2,34,35
 60.35546875 450 60.35546875 450 50 450 c 1024,36,-1
250 350 m 128,-1,38
 302 350 302 350 338.5 313.5 c 128,-1,39
 375 277 375 277 375 225 c 128,-1,40
 375 173 375 173 338.5 136.5 c 128,-1,41
 302 100 302 100 250 100 c 128,-1,42
 198 100 198 100 161.5 136.5 c 128,-1,43
 125 173 125 173 125 225 c 128,-1,44
 125 277 125 277 161.5 313.5 c 128,-1,37
 198 350 198 350 250 350 c 128,-1,38
250 300 m 128,-1,46
 219 300 219 300 197 278 c 128,-1,47
 175 256 175 256 175 225 c 128,-1,48
 175 194 175 194 197 172 c 128,-1,49
 219 150 219 150 250 150 c 128,-1,50
 281 150 281 150 303 172 c 128,-1,51
 325 194 325 194 325 225 c 128,-1,52
 325 256 325 256 303 278 c 128,-1,45
 281 300 281 300 250 300 c 128,-1,46
EndSplineSet
Substitution2: "isol-1" uni006A.isol
Substitution2: "fina-1" uni006A.fina
Substitution2: "medi-1" uni006A.medi
Substitution2: "init-1" uni006A.init
EndChar

StartChar: c
Encoding: 99 99 19
Width: 500
VWidth: 1000
Flags: W
LayerCount: 2
Fore
SplineSet
350 450 m 2,0,1
 402 450 402 450 438.5 413.5 c 128,-1,2
 475 377 475 377 475 325 c 2,3,-1
 475 125 l 2,4,5
 475 73 475 73 438.5 36.5 c 128,-1,6
 402 0 402 0 350 0 c 2,7,-1
 50 0 l 2,8,9
 40 0 40 0 32.5 7.5 c 128,-1,10
 25 15 25 15 25 25 c 128,-1,11
 25 35 25 35 32.5 42.5 c 128,-1,12
 40 50 40 50 50 50 c 2,13,-1
 350 50 l 2,14,15
 381 50 381 50 403 72 c 128,-1,16
 425 94 425 94 425 125 c 2,17,-1
 425 325 l 2,18,19
 425 356 425 356 403 378 c 128,-1,20
 381 400 381 400 350 400 c 2,21,-1
 50 400 l 2,22,23
 40 400 40 400 32.5 407.5 c 128,-1,24
 25 415 25 415 25 425 c 128,-1,25
 25 435 25 435 32.5 442.5 c 128,-1,26
 40 450 40 450 50 450 c 2,27,-1
 350 450 l 2,0,1
50 450 m 0,28,29
 46.708238605 450 46.708238605 450 43.5302734375 449.1484375 c 0,30,31
 37.0594857498 447.4149545 37.0594857498 447.4149545 32.322265625 442.677734375 c 0,32,33
 24.99609375 435.3515625 24.99609375 435.3515625 24.99609375 425.00390625 c 128,-1,34
 24.99609375 414.6484375 24.99609375 414.6484375 32.322265625 407.322265625 c 1,35,-1
 32.322265625 407.322265625 432.322265625 7.322265625 432.322265625 7.322265625 c 2,36,37
 439.6484375 -0.00390625 439.6484375 -0.00390625 449.99609375 -0.00390625 c 128,-1,38
 460.3515625 -0.00390625 460.3515625 -0.00390625 467.677734375 7.322265625 c 128,-1,39
 475.00390625 14.6484375 475.00390625 14.6484375 475.00390625 24.99609375 c 128,-1,40
 475.00390625 35.3515625 475.00390625 35.3515625 467.677734375 42.677734375 c 1,41,-1
 467.677734375 42.677734375 67.677734375 442.677734375 67.677734375 442.677734375 c 2,42,43
 60.35546875 450 60.35546875 450 50 450 c 1024,44,-1
EndSplineSet
Substitution2: "isol-1" uni0063.isol
Substitution2: "fina-1" uni0063.fina
Substitution2: "medi-1" uni0063.medi
Substitution2: "init-1" uni0063.init
EndChar

StartChar: w
Encoding: 119 119 20
Width: 0
VWidth: 1000
GlyphClass: 4
Flags: W
LayerCount: 2
Fore
SplineSet
-350 -50 m 1,0,-1
 -150 -50 l 1,1,-1
 -150 -50.25390625 l 1,2,3
 -139.721510201 -50.25390625 -139.721510201 -50.25390625 -132.412784679 -57.4947115851 c 128,-1,4
 -125.104059156 -64.7355169202 -125.104059156 -64.7355169202 -125 -75 c 0,5,6
 -125.104059156 -85.2644830798 -125.104059156 -85.2644830798 -132.412784679 -92.5052884149 c 128,-1,7
 -139.721510201 -99.74609375 -139.721510201 -99.74609375 -150 -99.74609375 c 1,8,-1
 -150 -100 l 1,9,-1
 -350 -100 l 1,10,-1
 -350 -99.74609375 l 1,11,12
 -360.278489799 -99.74609375 -360.278489799 -99.74609375 -367.587215321 -92.5052884149 c 128,-1,13
 -374.895940844 -85.2644830798 -374.895940844 -85.2644830798 -375 -75 c 0,14,15
 -374.895940844 -64.7355169202 -374.895940844 -64.7355169202 -367.587215321 -57.4947115851 c 128,-1,16
 -360.278489799 -50.25390625 -360.278489799 -50.25390625 -350 -50.25390625 c 1,17,-1
 -350 -50 l 1,0,-1
EndSplineSet
EndChar

StartChar: n
Encoding: 110 110 21
Width: 500
VWidth: 1000
Flags: W
LayerCount: 2
Fore
SplineSet
50 0 m 128,-1,1
 40 0 40 0 32.5 7.5 c 128,-1,2
 25 15 25 15 25 25 c 2,3,-1
 25 325 l 2,4,5
 25 377 25 377 61.5 413.5 c 128,-1,6
 98 450 98 450 150 450 c 2,7,-1
 450 450 l 2,8,9
 460 450 460 450 467.5 442.5 c 128,-1,10
 475 435 475 435 475 425 c 128,-1,11
 475 415 475 415 467.5 407.5 c 128,-1,12
 460 400 460 400 450 400 c 2,13,-1
 150 400 l 2,14,15
 119 400 119 400 97 378 c 128,-1,16
 75 356 75 356 75 325 c 2,17,-1
 75 25 l 2,18,19
 75 15 75 15 67.5 7.5 c 128,-1,0
 60 0 60 0 50 0 c 128,-1,1
50 450 m 0,20,21
 46.708238605 450 46.708238605 450 43.5302734375 449.1484375 c 0,22,23
 37.0594857498 447.4149545 37.0594857498 447.4149545 32.322265625 442.677734375 c 0,24,25
 24.99609375 435.3515625 24.99609375 435.3515625 24.99609375 425.00390625 c 128,-1,26
 24.99609375 414.6484375 24.99609375 414.6484375 32.322265625 407.322265625 c 1,27,-1
 32.322265625 407.322265625 432.322265625 7.322265625 432.322265625 7.322265625 c 2,28,29
 439.6484375 -0.00390625 439.6484375 -0.00390625 449.99609375 -0.00390625 c 128,-1,30
 460.3515625 -0.00390625 460.3515625 -0.00390625 467.677734375 7.322265625 c 128,-1,31
 475.00390625 14.6484375 475.00390625 14.6484375 475.00390625 24.99609375 c 128,-1,32
 475.00390625 35.3515625 475.00390625 35.3515625 467.677734375 42.677734375 c 1,33,-1
 467.677734375 42.677734375 67.677734375 442.677734375 67.677734375 442.677734375 c 2,34,35
 60.35546875 450 60.35546875 450 50 450 c 1024,36,-1
EndSplineSet
Substitution2: "isol-1" uni006E.isol
Substitution2: "fina-1" uni006E.fina
Substitution2: "medi-1" uni006E.medi
Substitution2: "init-1" uni006E.init
EndChar

StartChar: z
Encoding: 122 122 22
Width: 500
VWidth: 1000
Flags: W
LayerCount: 2
Fore
SplineSet
50 450 m 128,-1,1
 60 450 60 450 67.5 442.5 c 128,-1,2
 75 435 75 435 75 425 c 2,3,-1
 75 125 l 2,4,5
 75 94 75 94 97 72 c 128,-1,6
 119 50 119 50 150 50 c 2,7,-1
 450 50 l 2,8,9
 460 50 460 50 467.5 42.5 c 128,-1,10
 475 35 475 35 475 25 c 128,-1,11
 475 15 475 15 467.5 7.5 c 128,-1,12
 460 0 460 0 450 0 c 2,13,-1
 150 0 l 2,14,15
 98 0 98 0 61.5 36.5 c 128,-1,16
 25 73 25 73 25 125 c 2,17,-1
 25 425 l 2,18,19
 25 435 25 435 32.5 442.5 c 128,-1,0
 40 450 40 450 50 450 c 128,-1,1
50 450 m 0,20,21
 46.708238605 450 46.708238605 450 43.5302734375 449.1484375 c 0,22,23
 37.0594857498 447.4149545 37.0594857498 447.4149545 32.322265625 442.677734375 c 0,24,25
 24.99609375 435.3515625 24.99609375 435.3515625 24.99609375 425.00390625 c 128,-1,26
 24.99609375 414.6484375 24.99609375 414.6484375 32.322265625 407.322265625 c 1,27,-1
 32.322265625 407.322265625 432.322265625 7.322265625 432.322265625 7.322265625 c 2,28,29
 439.6484375 -0.00390625 439.6484375 -0.00390625 449.99609375 -0.00390625 c 128,-1,30
 460.3515625 -0.00390625 460.3515625 -0.00390625 467.677734375 7.322265625 c 128,-1,31
 475.00390625 14.6484375 475.00390625 14.6484375 475.00390625 24.99609375 c 128,-1,32
 475.00390625 35.3515625 475.00390625 35.3515625 467.677734375 42.677734375 c 1,33,-1
 467.677734375 42.677734375 67.677734375 442.677734375 67.677734375 442.677734375 c 2,34,35
 60.35546875 450 60.35546875 450 50 450 c 1024,36,-1
EndSplineSet
Substitution2: "isol-1" uni007A.isol
Substitution2: "fina-1" uni007A.fina
Substitution2: "medi-1" uni007A.medi
Substitution2: "init-1" uni007A.init
EndChar

StartChar: m
Encoding: 109 109 23
Width: 500
VWidth: 1000
Flags: W
LayerCount: 2
Fore
SplineSet
50 0 m 128,-1,1
 40 0 40 0 32.5 7.5 c 128,-1,2
 25 15 25 15 25 25 c 2,3,-1
 25 325 l 2,4,5
 25 377 25 377 61.5 413.5 c 128,-1,6
 98 450 98 450 150 450 c 2,7,-1
 450 450 l 2,8,9
 460 450 460 450 467.5 442.5 c 128,-1,10
 475 435 475 435 475 425 c 128,-1,11
 475 415 475 415 467.5 407.5 c 128,-1,12
 460 400 460 400 450 400 c 2,13,-1
 150 400 l 2,14,15
 119 400 119 400 97 378 c 128,-1,16
 75 356 75 356 75 325 c 2,17,-1
 75 25 l 2,18,19
 75 15 75 15 67.5 7.5 c 128,-1,0
 60 0 60 0 50 0 c 128,-1,1
EndSplineSet
Substitution2: "isol-1" uni006D.isol
Substitution2: "fina-1" uni006D.fina
Substitution2: "medi-1" uni006D.medi
Substitution2: "init-1" uni006D.init
EndChar

StartChar: v
Encoding: 118 118 24
Width: 500
VWidth: 1000
Flags: W
LayerCount: 2
Fore
SplineSet
50 0 m 128,-1,1
 40 0 40 0 32.5 7.5 c 128,-1,2
 25 15 25 15 25 25 c 2,3,-1
 25 325 l 2,4,5
 25 377 25 377 61.5 413.5 c 128,-1,6
 98 450 98 450 150 450 c 2,7,-1
 350 450 l 2,8,9
 402 450 402 450 438.5 413.5 c 128,-1,10
 475 377 475 377 475 325 c 2,11,-1
 475 25 l 2,12,13
 475 15 475 15 467.5 7.5 c 128,-1,14
 460 0 460 0 450 0 c 128,-1,15
 440 0 440 0 432.5 7.5 c 128,-1,16
 425 15 425 15 425 25 c 2,17,-1
 425 325 l 2,18,19
 425 356 425 356 403 378 c 128,-1,20
 381 400 381 400 350 400 c 2,21,-1
 150 400 l 2,22,23
 119 400 119 400 97 378 c 128,-1,24
 75 356 75 356 75 325 c 2,25,-1
 75 25 l 2,26,27
 75 15 75 15 67.5 7.5 c 128,-1,0
 60 0 60 0 50 0 c 128,-1,1
50 450 m 0,28,29
 46.708238605 450 46.708238605 450 43.5302734375 449.1484375 c 0,30,31
 37.0594857498 447.4149545 37.0594857498 447.4149545 32.322265625 442.677734375 c 0,32,33
 24.99609375 435.3515625 24.99609375 435.3515625 24.99609375 425.00390625 c 128,-1,34
 24.99609375 414.6484375 24.99609375 414.6484375 32.322265625 407.322265625 c 1,35,-1
 32.322265625 407.322265625 432.322265625 7.322265625 432.322265625 7.322265625 c 2,36,37
 439.6484375 -0.00390625 439.6484375 -0.00390625 449.99609375 -0.00390625 c 128,-1,38
 460.3515625 -0.00390625 460.3515625 -0.00390625 467.677734375 7.322265625 c 128,-1,39
 475.00390625 14.6484375 475.00390625 14.6484375 475.00390625 24.99609375 c 128,-1,40
 475.00390625 35.3515625 475.00390625 35.3515625 467.677734375 42.677734375 c 1,41,-1
 467.677734375 42.677734375 67.677734375 442.677734375 67.677734375 442.677734375 c 2,42,43
 60.35546875 450 60.35546875 450 50 450 c 1024,44,-1
EndSplineSet
Substitution2: "isol-1" uni0076.isol
Substitution2: "fina-1" uni0076.fina
Substitution2: "medi-1" uni0076.medi
Substitution2: "init-1" uni0076.init
EndChar

StartChar: b
Encoding: 98 98 25
Width: 500
VWidth: 1000
Flags: W
LayerCount: 2
Fore
SplineSet
150 450 m 2,0,-1
 450 450 l 2,1,2
 460 450 460 450 467.5 442.5 c 128,-1,3
 475 435 475 435 475 425 c 128,-1,4
 475 415 475 415 467.5 407.5 c 128,-1,5
 460 400 460 400 450 400 c 2,6,-1
 150 400 l 2,7,8
 119 400 119 400 97 378 c 128,-1,9
 75 356 75 356 75 325 c 2,10,-1
 75 125 l 2,11,12
 75 94 75 94 97 72 c 128,-1,13
 119 50 119 50 150 50 c 2,14,-1
 450 50 l 2,15,16
 460 50 460 50 467.5 42.5 c 128,-1,17
 475 35 475 35 475 25 c 128,-1,18
 475 15 475 15 467.5 7.5 c 128,-1,19
 460 0 460 0 450 0 c 2,20,-1
 150 0 l 2,21,22
 98 0 98 0 61.5 36.5 c 128,-1,23
 25 73 25 73 25 125 c 2,24,-1
 25 325 l 2,25,26
 25 377 25 377 61.5 413.5 c 128,-1,27
 98 450 98 450 150 450 c 2,0,-1
50 450 m 0,28,29
 46.708238605 450 46.708238605 450 43.5302734375 449.1484375 c 0,30,31
 37.0594857498 447.4149545 37.0594857498 447.4149545 32.322265625 442.677734375 c 0,32,33
 24.99609375 435.3515625 24.99609375 435.3515625 24.99609375 425.00390625 c 128,-1,34
 24.99609375 414.6484375 24.99609375 414.6484375 32.322265625 407.322265625 c 1,35,-1
 32.322265625 407.322265625 432.322265625 7.322265625 432.322265625 7.322265625 c 2,36,37
 439.6484375 -0.00390625 439.6484375 -0.00390625 449.99609375 -0.00390625 c 128,-1,38
 460.3515625 -0.00390625 460.3515625 -0.00390625 467.677734375 7.322265625 c 128,-1,39
 475.00390625 14.6484375 475.00390625 14.6484375 475.00390625 24.99609375 c 128,-1,40
 475.00390625 35.3515625 475.00390625 35.3515625 467.677734375 42.677734375 c 1,41,-1
 467.677734375 42.677734375 67.677734375 442.677734375 67.677734375 442.677734375 c 2,42,43
 60.35546875 450 60.35546875 450 50 450 c 1024,44,-1
EndSplineSet
Substitution2: "isol-1" uni0062.isol
Substitution2: "fina-1" uni0062.fina
Substitution2: "medi-1" uni0062.medi
Substitution2: "init-1" uni0062.init
EndChar

StartChar: t
Encoding: 116 116 26
Width: 500
VWidth: 1000
Flags: W
LayerCount: 2
Fore
SplineSet
50 450 m 128,-1,1
 60 450 60 450 67.5 442.5 c 128,-1,2
 75 435 75 435 75 425 c 2,3,-1
 75 125 l 2,4,5
 75 94 75 94 97 72 c 128,-1,6
 119 50 119 50 150 50 c 2,7,-1
 350 50 l 2,8,9
 381 50 381 50 403 72 c 128,-1,10
 425 94 425 94 425 125 c 2,11,-1
 425 425 l 2,12,13
 425 435 425 435 432.5 442.5 c 128,-1,14
 440 450 440 450 450 450 c 128,-1,15
 460 450 460 450 467.5 442.5 c 128,-1,16
 475 435 475 435 475 425 c 2,17,-1
 475 125 l 2,18,19
 475 73 475 73 438.5 36.5 c 128,-1,20
 402 0 402 0 350 0 c 2,21,-1
 150 0 l 2,22,23
 98 0 98 0 61.5 36.5 c 128,-1,24
 25 73 25 73 25 125 c 2,25,-1
 25 425 l 2,26,27
 25 435 25 435 32.5 442.5 c 128,-1,0
 40 450 40 450 50 450 c 128,-1,1
EndSplineSet
Substitution2: "isol-1" uni0074.isol
Substitution2: "fina-1" uni0074.fina
Substitution2: "medi-1" uni0074.medi
Substitution2: "init-1" uni0074.init
EndChar

StartChar: grave
Encoding: 96 96 27
Width: 500
VWidth: 1000
Flags: W
LayerCount: 2
Fore
SplineSet
250 550 m 1,0,-1
 350 550 l 2,1,2
 402 550 402 550 438.5 513.5 c 128,-1,3
 475 477 475 477 475 425 c 0,4,5
 475 415 475 415 467.5 407.5 c 128,-1,6
 460 400 460 400 450 400 c 128,-1,7
 440 400 440 400 432.5 407.5 c 128,-1,8
 425 415 425 415 425 425 c 0,9,10
 425 456 425 456 403 478 c 128,-1,11
 381 500 381 500 350 500 c 2,12,-1
 250 500 l 1,13,-1
 250 500.25 l 1,14,15
 239.720645017 500.25 239.720645017 500.25 232.411618608 507.492092487 c 128,-1,16
 225.102592198 514.734184973 225.102592198 514.734184973 225 525 c 0,17,18
 225.102592198 535.265815027 225.102592198 535.265815027 232.411618608 542.507907513 c 128,-1,19
 239.720645017 549.75 239.720645017 549.75 250 549.75 c 1,20,-1
 250 550 l 1,0,-1
EndSplineSet
EndChar

StartChar: H
Encoding: 72 72 28
Width: 500
VWidth: 1000
Flags: W
LayerCount: 2
Fore
SplineSet
450 0 m 128,-1,1
 440 0 440 0 432.5 7.5 c 128,-1,2
 425 15 425 15 425 25 c 2,3,-1
 425 325 l 2,4,5
 425 356 425 356 403 378 c 128,-1,6
 381 400 381 400 350 400 c 2,7,-1
 50 400 l 2,8,9
 40 400 40 400 32.5 407.5 c 128,-1,10
 25 415 25 415 25 425 c 128,-1,11
 25 435 25 435 32.5 442.5 c 128,-1,12
 40 450 40 450 50 450 c 2,13,-1
 350 450 l 2,14,15
 402 450 402 450 438.5 413.5 c 128,-1,16
 475 377 475 377 475 325 c 2,17,-1
 475 25 l 2,18,19
 475 15 475 15 467.5 7.5 c 128,-1,0
 460 0 460 0 450 0 c 128,-1,1
EndSplineSet
Substitution2: "isol-1" uni0048.isol
Substitution2: "fina-1" uni0048.fina
Substitution2: "medi-1" uni0048.medi
Substitution2: "init-1" uni0048.init
EndChar

StartChar: braceleft
Encoding: 123 123 29
Width: 500
VWidth: 1000
Flags: W
LayerCount: 2
Fore
SplineSet
350 500 m 0,0,1
 360 500 360 500 367.5 492.5 c 128,-1,2
 375 485 375 485 375 475 c 128,-1,3
 375 465 375 465 367.5 457.5 c 128,-1,4
 360 450 360 450 350 450 c 0,5,6
 319 450 319 450 297 428 c 128,-1,7
 275 406 275 406 275 375 c 2,8,-1
 275 325 l 0,9,10
 274.904481488 262.493581051 274.904481488 262.493581051 224.83984375 225.0703125 c 1,11,12
 274.974628504 187.594464557 274.974628504 187.594464557 275 125 c 2,13,-1
 275 75 l 2,14,15
 275 44 275 44 297 22 c 128,-1,16
 319 0 319 0 350 0 c 0,17,18
 360 0 360 0 367.5 -7.5 c 128,-1,19
 375 -15 375 -15 375 -25 c 128,-1,20
 375 -35 375 -35 367.5 -42.5 c 128,-1,21
 360 -50 360 -50 350 -50 c 0,22,23
 298 -50 298 -50 261.5 -13.5 c 128,-1,24
 225 23 225 23 225 75 c 2,25,-1
 225 125 l 2,26,27
 225 156 225 156 203 178 c 128,-1,28
 181 200 181 200 150 200 c 0,29,30
 145.47552171 200.080614313 145.47552171 200.080614313 141.26953125 201.740234375 c 2,31,-1
 140.0390625 202.169921875 l 0,32,33
 136.109488646 203.914447772 136.109488646 203.914447772 132.990234375 206.869140625 c 0,34,35
 132.411511531 207.411511531 132.411511531 207.411511531 131.869140625 207.990234375 c 0,36,37
 128.914447772 211.109488646 128.914447772 211.109488646 127.169921875 215.0390625 c 2,38,-1
 127.169921875 215.0390625 l 0,39,-1
 126.740234375 216.26953125 l 1,40,41
 125.080614313 220.47552171 125.080614313 220.47552171 125 225 c 128,-1,42
 125.080614313 229.52447829 125.080614313 229.52447829 126.740234375 233.73046875 c 2,43,-1
 127.169921875 234.9609375 l 0,44,45
 128.914447772 238.890511354 128.914447772 238.890511354 131.869140625 242.009765625 c 0,46,47
 132.411511531 242.588488469 132.411511531 242.588488469 132.990234375 243.130859375 c 0,48,49
 136.109488646 246.085552228 136.109488646 246.085552228 140.0390625 247.830078125 c 2,50,-1
 140.0390625 247.830078125 l 0,51,-1
 141.26953125 248.259765625 l 1,52,53
 145.47552171 249.919385687 145.47552171 249.919385687 150 250 c 0,54,55
 181 250 181 250 203 272 c 128,-1,56
 225 294 225 294 225 325 c 2,57,-1
 225 375 l 2,58,59
 225 427 225 427 261.5 463.5 c 128,-1,60
 298 500 298 500 350 500 c 0,0,1
EndSplineSet
EndChar

StartChar: o
Encoding: 111 111 30
Width: 0
VWidth: 1000
GlyphClass: 4
Flags: W
LayerCount: 2
Fore
SplineSet
-249.42578125 -0.005859375 m 0,0,1
 -239.267423581 -0.2390476908 -239.267423581 -0.2390476908 -232.13371179 -7.52462031115 c 128,-1,2
 -225 -14.8101929315 -225 -14.8101929315 -225 -25 c 128,-1,3
 -225 -35 -225 -35 -232.5 -42.5 c 128,-1,4
 -240 -50 -240 -50 -250 -50 c 128,-1,5
 -260 -50 -260 -50 -267.5 -42.5 c 128,-1,6
 -275 -35 -275 -35 -275 -25 c 0,7,8
 -275 -15.625758231 -275 -15.625758231 -268.848558977 -8.59685032057 c 128,-1,9
 -262.697117955 -1.56794241018 -262.697117955 -1.56794241018 -253.55859375 -0.25390625 c 0,10,11
 -251.781823447 0.0009765625 -251.781823447 0.0009765625 -250.009765625 0.0009765625 c 0,12,13
 -249.717285156 0.00146484375 -249.717285156 0.00146484375 -249.42578125 -0.005859375 c 0,0,1
-350 -50 m 1,14,-1
 -150 -50 l 1,15,-1
 -150 -50.25390625 l 1,16,17
 -139.721510201 -50.25390625 -139.721510201 -50.25390625 -132.412784679 -57.4947115851 c 128,-1,18
 -125.104059156 -64.7355169202 -125.104059156 -64.7355169202 -125 -75 c 0,19,20
 -125.104059156 -85.2644830798 -125.104059156 -85.2644830798 -132.412784679 -92.5052884149 c 128,-1,21
 -139.721510201 -99.74609375 -139.721510201 -99.74609375 -150 -99.74609375 c 1,22,-1
 -150 -100 l 1,23,-1
 -350 -100 l 1,24,-1
 -350 -99.74609375 l 1,25,26
 -360.278489799 -99.74609375 -360.278489799 -99.74609375 -367.587215321 -92.5052884149 c 128,-1,27
 -374.895940844 -85.2644830798 -374.895940844 -85.2644830798 -375 -75 c 0,28,29
 -374.895940844 -64.7355169202 -374.895940844 -64.7355169202 -367.587215321 -57.4947115851 c 128,-1,30
 -360.278489799 -50.25390625 -360.278489799 -50.25390625 -350 -50.25390625 c 1,31,-1
 -350 -50 l 1,14,-1
EndSplineSet
EndChar

StartChar: bar
Encoding: 124 124 31
Width: 500
VWidth: 1000
Flags: W
LayerCount: 2
Fore
SplineSet
250 550 m 128,-1,1
 260 550 260 550 267.5 542.5 c 128,-1,2
 275 535 275 535 275 525 c 2,3,-1
 275 -75 l 2,4,5
 275 -85 275 -85 267.5 -92.5 c 128,-1,6
 260 -100 260 -100 250 -100 c 128,-1,7
 240 -100 240 -100 232.5 -92.5 c 128,-1,8
 225 -85 225 -85 225 -75 c 2,9,-1
 225 525 l 2,10,11
 225 535 225 535 232.5 542.5 c 128,-1,0
 240 550 240 550 250 550 c 128,-1,1
EndSplineSet
EndChar

StartChar: I
Encoding: 73 73 32
Width: 0
VWidth: 1000
GlyphClass: 4
Flags: W
LayerCount: 2
Fore
SplineSet
-350 550 m 1,0,-1
 -150 550 l 1,1,-1
 -150 549.75 l 1,2,3
 -139.720645017 549.75 -139.720645017 549.75 -132.411618608 542.507907513 c 128,-1,4
 -125.102592198 535.265815027 -125.102592198 535.265815027 -125 525 c 0,5,6
 -125.102592198 514.734184973 -125.102592198 514.734184973 -132.411618608 507.492092487 c 128,-1,7
 -139.720645017 500.25 -139.720645017 500.25 -150 500.25 c 1,8,-1
 -150 500 l 1,9,-1
 -350 500 l 1,10,-1
 -350 500.25 l 1,11,12
 -360.279354983 500.25 -360.279354983 500.25 -367.588381392 507.492092487 c 128,-1,13
 -374.897407802 514.734184973 -374.897407802 514.734184973 -375 525 c 0,14,15
 -374.897407802 535.265815027 -374.897407802 535.265815027 -367.588381392 542.507907513 c 128,-1,16
 -360.279354983 549.75 -360.279354983 549.75 -350 549.75 c 1,17,-1
 -350 550 l 1,0,-1
EndSplineSet
EndChar

StartChar: a
Encoding: 97 97 33
Width: 0
VWidth: 1000
GlyphClass: 4
Flags: W
LayerCount: 2
Fore
SplineSet
-350 550 m 1,0,-1
 -150 550 l 1,1,-1
 -150 549.75 l 1,2,3
 -139.720645017 549.75 -139.720645017 549.75 -132.411618608 542.507907513 c 128,-1,4
 -125.102592198 535.265815027 -125.102592198 535.265815027 -125 525 c 0,5,6
 -125.102592198 514.734184973 -125.102592198 514.734184973 -132.411618608 507.492092487 c 128,-1,7
 -139.720645017 500.25 -139.720645017 500.25 -150 500.25 c 1,8,-1
 -150 500 l 1,9,-1
 -249.591796875 500 l 1,10,11
 -239.378393007 499.832867575 -239.378393007 499.832867575 -232.189196503 492.534346187 c 128,-1,12
 -225 485.235824799 -225 485.235824799 -225 475 c 0,13,14
 -225 465 -225 465 -232.5 457.5 c 128,-1,15
 -240 450 -240 450 -250 450 c 128,-1,16
 -260 450 -260 450 -267.5 457.5 c 128,-1,17
 -275 465 -275 465 -275 475 c 1,18,-1
 -274.974609375 475.005859375 l 1,19,20
 -274.974609375 484.382058352 -274.974609375 484.382058352 -268.835075306 491.408843292 c 128,-1,21
 -262.695541237 498.435628232 -262.695541237 498.435628232 -253.560546875 499.75 c 0,22,23
 -252.229734788 499.940749732 -252.229734788 499.940749732 -250.89453125 499.98828125 c 0,24,25
 -250.499565972 500.000976562 -250.499565972 500.000976562 -250.08984375 500.000976562 c 0,26,27
 -249.955078125 500.001464844 -249.955078125 500.001464844 -249.8203125 500 c 1,28,-1
 -350 500 l 1,29,-1
 -350 500.25 l 1,30,31
 -360.279354983 500.25 -360.279354983 500.25 -367.588381392 507.492092487 c 128,-1,32
 -374.897407802 514.734184973 -374.897407802 514.734184973 -375 525 c 0,33,34
 -374.897407802 535.265815027 -374.897407802 535.265815027 -367.588381392 542.507907513 c 128,-1,35
 -360.279354983 549.75 -360.279354983 549.75 -350 549.75 c 1,36,-1
 -350 550 l 1,0,-1
EndSplineSet
EndChar

StartChar: u
Encoding: 117 117 34
Width: 0
VWidth: 1000
GlyphClass: 4
Flags: W
LayerCount: 2
Fore
SplineSet
-250.544921875 -0.005859375 m 0,0,-1
 -250 0 l 0,1,2
 -240 0 -240 0 -232.5 -7.5 c 128,-1,3
 -225 -15 -225 -15 -225 -25 c 128,-1,4
 -225 -35 -225 -35 -232.5 -42.5 c 128,-1,5
 -240 -50 -240 -50 -250 -50 c 128,-1,6
 -260 -50 -260 -50 -267.5 -42.5 c 128,-1,7
 -275 -35 -275 -35 -275 -25 c 128,-1,8
 -275 -15.1656491102 -275 -15.1656491102 -268.296024405 -7.98263581147 c 128,-1,9
 -261.592048809 -0.799622512747 -261.592048809 -0.799622512747 -251.869140625 -0.0703125 c 0,10,11
 -251.200190918 -0.0201043541854 -251.200190918 -0.0201043541854 -250.544921875 -0.005859375 c 0,0,-1
EndSplineSet
EndChar

StartChar: underscore
Encoding: 95 95 35
Width: 500
VWidth: 1000
Flags: W
LayerCount: 2
Fore
SplineSet
50 50 m 2,0,-1
 450 50 l 2,1,2
 460 50 460 50 467.5 42.5 c 128,-1,3
 475 35 475 35 475 25 c 128,-1,4
 475 15 475 15 467.5 7.5 c 128,-1,5
 460 0 460 0 450 0 c 2,6,-1
 50 0 l 2,7,8
 40 0 40 0 32.5 7.5 c 128,-1,9
 25 15 25 15 25 25 c 128,-1,10
 25 35 25 35 32.5 42.5 c 128,-1,11
 40 50 40 50 50 50 c 2,0,-1
EndSplineSet
EndChar

StartChar: K
Encoding: 75 75 36
Width: 500
VWidth: 1000
Flags: W
LayerCount: 2
Fore
SplineSet
450 450 m 128,-1,1
 460 450 460 450 467.5 442.5 c 128,-1,2
 475 435 475 435 475 425 c 2,3,-1
 475 125 l 2,4,5
 475 73 475 73 438.5 36.5 c 128,-1,6
 402 0 402 0 350 0 c 2,7,-1
 50 0 l 2,8,9
 40 0 40 0 32.5 7.5 c 128,-1,10
 25 15 25 15 25 25 c 128,-1,11
 25 35 25 35 32.5 42.5 c 128,-1,12
 40 50 40 50 50 50 c 2,13,-1
 350 50 l 2,14,15
 381 50 381 50 403 72 c 128,-1,16
 425 94 425 94 425 125 c 2,17,-1
 425 425 l 2,18,19
 425 435 425 435 432.5 442.5 c 128,-1,0
 440 450 440 450 450 450 c 128,-1,1
EndSplineSet
Substitution2: "isol-1" uni004B.isol
Substitution2: "fina-1" uni004B.fina
Substitution2: "medi-1" uni004B.medi
Substitution2: "init-1" uni004B.init
EndChar

StartChar: x
Encoding: 120 120 37
Width: 500
VWidth: 1000
Flags: W
LayerCount: 2
Fore
SplineSet
450 0 m 128,-1,1
 440 0 440 0 432.5 7.5 c 128,-1,2
 425 15 425 15 425 25 c 2,3,-1
 425 325 l 2,4,5
 425 356 425 356 403 378 c 128,-1,6
 381 400 381 400 350 400 c 2,7,-1
 50 400 l 2,8,9
 40 400 40 400 32.5 407.5 c 128,-1,10
 25 415 25 415 25 425 c 128,-1,11
 25 435 25 435 32.5 442.5 c 128,-1,12
 40 450 40 450 50 450 c 2,13,-1
 350 450 l 2,14,15
 402 450 402 450 438.5 413.5 c 128,-1,16
 475 377 475 377 475 325 c 2,17,-1
 475 25 l 2,18,19
 475 15 475 15 467.5 7.5 c 128,-1,0
 460 0 460 0 450 0 c 128,-1,1
50 450 m 0,20,21
 46.708238605 450 46.708238605 450 43.5302734375 449.1484375 c 0,22,23
 37.0594857498 447.4149545 37.0594857498 447.4149545 32.322265625 442.677734375 c 0,24,25
 24.99609375 435.3515625 24.99609375 435.3515625 24.99609375 425.00390625 c 128,-1,26
 24.99609375 414.6484375 24.99609375 414.6484375 32.322265625 407.322265625 c 1,27,-1
 32.322265625 407.322265625 432.322265625 7.322265625 432.322265625 7.322265625 c 2,28,29
 439.6484375 -0.00390625 439.6484375 -0.00390625 449.99609375 -0.00390625 c 128,-1,30
 460.3515625 -0.00390625 460.3515625 -0.00390625 467.677734375 7.322265625 c 128,-1,31
 475.00390625 14.6484375 475.00390625 14.6484375 475.00390625 24.99609375 c 128,-1,32
 475.00390625 35.3515625 475.00390625 35.3515625 467.677734375 42.677734375 c 1,33,-1
 467.677734375 42.677734375 67.677734375 442.677734375 67.677734375 442.677734375 c 2,34,35
 60.35546875 450 60.35546875 450 50 450 c 1024,36,-1
EndSplineSet
Substitution2: "isol-1" uni0078.isol
Substitution2: "fina-1" uni0078.fina
Substitution2: "medi-1" uni0078.medi
Substitution2: "init-1" uni0078.init
EndChar

StartChar: P
Encoding: 80 80 38
Width: 500
VWidth: 1000
Flags: W
LayerCount: 2
Fore
SplineSet
150 450 m 2,0,-1
 450 450 l 2,1,2
 460 450 460 450 467.5 442.5 c 128,-1,3
 475 435 475 435 475 425 c 128,-1,4
 475 415 475 415 467.5 407.5 c 128,-1,5
 460 400 460 400 450 400 c 2,6,-1
 150 400 l 2,7,8
 119 400 119 400 97 378 c 128,-1,9
 75 356 75 356 75 325 c 2,10,-1
 75 125 l 2,11,12
 75 94 75 94 97 72 c 128,-1,13
 119 50 119 50 150 50 c 2,14,-1
 450 50 l 2,15,16
 460 50 460 50 467.5 42.5 c 128,-1,17
 475 35 475 35 475 25 c 128,-1,18
 475 15 475 15 467.5 7.5 c 128,-1,19
 460 0 460 0 450 0 c 2,20,-1
 150 0 l 2,21,22
 98 0 98 0 61.5 36.5 c 128,-1,23
 25 73 25 73 25 125 c 2,24,-1
 25 325 l 2,25,26
 25 377 25 377 61.5 413.5 c 128,-1,27
 98 450 98 450 150 450 c 2,0,-1
EndSplineSet
Substitution2: "isol-1" uni0050.isol
Substitution2: "fina-1" uni0050.fina
Substitution2: "medi-1" uni0050.medi
Substitution2: "init-1" uni0050.init
EndChar

StartChar: D
Encoding: 68 68 39
Width: 500
VWidth: 1000
Flags: W
LayerCount: 2
Fore
SplineSet
50 450 m 128,-1,1
 60 450 60 450 67.5 442.5 c 128,-1,2
 75 435 75 435 75 425 c 2,3,-1
 75 125 l 2,4,5
 75 94 75 94 97 72 c 128,-1,6
 119 50 119 50 150 50 c 2,7,-1
 350 50 l 2,8,9
 381 50 381 50 403 72 c 128,-1,10
 425 94 425 94 425 125 c 2,11,-1
 425 425 l 2,12,13
 425 435 425 435 432.5 442.5 c 128,-1,14
 440 450 440 450 450 450 c 128,-1,15
 460 450 460 450 467.5 442.5 c 128,-1,16
 475 435 475 435 475 425 c 2,17,-1
 475 125 l 2,18,19
 475 73 475 73 438.5 36.5 c 128,-1,20
 402 0 402 0 350 0 c 2,21,-1
 150 0 l 2,22,23
 98 0 98 0 61.5 36.5 c 128,-1,24
 25 73 25 73 25 125 c 2,25,-1
 25 425 l 2,26,27
 25 435 25 435 32.5 442.5 c 128,-1,0
 40 450 40 450 50 450 c 128,-1,1
50 450 m 0,28,29
 46.708238605 450 46.708238605 450 43.5302734375 449.1484375 c 0,30,31
 37.0594857498 447.4149545 37.0594857498 447.4149545 32.322265625 442.677734375 c 0,32,33
 24.99609375 435.3515625 24.99609375 435.3515625 24.99609375 425.00390625 c 128,-1,34
 24.99609375 414.6484375 24.99609375 414.6484375 32.322265625 407.322265625 c 1,35,-1
 32.322265625 407.322265625 432.322265625 7.322265625 432.322265625 7.322265625 c 2,36,37
 439.6484375 -0.00390625 439.6484375 -0.00390625 449.99609375 -0.00390625 c 128,-1,38
 460.3515625 -0.00390625 460.3515625 -0.00390625 467.677734375 7.322265625 c 128,-1,39
 475.00390625 14.6484375 475.00390625 14.6484375 475.00390625 24.99609375 c 128,-1,40
 475.00390625 35.3515625 475.00390625 35.3515625 467.677734375 42.677734375 c 1,41,-1
 467.677734375 42.677734375 67.677734375 442.677734375 67.677734375 442.677734375 c 2,42,43
 60.35546875 450 60.35546875 450 50 450 c 1024,44,-1
EndSplineSet
Substitution2: "isol-1" uni0044.isol
Substitution2: "fina-1" uni0044.fina
Substitution2: "medi-1" uni0044.medi
Substitution2: "init-1" uni0044.init
EndChar

StartChar: E
Encoding: 69 69 40
Width: 0
VWidth: 1000
GlyphClass: 4
Flags: W
LayerCount: 2
Fore
SplineSet
-250.544921875 499.994140625 m 0,0,-1
 -250 500 l 0,1,2
 -240 500 -240 500 -232.5 492.5 c 128,-1,3
 -225 485 -225 485 -225 475 c 128,-1,4
 -225 465 -225 465 -232.5 457.5 c 128,-1,5
 -240 450 -240 450 -250 450 c 128,-1,6
 -260 450 -260 450 -267.5 457.5 c 128,-1,7
 -275 465 -275 465 -275 475 c 128,-1,8
 -275 484.83435089 -275 484.83435089 -268.296024405 492.017364189 c 128,-1,9
 -261.592048809 499.200377487 -261.592048809 499.200377487 -251.869140625 499.9296875 c 0,10,11
 -251.200190918 499.979895646 -251.200190918 499.979895646 -250.544921875 499.994140625 c 0,0,-1
EndSplineSet
EndChar

StartChar: Q
Encoding: 81 81 41
Width: 500
VWidth: 1000
Flags: W
LayerCount: 2
Fore
SplineSet
350 450 m 2,0,1
 402 450 402 450 438.5 413.5 c 128,-1,2
 475 377 475 377 475 325 c 2,3,-1
 475 125 l 2,4,5
 475 73 475 73 438.5 36.5 c 128,-1,6
 402 0 402 0 350 0 c 2,7,-1
 50 0 l 2,8,9
 40 0 40 0 32.5 7.5 c 128,-1,10
 25 15 25 15 25 25 c 128,-1,11
 25 35 25 35 32.5 42.5 c 128,-1,12
 40 50 40 50 50 50 c 2,13,-1
 350 50 l 2,14,15
 381 50 381 50 403 72 c 128,-1,16
 425 94 425 94 425 125 c 2,17,-1
 425 325 l 2,18,19
 425 356 425 356 403 378 c 128,-1,20
 381 400 381 400 350 400 c 2,21,-1
 50 400 l 2,22,23
 40 400 40 400 32.5 407.5 c 128,-1,24
 25 415 25 415 25 425 c 128,-1,25
 25 435 25 435 32.5 442.5 c 128,-1,26
 40 450 40 450 50 450 c 2,27,-1
 350 450 l 2,0,1
EndSplineSet
Substitution2: "isol-1" uni0051.isol
Substitution2: "fina-1" uni0051.fina
Substitution2: "medi-1" uni0051.medi
Substitution2: "init-1" uni0051.init
EndChar

StartChar: y
Encoding: 121 121 42
Width: 500
VWidth: 1000
Flags: W
LayerCount: 2
Fore
SplineSet
350 450 m 2,0,1
 402 450 402 450 438.5 413.5 c 128,-1,2
 475 377 475 377 475 325 c 2,3,-1
 475 125 l 2,4,5
 475 73 475 73 438.5 36.5 c 128,-1,6
 402 0 402 0 350 0 c 2,7,-1
 50 0 l 2,8,9
 40 0 40 0 32.5 7.5 c 128,-1,10
 25 15 25 15 25 25 c 128,-1,11
 25 35 25 35 32.5 42.5 c 128,-1,12
 40 50 40 50 50 50 c 2,13,-1
 350 50 l 2,14,15
 381 50 381 50 403 72 c 128,-1,16
 425 94 425 94 425 125 c 2,17,-1
 425 325 l 2,18,19
 425 356 425 356 403 378 c 128,-1,20
 381 400 381 400 350 400 c 2,21,-1
 50 400 l 2,22,23
 40 400 40 400 32.5 407.5 c 128,-1,24
 25 415 25 415 25 425 c 128,-1,25
 25 435 25 435 32.5 442.5 c 128,-1,26
 40 450 40 450 50 450 c 2,27,-1
 350 450 l 2,0,1
50 450 m 0,28,29
 46.708238605 450 46.708238605 450 43.5302734375 449.1484375 c 0,30,31
 37.0594857498 447.4149545 37.0594857498 447.4149545 32.322265625 442.677734375 c 0,32,33
 24.99609375 435.3515625 24.99609375 435.3515625 24.99609375 425.00390625 c 128,-1,34
 24.99609375 414.6484375 24.99609375 414.6484375 32.322265625 407.322265625 c 1,35,-1
 32.322265625 407.322265625 432.322265625 7.322265625 432.322265625 7.322265625 c 2,36,37
 439.6484375 -0.00390625 439.6484375 -0.00390625 449.99609375 -0.00390625 c 128,-1,38
 460.3515625 -0.00390625 460.3515625 -0.00390625 467.677734375 7.322265625 c 128,-1,39
 475.00390625 14.6484375 475.00390625 14.6484375 475.00390625 24.99609375 c 128,-1,40
 475.00390625 35.3515625 475.00390625 35.3515625 467.677734375 42.677734375 c 1,41,-1
 467.677734375 42.677734375 67.677734375 442.677734375 67.677734375 442.677734375 c 2,42,43
 60.35546875 450 60.35546875 450 50 450 c 1024,44,-1
250 350 m 128,-1,46
 302 350 302 350 338.5 313.5 c 128,-1,47
 375 277 375 277 375 225 c 128,-1,48
 375 173 375 173 338.5 136.5 c 128,-1,49
 302 100 302 100 250 100 c 128,-1,50
 198 100 198 100 161.5 136.5 c 128,-1,51
 125 173 125 173 125 225 c 128,-1,52
 125 277 125 277 161.5 313.5 c 128,-1,45
 198 350 198 350 250 350 c 128,-1,46
250 300 m 128,-1,54
 219 300 219 300 197 278 c 128,-1,55
 175 256 175 256 175 225 c 128,-1,56
 175 194 175 194 197 172 c 128,-1,57
 219 150 219 150 250 150 c 128,-1,58
 281 150 281 150 303 172 c 128,-1,59
 325 194 325 194 325 225 c 128,-1,60
 325 256 325 256 303 278 c 128,-1,53
 281 300 281 300 250 300 c 128,-1,54
EndSplineSet
Substitution2: "isol-1" uni0079.isol
Substitution2: "fina-1" uni0079.fina
Substitution2: "medi-1" uni0079.medi
Substitution2: "init-1" uni0079.init
EndChar

StartChar: L
Encoding: 76 76 43
Width: 500
VWidth: 1000
Flags: W
LayerCount: 2
Fore
SplineSet
150 450 m 2,0,-1
 350 450 l 2,1,2
 402 450 402 450 438.5 413.5 c 128,-1,3
 475 377 475 377 475 325 c 2,4,-1
 475 125 l 2,5,6
 475 73 475 73 438.5 36.5 c 128,-1,7
 402 0 402 0 350 0 c 2,8,-1
 150 0 l 2,9,10
 98 0 98 0 61.5 36.5 c 128,-1,11
 25 73 25 73 25 125 c 2,12,-1
 25 325 l 2,13,14
 25 377 25 377 61.5 413.5 c 128,-1,15
 98 450 98 450 150 450 c 2,0,-1
150 400 m 2,16,17
 119 400 119 400 97 378 c 128,-1,18
 75 356 75 356 75 325 c 2,19,-1
 75 125 l 2,20,21
 75 94 75 94 97 72 c 128,-1,22
 119 50 119 50 150 50 c 2,23,-1
 350 50 l 2,24,25
 381 50 381 50 403 72 c 128,-1,26
 425 94 425 94 425 125 c 2,27,-1
 425 325 l 2,28,29
 425 356 425 356 403 378 c 128,-1,30
 381 400 381 400 350 400 c 2,31,-1
 150 400 l 2,16,17
50 450 m 0,32,33
 46.708238605 450 46.708238605 450 43.5302734375 449.1484375 c 0,34,35
 37.0594857498 447.4149545 37.0594857498 447.4149545 32.322265625 442.677734375 c 0,36,37
 24.99609375 435.3515625 24.99609375 435.3515625 24.99609375 425.00390625 c 128,-1,38
 24.99609375 414.6484375 24.99609375 414.6484375 32.322265625 407.322265625 c 1,39,-1
 32.322265625 407.322265625 432.322265625 7.322265625 432.322265625 7.322265625 c 2,40,41
 439.6484375 -0.00390625 439.6484375 -0.00390625 449.99609375 -0.00390625 c 128,-1,42
 460.3515625 -0.00390625 460.3515625 -0.00390625 467.677734375 7.322265625 c 128,-1,43
 475.00390625 14.6484375 475.00390625 14.6484375 475.00390625 24.99609375 c 128,-1,44
 475.00390625 35.3515625 475.00390625 35.3515625 467.677734375 42.677734375 c 1,45,-1
 467.677734375 42.677734375 67.677734375 442.677734375 67.677734375 442.677734375 c 2,46,47
 60.35546875 450 60.35546875 450 50 450 c 1024,48,-1
EndSplineSet
Substitution2: "isol-1" uni004C.isol
Substitution2: "fina-1" uni004C.fina
Substitution2: "medi-1" uni004C.medi
Substitution2: "init-1" uni004C.init
EndChar

StartChar: J
Encoding: 74 74 44
Width: 500
VWidth: 1000
Flags: W
LayerCount: 2
Fore
SplineSet
50 450 m 128,-1,1
 60 450 60 450 67.5 442.5 c 128,-1,2
 75 435 75 435 75 425 c 2,3,-1
 75 125 l 2,4,5
 75 94 75 94 97 72 c 128,-1,6
 119 50 119 50 150 50 c 2,7,-1
 450 50 l 2,8,9
 460 50 460 50 467.5 42.5 c 128,-1,10
 475 35 475 35 475 25 c 128,-1,11
 475 15 475 15 467.5 7.5 c 128,-1,12
 460 0 460 0 450 0 c 2,13,-1
 150 0 l 2,14,15
 98 0 98 0 61.5 36.5 c 128,-1,16
 25 73 25 73 25 125 c 2,17,-1
 25 425 l 2,18,19
 25 435 25 435 32.5 442.5 c 128,-1,0
 40 450 40 450 50 450 c 128,-1,1
50 450 m 0,20,21
 46.708238605 450 46.708238605 450 43.5302734375 449.1484375 c 0,22,23
 37.0594857498 447.4149545 37.0594857498 447.4149545 32.322265625 442.677734375 c 0,24,25
 24.99609375 435.3515625 24.99609375 435.3515625 24.99609375 425.00390625 c 128,-1,26
 24.99609375 414.6484375 24.99609375 414.6484375 32.322265625 407.322265625 c 1,27,-1
 32.322265625 407.322265625 432.322265625 7.322265625 432.322265625 7.322265625 c 2,28,29
 439.6484375 -0.00390625 439.6484375 -0.00390625 449.99609375 -0.00390625 c 128,-1,30
 460.3515625 -0.00390625 460.3515625 -0.00390625 467.677734375 7.322265625 c 128,-1,31
 475.00390625 14.6484375 475.00390625 14.6484375 475.00390625 24.99609375 c 128,-1,32
 475.00390625 35.3515625 475.00390625 35.3515625 467.677734375 42.677734375 c 1,33,-1
 467.677734375 42.677734375 67.677734375 442.677734375 67.677734375 442.677734375 c 2,34,35
 60.35546875 450 60.35546875 450 50 450 c 1024,36,-1
250 350 m 128,-1,38
 302 350 302 350 338.5 313.5 c 128,-1,39
 375 277 375 277 375 225 c 128,-1,40
 375 173 375 173 338.5 136.5 c 128,-1,41
 302 100 302 100 250 100 c 128,-1,42
 198 100 198 100 161.5 136.5 c 128,-1,43
 125 173 125 173 125 225 c 128,-1,44
 125 277 125 277 161.5 313.5 c 128,-1,37
 198 350 198 350 250 350 c 128,-1,38
250 300 m 128,-1,46
 219 300 219 300 197 278 c 128,-1,47
 175 256 175 256 175 225 c 128,-1,48
 175 194 175 194 197 172 c 128,-1,49
 219 150 219 150 250 150 c 128,-1,50
 281 150 281 150 303 172 c 128,-1,51
 325 194 325 194 325 225 c 128,-1,52
 325 256 325 256 303 278 c 128,-1,45
 281 300 281 300 250 300 c 128,-1,46
EndSplineSet
Substitution2: "isol-1" uni004A.isol
Substitution2: "fina-1" uni004A.fina
Substitution2: "medi-1" uni004A.medi
Substitution2: "init-1" uni004A.init
EndChar

StartChar: asciicircum
Encoding: 94 94 45
Width: 500
VWidth: 1000
Flags: W
LayerCount: 2
Fore
SplineSet
50 450 m 2,0,-1
 450 450 l 2,1,2
 460 450 460 450 467.5 442.5 c 128,-1,3
 475 435 475 435 475 425 c 128,-1,4
 475 415 475 415 467.5 407.5 c 128,-1,5
 460 400 460 400 450 400 c 2,6,-1
 50 400 l 2,7,8
 40 400 40 400 32.5 407.5 c 128,-1,9
 25 415 25 415 25 425 c 128,-1,10
 25 435 25 435 32.5 442.5 c 128,-1,11
 40 450 40 450 50 450 c 2,0,-1
EndSplineSet
EndChar

StartChar: G
Encoding: 71 71 46
Width: 500
VWidth: 1000
Flags: W
LayerCount: 2
Fore
SplineSet
450 450 m 128,-1,1
 460 450 460 450 467.5 442.5 c 128,-1,2
 475 435 475 435 475 425 c 2,3,-1
 475 125 l 2,4,5
 475 73 475 73 438.5 36.5 c 128,-1,6
 402 0 402 0 350 0 c 2,7,-1
 50 0 l 2,8,9
 40 0 40 0 32.5 7.5 c 128,-1,10
 25 15 25 15 25 25 c 128,-1,11
 25 35 25 35 32.5 42.5 c 128,-1,12
 40 50 40 50 50 50 c 2,13,-1
 350 50 l 2,14,15
 381 50 381 50 403 72 c 128,-1,16
 425 94 425 94 425 125 c 2,17,-1
 425 425 l 2,18,19
 425 435 425 435 432.5 442.5 c 128,-1,0
 440 450 440 450 450 450 c 128,-1,1
50 450 m 0,20,21
 46.708238605 450 46.708238605 450 43.5302734375 449.1484375 c 0,22,23
 37.0594857498 447.4149545 37.0594857498 447.4149545 32.322265625 442.677734375 c 0,24,25
 24.99609375 435.3515625 24.99609375 435.3515625 24.99609375 425.00390625 c 128,-1,26
 24.99609375 414.6484375 24.99609375 414.6484375 32.322265625 407.322265625 c 1,27,-1
 32.322265625 407.322265625 432.322265625 7.322265625 432.322265625 7.322265625 c 2,28,29
 439.6484375 -0.00390625 439.6484375 -0.00390625 449.99609375 -0.00390625 c 128,-1,30
 460.3515625 -0.00390625 460.3515625 -0.00390625 467.677734375 7.322265625 c 128,-1,31
 475.00390625 14.6484375 475.00390625 14.6484375 475.00390625 24.99609375 c 128,-1,32
 475.00390625 35.3515625 475.00390625 35.3515625 467.677734375 42.677734375 c 1,33,-1
 467.677734375 42.677734375 67.677734375 442.677734375 67.677734375 442.677734375 c 2,34,35
 60.35546875 450 60.35546875 450 50 450 c 1024,36,-1
EndSplineSet
Substitution2: "isol-1" uni0047.isol
Substitution2: "fina-1" uni0047.fina
Substitution2: "medi-1" uni0047.medi
Substitution2: "init-1" uni0047.init
EndChar

StartChar: S
Encoding: 83 83 47
Width: 500
VWidth: 1000
Flags: W
LayerCount: 2
Fore
SplineSet
50 450 m 128,-1,1
 60 450 60 450 67.5 442.5 c 128,-1,2
 75 435 75 435 75 425 c 2,3,-1
 75 125 l 2,4,5
 75 94 75 94 97 72 c 128,-1,6
 119 50 119 50 150 50 c 2,7,-1
 450 50 l 2,8,9
 460 50 460 50 467.5 42.5 c 128,-1,10
 475 35 475 35 475 25 c 128,-1,11
 475 15 475 15 467.5 7.5 c 128,-1,12
 460 0 460 0 450 0 c 2,13,-1
 150 0 l 2,14,15
 98 0 98 0 61.5 36.5 c 128,-1,16
 25 73 25 73 25 125 c 2,17,-1
 25 425 l 2,18,19
 25 435 25 435 32.5 442.5 c 128,-1,0
 40 450 40 450 50 450 c 128,-1,1
EndSplineSet
Substitution2: "isol-1" uni0053.isol
Substitution2: "fina-1" uni0053.fina
Substitution2: "medi-1" uni0053.medi
Substitution2: "init-1" uni0053.init
EndChar

StartChar: R
Encoding: 82 82 48
Width: 500
VWidth: 1000
Flags: W
LayerCount: 2
Fore
SplineSet
150 450 m 2,0,-1
 350 450 l 2,1,2
 402 450 402 450 438.5 413.5 c 128,-1,3
 475 377 475 377 475 325 c 2,4,-1
 475 125 l 2,5,6
 475 73 475 73 438.5 36.5 c 128,-1,7
 402 0 402 0 350 0 c 2,8,-1
 150 0 l 2,9,10
 98 0 98 0 61.5 36.5 c 128,-1,11
 25 73 25 73 25 125 c 2,12,-1
 25 325 l 2,13,14
 25 377 25 377 61.5 413.5 c 128,-1,15
 98 450 98 450 150 450 c 2,0,-1
150 400 m 2,16,17
 119 400 119 400 97 378 c 128,-1,18
 75 356 75 356 75 325 c 2,19,-1
 75 125 l 2,20,21
 75 94 75 94 97 72 c 128,-1,22
 119 50 119 50 150 50 c 2,23,-1
 350 50 l 2,24,25
 381 50 381 50 403 72 c 128,-1,26
 425 94 425 94 425 125 c 2,27,-1
 425 325 l 2,28,29
 425 356 425 356 403 378 c 128,-1,30
 381 400 381 400 350 400 c 2,31,-1
 150 400 l 2,16,17
EndSplineSet
Substitution2: "isol-1" uni0052.isol
Substitution2: "fina-1" uni0052.fina
Substitution2: "medi-1" uni0052.medi
Substitution2: "init-1" uni0052.init
EndChar

StartChar: F
Encoding: 70 70 49
Width: 500
VWidth: 1000
Flags: W
LayerCount: 2
Fore
SplineSet
50 0 m 128,-1,1
 40 0 40 0 32.5 7.5 c 128,-1,2
 25 15 25 15 25 25 c 2,3,-1
 25 325 l 2,4,5
 25 377 25 377 61.5 413.5 c 128,-1,6
 98 450 98 450 150 450 c 2,7,-1
 350 450 l 2,8,9
 402 450 402 450 438.5 413.5 c 128,-1,10
 475 377 475 377 475 325 c 2,11,-1
 475 25 l 2,12,13
 475 15 475 15 467.5 7.5 c 128,-1,14
 460 0 460 0 450 0 c 128,-1,15
 440 0 440 0 432.5 7.5 c 128,-1,16
 425 15 425 15 425 25 c 2,17,-1
 425 325 l 2,18,19
 425 356 425 356 403 378 c 128,-1,20
 381 400 381 400 350 400 c 2,21,-1
 150 400 l 2,22,23
 119 400 119 400 97 378 c 128,-1,24
 75 356 75 356 75 325 c 2,25,-1
 75 25 l 2,26,27
 75 15 75 15 67.5 7.5 c 128,-1,0
 60 0 60 0 50 0 c 128,-1,1
EndSplineSet
Substitution2: "isol-1" uni0046.isol
Substitution2: "fina-1" uni0046.fina
Substitution2: "medi-1" uni0046.medi
Substitution2: "init-1" uni0046.init
EndChar

StartChar: bracketright
Encoding: 93 93 50
Width: 500
VWidth: 1000
Flags: W
LayerCount: 2
Fore
SplineSet
150 500 m 2,0,-1
 250 500 l 2,1,2
 302 500 302 500 338.5 463.5 c 128,-1,3
 375 427 375 427 375 375 c 2,4,-1
 375 75 l 2,5,6
 375 23 375 23 338.5 -13.5 c 128,-1,7
 302 -50 302 -50 250 -50 c 2,8,-1
 150 -50 l 2,9,10
 140 -50 140 -50 132.5 -42.5 c 128,-1,11
 125 -35 125 -35 125 -25 c 128,-1,12
 125 -15 125 -15 132.5 -7.5 c 128,-1,13
 140 0 140 0 150 0 c 2,14,-1
 250 0 l 2,15,16
 281 0 281 0 303 22 c 128,-1,17
 325 44 325 44 325 75 c 2,18,-1
 325 375 l 2,19,20
 325 406 325 406 303 428 c 128,-1,21
 281 450 281 450 250 450 c 2,22,-1
 150 450 l 2,23,24
 140 450 140 450 132.5 457.5 c 128,-1,25
 125 465 125 465 125 475 c 128,-1,26
 125 485 125 485 132.5 492.5 c 128,-1,27
 140 500 140 500 150 500 c 2,0,-1
EndSplineSet
EndChar

StartChar: B
Encoding: 66 66 51
Width: 500
VWidth: 1000
Flags: W
LayerCount: 2
Fore
SplineSet
150 450 m 2,0,-1
 450 450 l 2,1,2
 460 450 460 450 467.5 442.5 c 128,-1,3
 475 435 475 435 475 425 c 128,-1,4
 475 415 475 415 467.5 407.5 c 128,-1,5
 460 400 460 400 450 400 c 2,6,-1
 150 400 l 2,7,8
 119 400 119 400 97 378 c 128,-1,9
 75 356 75 356 75 325 c 2,10,-1
 75 125 l 2,11,12
 75 94 75 94 97 72 c 128,-1,13
 119 50 119 50 150 50 c 2,14,-1
 450 50 l 2,15,16
 460 50 460 50 467.5 42.5 c 128,-1,17
 475 35 475 35 475 25 c 128,-1,18
 475 15 475 15 467.5 7.5 c 128,-1,19
 460 0 460 0 450 0 c 2,20,-1
 150 0 l 2,21,22
 98 0 98 0 61.5 36.5 c 128,-1,23
 25 73 25 73 25 125 c 2,24,-1
 25 325 l 2,25,26
 25 377 25 377 61.5 413.5 c 128,-1,27
 98 450 98 450 150 450 c 2,0,-1
50 450 m 0,28,29
 46.708238605 450 46.708238605 450 43.5302734375 449.1484375 c 0,30,31
 37.0594857498 447.4149545 37.0594857498 447.4149545 32.322265625 442.677734375 c 0,32,33
 24.99609375 435.3515625 24.99609375 435.3515625 24.99609375 425.00390625 c 128,-1,34
 24.99609375 414.6484375 24.99609375 414.6484375 32.322265625 407.322265625 c 1,35,-1
 32.322265625 407.322265625 432.322265625 7.322265625 432.322265625 7.322265625 c 2,36,37
 439.6484375 -0.00390625 439.6484375 -0.00390625 449.99609375 -0.00390625 c 128,-1,38
 460.3515625 -0.00390625 460.3515625 -0.00390625 467.677734375 7.322265625 c 128,-1,39
 475.00390625 14.6484375 475.00390625 14.6484375 475.00390625 24.99609375 c 128,-1,40
 475.00390625 35.3515625 475.00390625 35.3515625 467.677734375 42.677734375 c 1,41,-1
 467.677734375 42.677734375 67.677734375 442.677734375 67.677734375 442.677734375 c 2,42,43
 60.35546875 450 60.35546875 450 50 450 c 1024,44,-1
EndSplineSet
Substitution2: "isol-1" uni0042.isol
Substitution2: "fina-1" uni0042.fina
Substitution2: "medi-1" uni0042.medi
Substitution2: "init-1" uni0042.init
EndChar

StartChar: V
Encoding: 86 86 52
Width: 500
VWidth: 1000
Flags: W
LayerCount: 2
Fore
SplineSet
50 0 m 128,-1,1
 40 0 40 0 32.5 7.5 c 128,-1,2
 25 15 25 15 25 25 c 2,3,-1
 25 325 l 2,4,5
 25 377 25 377 61.5 413.5 c 128,-1,6
 98 450 98 450 150 450 c 2,7,-1
 350 450 l 2,8,9
 402 450 402 450 438.5 413.5 c 128,-1,10
 475 377 475 377 475 325 c 2,11,-1
 475 25 l 2,12,13
 475 15 475 15 467.5 7.5 c 128,-1,14
 460 0 460 0 450 0 c 128,-1,15
 440 0 440 0 432.5 7.5 c 128,-1,16
 425 15 425 15 425 25 c 2,17,-1
 425 325 l 2,18,19
 425 356 425 356 403 378 c 128,-1,20
 381 400 381 400 350 400 c 2,21,-1
 150 400 l 2,22,23
 119 400 119 400 97 378 c 128,-1,24
 75 356 75 356 75 325 c 2,25,-1
 75 25 l 2,26,27
 75 15 75 15 67.5 7.5 c 128,-1,0
 60 0 60 0 50 0 c 128,-1,1
50 450 m 0,28,29
 46.708238605 450 46.708238605 450 43.5302734375 449.1484375 c 0,30,31
 37.0594857498 447.4149545 37.0594857498 447.4149545 32.322265625 442.677734375 c 0,32,33
 24.99609375 435.3515625 24.99609375 435.3515625 24.99609375 425.00390625 c 128,-1,34
 24.99609375 414.6484375 24.99609375 414.6484375 32.322265625 407.322265625 c 1,35,-1
 32.322265625 407.322265625 432.322265625 7.322265625 432.322265625 7.322265625 c 2,36,37
 439.6484375 -0.00390625 439.6484375 -0.00390625 449.99609375 -0.00390625 c 128,-1,38
 460.3515625 -0.00390625 460.3515625 -0.00390625 467.677734375 7.322265625 c 128,-1,39
 475.00390625 14.6484375 475.00390625 14.6484375 475.00390625 24.99609375 c 128,-1,40
 475.00390625 35.3515625 475.00390625 35.3515625 467.677734375 42.677734375 c 1,41,-1
 467.677734375 42.677734375 67.677734375 442.677734375 67.677734375 442.677734375 c 2,42,43
 60.35546875 450 60.35546875 450 50 450 c 1024,44,-1
EndSplineSet
Substitution2: "isol-1" uni0056.isol
Substitution2: "fina-1" uni0056.fina
Substitution2: "medi-1" uni0056.medi
Substitution2: "init-1" uni0056.init
EndChar

StartChar: M
Encoding: 77 77 53
Width: 500
VWidth: 1000
Flags: W
LayerCount: 2
Fore
SplineSet
50 0 m 128,-1,1
 40 0 40 0 32.5 7.5 c 128,-1,2
 25 15 25 15 25 25 c 2,3,-1
 25 325 l 2,4,5
 25 377 25 377 61.5 413.5 c 128,-1,6
 98 450 98 450 150 450 c 2,7,-1
 450 450 l 2,8,9
 460 450 460 450 467.5 442.5 c 128,-1,10
 475 435 475 435 475 425 c 128,-1,11
 475 415 475 415 467.5 407.5 c 128,-1,12
 460 400 460 400 450 400 c 2,13,-1
 150 400 l 2,14,15
 119 400 119 400 97 378 c 128,-1,16
 75 356 75 356 75 325 c 2,17,-1
 75 25 l 2,18,19
 75 15 75 15 67.5 7.5 c 128,-1,0
 60 0 60 0 50 0 c 128,-1,1
EndSplineSet
Substitution2: "isol-1" uni004D.isol
Substitution2: "fina-1" uni004D.fina
Substitution2: "medi-1" uni004D.medi
Substitution2: "init-1" uni004D.init
EndChar

StartChar: Z
Encoding: 90 90 54
Width: 500
VWidth: 1000
Flags: W
LayerCount: 2
Fore
SplineSet
50 450 m 128,-1,1
 60 450 60 450 67.5 442.5 c 128,-1,2
 75 435 75 435 75 425 c 2,3,-1
 75 125 l 2,4,5
 75 94 75 94 97 72 c 128,-1,6
 119 50 119 50 150 50 c 2,7,-1
 450 50 l 2,8,9
 460 50 460 50 467.5 42.5 c 128,-1,10
 475 35 475 35 475 25 c 128,-1,11
 475 15 475 15 467.5 7.5 c 128,-1,12
 460 0 460 0 450 0 c 2,13,-1
 150 0 l 2,14,15
 98 0 98 0 61.5 36.5 c 128,-1,16
 25 73 25 73 25 125 c 2,17,-1
 25 425 l 2,18,19
 25 435 25 435 32.5 442.5 c 128,-1,0
 40 450 40 450 50 450 c 128,-1,1
50 450 m 0,20,21
 46.708238605 450 46.708238605 450 43.5302734375 449.1484375 c 0,22,23
 37.0594857498 447.4149545 37.0594857498 447.4149545 32.322265625 442.677734375 c 0,24,25
 24.99609375 435.3515625 24.99609375 435.3515625 24.99609375 425.00390625 c 128,-1,26
 24.99609375 414.6484375 24.99609375 414.6484375 32.322265625 407.322265625 c 1,27,-1
 32.322265625 407.322265625 432.322265625 7.322265625 432.322265625 7.322265625 c 2,28,29
 439.6484375 -0.00390625 439.6484375 -0.00390625 449.99609375 -0.00390625 c 128,-1,30
 460.3515625 -0.00390625 460.3515625 -0.00390625 467.677734375 7.322265625 c 128,-1,31
 475.00390625 14.6484375 475.00390625 14.6484375 475.00390625 24.99609375 c 128,-1,32
 475.00390625 35.3515625 475.00390625 35.3515625 467.677734375 42.677734375 c 1,33,-1
 467.677734375 42.677734375 67.677734375 442.677734375 67.677734375 442.677734375 c 2,34,35
 60.35546875 450 60.35546875 450 50 450 c 1024,36,-1
EndSplineSet
Substitution2: "isol-1" uni005A.isol
Substitution2: "fina-1" uni005A.fina
Substitution2: "medi-1" uni005A.medi
Substitution2: "init-1" uni005A.init
EndChar

StartChar: N
Encoding: 78 78 55
Width: 500
VWidth: 1000
Flags: W
LayerCount: 2
Fore
SplineSet
50 0 m 128,-1,1
 40 0 40 0 32.5 7.5 c 128,-1,2
 25 15 25 15 25 25 c 2,3,-1
 25 325 l 2,4,5
 25 377 25 377 61.5 413.5 c 128,-1,6
 98 450 98 450 150 450 c 2,7,-1
 450 450 l 2,8,9
 460 450 460 450 467.5 442.5 c 128,-1,10
 475 435 475 435 475 425 c 128,-1,11
 475 415 475 415 467.5 407.5 c 128,-1,12
 460 400 460 400 450 400 c 2,13,-1
 150 400 l 2,14,15
 119 400 119 400 97 378 c 128,-1,16
 75 356 75 356 75 325 c 2,17,-1
 75 25 l 2,18,19
 75 15 75 15 67.5 7.5 c 128,-1,0
 60 0 60 0 50 0 c 128,-1,1
50 450 m 0,20,21
 46.708238605 450 46.708238605 450 43.5302734375 449.1484375 c 0,22,23
 37.0594857498 447.4149545 37.0594857498 447.4149545 32.322265625 442.677734375 c 0,24,25
 24.99609375 435.3515625 24.99609375 435.3515625 24.99609375 425.00390625 c 128,-1,26
 24.99609375 414.6484375 24.99609375 414.6484375 32.322265625 407.322265625 c 1,27,-1
 32.322265625 407.322265625 432.322265625 7.322265625 432.322265625 7.322265625 c 2,28,29
 439.6484375 -0.00390625 439.6484375 -0.00390625 449.99609375 -0.00390625 c 128,-1,30
 460.3515625 -0.00390625 460.3515625 -0.00390625 467.677734375 7.322265625 c 128,-1,31
 475.00390625 14.6484375 475.00390625 14.6484375 475.00390625 24.99609375 c 128,-1,32
 475.00390625 35.3515625 475.00390625 35.3515625 467.677734375 42.677734375 c 1,33,-1
 467.677734375 42.677734375 67.677734375 442.677734375 67.677734375 442.677734375 c 2,34,35
 60.35546875 450 60.35546875 450 50 450 c 1024,36,-1
EndSplineSet
Substitution2: "isol-1" uni004E.isol
Substitution2: "fina-1" uni004E.fina
Substitution2: "medi-1" uni004E.medi
Substitution2: "init-1" uni004E.init
EndChar

StartChar: W
Encoding: 87 87 56
Width: 0
VWidth: 1000
GlyphClass: 4
Flags: W
LayerCount: 2
Fore
SplineSet
-350 -50 m 1,0,-1
 -150 -50 l 1,1,-1
 -150 -50.25390625 l 1,2,3
 -139.721510201 -50.25390625 -139.721510201 -50.25390625 -132.412784679 -57.4947115851 c 128,-1,4
 -125.104059156 -64.7355169202 -125.104059156 -64.7355169202 -125 -75 c 0,5,6
 -125.104059156 -85.2644830798 -125.104059156 -85.2644830798 -132.412784679 -92.5052884149 c 128,-1,7
 -139.721510201 -99.74609375 -139.721510201 -99.74609375 -150 -99.74609375 c 1,8,-1
 -150 -100 l 1,9,-1
 -350 -100 l 1,10,-1
 -350 -99.74609375 l 1,11,12
 -360.278489799 -99.74609375 -360.278489799 -99.74609375 -367.587215321 -92.5052884149 c 128,-1,13
 -374.895940844 -85.2644830798 -374.895940844 -85.2644830798 -375 -75 c 0,14,15
 -374.895940844 -64.7355169202 -374.895940844 -64.7355169202 -367.587215321 -57.4947115851 c 128,-1,16
 -360.278489799 -50.25390625 -360.278489799 -50.25390625 -350 -50.25390625 c 1,17,-1
 -350 -50 l 1,0,-1
EndSplineSet
EndChar

StartChar: C
Encoding: 67 67 57
Width: 500
VWidth: 1000
Flags: W
LayerCount: 2
Fore
SplineSet
350 450 m 2,0,1
 402 450 402 450 438.5 413.5 c 128,-1,2
 475 377 475 377 475 325 c 2,3,-1
 475 125 l 2,4,5
 475 73 475 73 438.5 36.5 c 128,-1,6
 402 0 402 0 350 0 c 2,7,-1
 50 0 l 2,8,9
 40 0 40 0 32.5 7.5 c 128,-1,10
 25 15 25 15 25 25 c 128,-1,11
 25 35 25 35 32.5 42.5 c 128,-1,12
 40 50 40 50 50 50 c 2,13,-1
 350 50 l 2,14,15
 381 50 381 50 403 72 c 128,-1,16
 425 94 425 94 425 125 c 2,17,-1
 425 325 l 2,18,19
 425 356 425 356 403 378 c 128,-1,20
 381 400 381 400 350 400 c 2,21,-1
 50 400 l 2,22,23
 40 400 40 400 32.5 407.5 c 128,-1,24
 25 415 25 415 25 425 c 128,-1,25
 25 435 25 435 32.5 442.5 c 128,-1,26
 40 450 40 450 50 450 c 2,27,-1
 350 450 l 2,0,1
50 450 m 0,28,29
 46.708238605 450 46.708238605 450 43.5302734375 449.1484375 c 0,30,31
 37.0594857498 447.4149545 37.0594857498 447.4149545 32.322265625 442.677734375 c 0,32,33
 24.99609375 435.3515625 24.99609375 435.3515625 24.99609375 425.00390625 c 128,-1,34
 24.99609375 414.6484375 24.99609375 414.6484375 32.322265625 407.322265625 c 1,35,-1
 32.322265625 407.322265625 432.322265625 7.322265625 432.322265625 7.322265625 c 2,36,37
 439.6484375 -0.00390625 439.6484375 -0.00390625 449.99609375 -0.00390625 c 128,-1,38
 460.3515625 -0.00390625 460.3515625 -0.00390625 467.677734375 7.322265625 c 128,-1,39
 475.00390625 14.6484375 475.00390625 14.6484375 475.00390625 24.99609375 c 128,-1,40
 475.00390625 35.3515625 475.00390625 35.3515625 467.677734375 42.677734375 c 1,41,-1
 467.677734375 42.677734375 67.677734375 442.677734375 67.677734375 442.677734375 c 2,42,43
 60.35546875 450 60.35546875 450 50 450 c 1024,44,-1
EndSplineSet
Substitution2: "isol-1" uni0043.isol
Substitution2: "fina-1" uni0043.fina
Substitution2: "medi-1" uni0043.medi
Substitution2: "init-1" uni0043.init
EndChar

StartChar: U
Encoding: 85 85 58
Width: 0
VWidth: 1000
GlyphClass: 4
Flags: W
LayerCount: 2
Fore
SplineSet
-250.544921875 -0.005859375 m 0,0,-1
 -250 0 l 0,1,2
 -240 0 -240 0 -232.5 -7.5 c 128,-1,3
 -225 -15 -225 -15 -225 -25 c 128,-1,4
 -225 -35 -225 -35 -232.5 -42.5 c 128,-1,5
 -240 -50 -240 -50 -250 -50 c 128,-1,6
 -260 -50 -260 -50 -267.5 -42.5 c 128,-1,7
 -275 -35 -275 -35 -275 -25 c 128,-1,8
 -275 -15.1656491102 -275 -15.1656491102 -268.296024405 -7.98263581147 c 128,-1,9
 -261.592048809 -0.799622512747 -261.592048809 -0.799622512747 -251.869140625 -0.0703125 c 0,10,11
 -251.200190918 -0.0201043541854 -251.200190918 -0.0201043541854 -250.544921875 -0.005859375 c 0,0,-1
EndSplineSet
EndChar

StartChar: A
Encoding: 65 65 59
Width: 0
VWidth: 1000
GlyphClass: 4
Flags: W
LayerCount: 2
Fore
SplineSet
-350 550 m 1,0,-1
 -150 550 l 1,1,-1
 -150 549.75 l 1,2,3
 -139.720645017 549.75 -139.720645017 549.75 -132.411618608 542.507907513 c 128,-1,4
 -125.102592198 535.265815027 -125.102592198 535.265815027 -125 525 c 0,5,6
 -125.102592198 514.734184973 -125.102592198 514.734184973 -132.411618608 507.492092487 c 128,-1,7
 -139.720645017 500.25 -139.720645017 500.25 -150 500.25 c 1,8,-1
 -150 500 l 1,9,-1
 -249.591796875 500 l 1,10,11
 -239.378393007 499.832867575 -239.378393007 499.832867575 -232.189196503 492.534346187 c 128,-1,12
 -225 485.235824799 -225 485.235824799 -225 475 c 0,13,14
 -225 465 -225 465 -232.5 457.5 c 128,-1,15
 -240 450 -240 450 -250 450 c 128,-1,16
 -260 450 -260 450 -267.5 457.5 c 128,-1,17
 -275 465 -275 465 -275 475 c 1,18,-1
 -274.974609375 475.005859375 l 1,19,20
 -274.974609375 484.382058352 -274.974609375 484.382058352 -268.835075306 491.408843292 c 128,-1,21
 -262.695541237 498.435628232 -262.695541237 498.435628232 -253.560546875 499.75 c 0,22,23
 -252.229734788 499.940749732 -252.229734788 499.940749732 -250.89453125 499.98828125 c 0,24,25
 -250.499565972 500.000976562 -250.499565972 500.000976562 -250.08984375 500.000976562 c 0,26,27
 -249.955078125 500.001464844 -249.955078125 500.001464844 -249.8203125 500 c 1,28,-1
 -350 500 l 1,29,-1
 -350 500.25 l 1,30,31
 -360.279354983 500.25 -360.279354983 500.25 -367.588381392 507.492092487 c 128,-1,32
 -374.897407802 514.734184973 -374.897407802 514.734184973 -375 525 c 0,33,34
 -374.897407802 535.265815027 -374.897407802 535.265815027 -367.588381392 542.507907513 c 128,-1,35
 -360.279354983 549.75 -360.279354983 549.75 -350 549.75 c 1,36,-1
 -350 550 l 1,0,-1
EndSplineSet
EndChar

StartChar: i
Encoding: 105 105 60
Width: 0
VWidth: 1000
GlyphClass: 4
Flags: W
LayerCount: 2
Fore
SplineSet
-350 550 m 1,0,-1
 -150 550 l 1,1,-1
 -150 549.75 l 1,2,3
 -139.720645017 549.75 -139.720645017 549.75 -132.411618608 542.507907513 c 128,-1,4
 -125.102592198 535.265815027 -125.102592198 535.265815027 -125 525 c 0,5,6
 -125.102592198 514.734184973 -125.102592198 514.734184973 -132.411618608 507.492092487 c 128,-1,7
 -139.720645017 500.25 -139.720645017 500.25 -150 500.25 c 1,8,-1
 -150 500 l 1,9,-1
 -350 500 l 1,10,-1
 -350 500.25 l 1,11,12
 -360.279354983 500.25 -360.279354983 500.25 -367.588381392 507.492092487 c 128,-1,13
 -374.897407802 514.734184973 -374.897407802 514.734184973 -375 525 c 0,14,15
 -374.897407802 535.265815027 -374.897407802 535.265815027 -367.588381392 542.507907513 c 128,-1,16
 -360.279354983 549.75 -360.279354983 549.75 -350 549.75 c 1,17,-1
 -350 550 l 1,0,-1
EndSplineSet
EndChar

StartChar: backslash
Encoding: 92 92 61
Width: 500
VWidth: 1000
Flags: W
LayerCount: 2
Fore
SplineSet
50 450 m 0,0,1
 46.708238605 450 46.708238605 450 43.5302734375 449.1484375 c 0,2,3
 37.0594857498 447.4149545 37.0594857498 447.4149545 32.322265625 442.677734375 c 0,4,5
 24.99609375 435.3515625 24.99609375 435.3515625 24.99609375 425.00390625 c 128,-1,6
 24.99609375 414.6484375 24.99609375 414.6484375 32.322265625 407.322265625 c 1,7,-1
 32.322265625 407.322265625 432.322265625 7.322265625 432.322265625 7.322265625 c 2,8,9
 439.6484375 -0.00390625 439.6484375 -0.00390625 449.99609375 -0.00390625 c 128,-1,10
 460.3515625 -0.00390625 460.3515625 -0.00390625 467.677734375 7.322265625 c 128,-1,11
 475.00390625 14.6484375 475.00390625 14.6484375 475.00390625 24.99609375 c 128,-1,12
 475.00390625 35.3515625 475.00390625 35.3515625 467.677734375 42.677734375 c 1,13,-1
 467.677734375 42.677734375 67.677734375 442.677734375 67.677734375 442.677734375 c 2,14,15
 60.35546875 450 60.35546875 450 50 450 c 1024,16,-1
EndSplineSet
EndChar

StartChar: O
Encoding: 79 79 62
Width: 0
VWidth: 1000
GlyphClass: 4
Flags: W
LayerCount: 2
Fore
SplineSet
-249.42578125 -0.005859375 m 0,0,1
 -239.267423581 -0.2390476908 -239.267423581 -0.2390476908 -232.13371179 -7.52462031115 c 128,-1,2
 -225 -14.8101929315 -225 -14.8101929315 -225 -25 c 128,-1,3
 -225 -35 -225 -35 -232.5 -42.5 c 128,-1,4
 -240 -50 -240 -50 -250 -50 c 128,-1,5
 -260 -50 -260 -50 -267.5 -42.5 c 128,-1,6
 -275 -35 -275 -35 -275 -25 c 0,7,8
 -275 -15.625758231 -275 -15.625758231 -268.848558977 -8.59685032057 c 128,-1,9
 -262.697117955 -1.56794241018 -262.697117955 -1.56794241018 -253.55859375 -0.25390625 c 0,10,11
 -251.781823447 0.0009765625 -251.781823447 0.0009765625 -250.009765625 0.0009765625 c 0,12,13
 -249.717285156 0.00146484375 -249.717285156 0.00146484375 -249.42578125 -0.005859375 c 0,0,1
-350 -50 m 1,14,-1
 -150 -50 l 1,15,-1
 -150 -50.25390625 l 1,16,17
 -139.721510201 -50.25390625 -139.721510201 -50.25390625 -132.412784679 -57.4947115851 c 128,-1,18
 -125.104059156 -64.7355169202 -125.104059156 -64.7355169202 -125 -75 c 0,19,20
 -125.104059156 -85.2644830798 -125.104059156 -85.2644830798 -132.412784679 -92.5052884149 c 128,-1,21
 -139.721510201 -99.74609375 -139.721510201 -99.74609375 -150 -99.74609375 c 1,22,-1
 -150 -100 l 1,23,-1
 -350 -100 l 1,24,-1
 -350 -99.74609375 l 1,25,26
 -360.278489799 -99.74609375 -360.278489799 -99.74609375 -367.587215321 -92.5052884149 c 128,-1,27
 -374.895940844 -85.2644830798 -374.895940844 -85.2644830798 -375 -75 c 0,28,29
 -374.895940844 -64.7355169202 -374.895940844 -64.7355169202 -367.587215321 -57.4947115851 c 128,-1,30
 -360.278489799 -50.25390625 -360.278489799 -50.25390625 -350 -50.25390625 c 1,31,-1
 -350 -50 l 1,14,-1
EndSplineSet
EndChar

StartChar: bracketleft
Encoding: 91 91 63
Width: 500
VWidth: 1000
Flags: W
LayerCount: 2
Fore
SplineSet
250 500 m 2,0,-1
 350 500 l 2,1,2
 360 500 360 500 367.5 492.5 c 128,-1,3
 375 485 375 485 375 475 c 128,-1,4
 375 465 375 465 367.5 457.5 c 128,-1,5
 360 450 360 450 350 450 c 2,6,-1
 250 450 l 2,7,8
 219 450 219 450 197 428 c 128,-1,9
 175 406 175 406 175 375 c 2,10,-1
 175 75 l 2,11,12
 175 44 175 44 197 22 c 128,-1,13
 219 0 219 0 250 0 c 2,14,-1
 350 0 l 2,15,16
 360 0 360 0 367.5 -7.5 c 128,-1,17
 375 -15 375 -15 375 -25 c 128,-1,18
 375 -35 375 -35 367.5 -42.5 c 128,-1,19
 360 -50 360 -50 350 -50 c 2,20,-1
 250 -50 l 2,21,22
 198 -50 198 -50 161.5 -13.5 c 128,-1,23
 125 23 125 23 125 75 c 2,24,-1
 125 375 l 2,25,26
 125 427 125 427 161.5 463.5 c 128,-1,27
 198 500 198 500 250 500 c 2,0,-1
EndSplineSet
EndChar

StartChar: h
Encoding: 104 104 64
Width: 500
VWidth: 1000
Flags: W
LayerCount: 2
Fore
SplineSet
450 0 m 128,-1,1
 440 0 440 0 432.5 7.5 c 128,-1,2
 425 15 425 15 425 25 c 2,3,-1
 425 325 l 2,4,5
 425 356 425 356 403 378 c 128,-1,6
 381 400 381 400 350 400 c 2,7,-1
 50 400 l 2,8,9
 40 400 40 400 32.5 407.5 c 128,-1,10
 25 415 25 415 25 425 c 128,-1,11
 25 435 25 435 32.5 442.5 c 128,-1,12
 40 450 40 450 50 450 c 2,13,-1
 350 450 l 2,14,15
 402 450 402 450 438.5 413.5 c 128,-1,16
 475 377 475 377 475 325 c 2,17,-1
 475 25 l 2,18,19
 475 15 475 15 467.5 7.5 c 128,-1,0
 460 0 460 0 450 0 c 128,-1,1
EndSplineSet
Substitution2: "isol-1" uni0068.isol
Substitution2: "fina-1" uni0068.fina
Substitution2: "medi-1" uni0068.medi
Substitution2: "init-1" uni0068.init
EndChar

StartChar: at
Encoding: 64 64 65
Width: 500
VWidth: 1000
Flags: W
LayerCount: 2
Fore
SplineSet
150 450 m 2,0,-1
 350 450 l 2,1,2
 402 450 402 450 438.5 413.5 c 128,-1,3
 475 377 475 377 475 325 c 2,4,-1
 475 125 l 2,5,6
 475 73 475 73 438.5 36.5 c 128,-1,7
 402 0 402 0 350 0 c 2,8,-1
 150 0 l 2,9,10
 98 0 98 0 61.5 36.5 c 128,-1,11
 25 73 25 73 25 125 c 2,12,-1
 25 325 l 2,13,14
 25 377 25 377 61.5 413.5 c 128,-1,15
 98 450 98 450 150 450 c 2,0,-1
150 400 m 2,16,17
 119 400 119 400 97 378 c 128,-1,18
 75 356 75 356 75 325 c 2,19,-1
 75 125 l 2,20,21
 75 94 75 94 97 72 c 128,-1,22
 119 50 119 50 150 50 c 2,23,-1
 350 50 l 2,24,25
 381 50 381 50 403 72 c 128,-1,26
 425 94 425 94 425 125 c 2,27,-1
 425 325 l 2,28,29
 425 356 425 356 403 378 c 128,-1,30
 381 400 381 400 350 400 c 2,31,-1
 150 400 l 2,16,17
250 350 m 128,-1,33
 302 350 302 350 338.5 313.5 c 128,-1,34
 375 277 375 277 375 225 c 128,-1,35
 375 173 375 173 338.5 136.5 c 128,-1,36
 302 100 302 100 250 100 c 128,-1,37
 198 100 198 100 161.5 136.5 c 128,-1,38
 125 173 125 173 125 225 c 128,-1,39
 125 277 125 277 161.5 313.5 c 128,-1,32
 198 350 198 350 250 350 c 128,-1,33
250 300 m 128,-1,41
 219 300 219 300 197 278 c 128,-1,42
 175 256 175 256 175 225 c 128,-1,43
 175 194 175 194 197 172 c 128,-1,44
 219 150 219 150 250 150 c 128,-1,45
 281 150 281 150 303 172 c 128,-1,46
 325 194 325 194 325 225 c 128,-1,47
 325 256 325 256 303 278 c 128,-1,40
 281 300 281 300 250 300 c 128,-1,41
50 450 m 0,48,49
 46.708238605 450 46.708238605 450 43.5302734375 449.1484375 c 0,50,51
 37.0594857498 447.4149545 37.0594857498 447.4149545 32.322265625 442.677734375 c 0,52,53
 24.99609375 435.3515625 24.99609375 435.3515625 24.99609375 425.00390625 c 128,-1,54
 24.99609375 414.6484375 24.99609375 414.6484375 32.322265625 407.322265625 c 1,55,-1
 32.322265625 407.322265625 432.322265625 7.322265625 432.322265625 7.322265625 c 2,56,57
 439.6484375 -0.00390625 439.6484375 -0.00390625 449.99609375 -0.00390625 c 128,-1,58
 460.3515625 -0.00390625 460.3515625 -0.00390625 467.677734375 7.322265625 c 128,-1,59
 475.00390625 14.6484375 475.00390625 14.6484375 475.00390625 24.99609375 c 128,-1,60
 475.00390625 35.3515625 475.00390625 35.3515625 467.677734375 42.677734375 c 1,61,-1
 467.677734375 42.677734375 67.677734375 442.677734375 67.677734375 442.677734375 c 2,62,63
 60.35546875 450 60.35546875 450 50 450 c 1024,64,-1
EndSplineSet
EndChar

StartChar: T
Encoding: 84 84 66
Width: 500
VWidth: 1000
Flags: W
LayerCount: 2
Fore
SplineSet
50 450 m 128,-1,1
 60 450 60 450 67.5 442.5 c 128,-1,2
 75 435 75 435 75 425 c 2,3,-1
 75 125 l 2,4,5
 75 94 75 94 97 72 c 128,-1,6
 119 50 119 50 150 50 c 2,7,-1
 350 50 l 2,8,9
 381 50 381 50 403 72 c 128,-1,10
 425 94 425 94 425 125 c 2,11,-1
 425 425 l 2,12,13
 425 435 425 435 432.5 442.5 c 128,-1,14
 440 450 440 450 450 450 c 128,-1,15
 460 450 460 450 467.5 442.5 c 128,-1,16
 475 435 475 435 475 425 c 2,17,-1
 475 125 l 2,18,19
 475 73 475 73 438.5 36.5 c 128,-1,20
 402 0 402 0 350 0 c 2,21,-1
 150 0 l 2,22,23
 98 0 98 0 61.5 36.5 c 128,-1,24
 25 73 25 73 25 125 c 2,25,-1
 25 425 l 2,26,27
 25 435 25 435 32.5 442.5 c 128,-1,0
 40 450 40 450 50 450 c 128,-1,1
EndSplineSet
Substitution2: "isol-1" uni0054.isol
Substitution2: "fina-1" uni0054.fina
Substitution2: "medi-1" uni0054.medi
Substitution2: "init-1" uni0054.init
EndChar

StartChar: greater
Encoding: 62 62 67
Width: 500
VWidth: 1000
Flags: W
LayerCount: 2
Fore
SplineSet
150 350 m 1,0,-1
 250 350 l 2,1,2
 302 350 302 350 338.5 313.5 c 128,-1,3
 375 277 375 277 375 225 c 128,-1,4
 375 173 375 173 338.5 136.5 c 128,-1,5
 302 100 302 100 250 100 c 2,6,-1
 150 100 l 1,7,-1
 150 100.25 l 1,8,9
 139.720645017 100.25 139.720645017 100.25 132.411618608 107.492092487 c 128,-1,10
 125.102592198 114.734184973 125.102592198 114.734184973 125 125 c 0,11,12
 125.102592198 135.265815027 125.102592198 135.265815027 132.411618608 142.507907513 c 128,-1,13
 139.720645017 149.75 139.720645017 149.75 150 149.75 c 1,14,-1
 150 150 l 1,15,-1
 250 150 l 2,16,17
 281 150 281 150 303 172 c 128,-1,18
 325 194 325 194 325 225 c 128,-1,19
 325 256 325 256 303 278 c 128,-1,20
 281 300 281 300 250 300 c 2,21,-1
 150 300 l 1,22,-1
 150 300.25 l 1,23,24
 139.720645017 300.25 139.720645017 300.25 132.411618608 307.492092487 c 128,-1,25
 125.102592198 314.734184973 125.102592198 314.734184973 125 325 c 0,26,27
 125.102592198 335.265815027 125.102592198 335.265815027 132.411618608 342.507907513 c 128,-1,28
 139.720645017 349.75 139.720645017 349.75 150 349.75 c 1,29,-1
 150 350 l 1,0,-1
EndSplineSet
EndChar

StartChar: asterisk
Encoding: 42 42 68
Width: 500
VWidth: 1000
Flags: W
LayerCount: 2
Fore
SplineSet
245.66015625 449.620117188 m 0,0,1
 247.81332016 450 247.81332016 450 250 450 c 0,2,3
 260 450 260 450 267.5 442.5 c 128,-1,4
 275 435 275 435 275 425 c 2,5,-1
 275 285.349609375 l 1,6,-1
 432.3203125 442.6796875 l 1,7,-1
 432.3203125 442.6796875 l 0,8,-1
 432.3203125 441.9296875 l 0,9,10
 439.632511453 449.252929688 439.632511453 449.252929688 450.010742188 449.252929688 c 0,11,12
 460.157482851 449.252929688 460.157482851 449.252929688 467.430217742 442.178470442 c 128,-1,13
 474.702952633 435.104011196 474.702952633 435.104011196 475 425 c 0,14,15
 474.755604306 414.496874214 474.755604306 414.496874214 467.080078125 407.3203125 c 1,16,-1
 467.6796875 407.3203125 l 1,17,-1
 285.360351562 225 l 1,18,-1
 467.6796875 42.6796875 l 1,19,-1
 467.6796875 42.6796875 l 0,20,-1
 467.6796875 41.919921875 l 1,21,22
 474.696093071 34.9129448442 474.696093071 34.9129448442 475 25 c 0,23,24
 474.696093071 15.0870551558 474.696093071 15.0870551558 467.6796875 8.080078125 c 1,25,-1
 467.6796875 7.3203125 l 1,26,-1
 467.080078125 7.3203125 l 1,27,28
 459.872996257 0.576171875 459.872996257 0.576171875 449.9921875 0.576171875 c 128,-1,29
 440.127003743 0.576171875 440.127003743 0.576171875 432.919921875 7.3203125 c 1,30,-1
 432.3203125 7.3203125 l 1,31,-1
 275 164.639648438 l 1,32,-1
 275 25 l 2,33,34
 275 15 275 15 267.5 7.5 c 128,-1,35
 260 0 260 0 250 0 c 128,-1,36
 240 0 240 0 232.5 7.5 c 128,-1,37
 225 15 225 15 225 25 c 2,38,-1
 225 164.639648438 l 1,39,-1
 67.6796875 7.3203125 l 1,40,-1
 67.6796875 7.3203125 l 0,41,-1
 67.6796875 8.080078125 l 0,42,43
 60.3674885472 0.7568359375 60.3674885472 0.7568359375 49.98828125 0.7568359375 c 0,44,45
 39.8446378719 0.7568359375 39.8446378719 0.7568359375 32.5726788262 7.82815931341 c 128,-1,46
 25.3007197805 14.8994826893 25.3007197805 14.8994826893 25 25 c 0,47,48
 25.2488751913 35.5072455024 25.2488751913 35.5072455024 32.9296875 42.6796875 c 1,49,-1
 32.330078125 42.6796875 l 1,50,-1
 214.650390625 225 l 1,51,-1
 32.3203125 407.3203125 l 1,52,-1
 32.3203125 407.3203125 l 0,53,-1
 32.3203125 408.080078125 l 1,54,55
 25.3039069287 415.087055156 25.3039069287 415.087055156 25 425 c 0,56,57
 25.3039069287 434.912944844 25.3039069287 434.912944844 32.3203125 441.919921875 c 1,58,-1
 32.3203125 442.6796875 l 1,59,-1
 32.919921875 442.6796875 l 1,60,61
 40.127003743 449.423828125 40.127003743 449.423828125 50.0078125 449.423828125 c 128,-1,62
 59.872996257 449.423828125 59.872996257 449.423828125 67.080078125 442.6796875 c 1,63,-1
 67.6796875 442.6796875 l 1,64,-1
 225 285.349609375 l 1,65,-1
 225 425 l 1,66,67
 225 434.161052874 225 434.161052874 230.898943036 441.1094235 c 128,-1,68
 236.797886071 448.057794127 236.797886071 448.057794127 245.66015625 449.620117188 c 0,0,1
432.3203125 408.0703125 m 1,69,-1
 432.919921875 407.3203125 l 1,70,-1
 432.3203125 407.3203125 l 1,71,-1
 432.3203125 408.0703125 l 1,69,-1
67.080078125 42.669921875 m 1,72,-1
 67.6796875 42.669921875 l 1,73,-1
 67.6796875 41.919921875 l 1,74,-1
 67.080078125 42.669921875 l 1,72,-1
EndSplineSet
EndChar

StartChar: three
Encoding: 51 51 69
Width: 500
VWidth: 1000
Flags: W
LayerCount: 2
Fore
SplineSet
50 450 m 128,-1,1
 60 450 60 450 67.5 442.5 c 128,-1,2
 75 435 75 435 75 425 c 2,3,-1
 75 125 l 2,4,5
 75 94 75 94 97 72 c 128,-1,6
 119 50 119 50 150 50 c 2,7,-1
 450 50 l 2,8,9
 460 50 460 50 467.5 42.5 c 128,-1,10
 475 35 475 35 475 25 c 128,-1,11
 475 15 475 15 467.5 7.5 c 128,-1,12
 460 0 460 0 450 0 c 2,13,-1
 150 0 l 2,14,15
 98 0 98 0 61.5 36.5 c 128,-1,16
 25 73 25 73 25 125 c 2,17,-1
 25 425 l 2,18,19
 25 435 25 435 32.5 442.5 c 128,-1,0
 40 450 40 450 50 450 c 128,-1,1
250 350 m 128,-1,21
 302 350 302 350 338.5 313.5 c 128,-1,22
 375 277 375 277 375 225 c 128,-1,23
 375 173 375 173 338.5 136.5 c 128,-1,24
 302 100 302 100 250 100 c 128,-1,25
 198 100 198 100 161.5 136.5 c 128,-1,26
 125 173 125 173 125 225 c 128,-1,27
 125 277 125 277 161.5 313.5 c 128,-1,20
 198 350 198 350 250 350 c 128,-1,21
250 300 m 128,-1,29
 219 300 219 300 197 278 c 128,-1,30
 175 256 175 256 175 225 c 128,-1,31
 175 194 175 194 197 172 c 128,-1,32
 219 150 219 150 250 150 c 128,-1,33
 281 150 281 150 303 172 c 128,-1,34
 325 194 325 194 325 225 c 128,-1,35
 325 256 325 256 303 278 c 128,-1,28
 281 300 281 300 250 300 c 128,-1,29
EndSplineSet
EndChar

StartChar: quotesingle
Encoding: 39 39 70
Width: 500
VWidth: 1000
Flags: W
LayerCount: 2
Fore
SplineSet
250 450 m 128,-1,1
 260 450 260 450 267.5 442.5 c 128,-1,2
 275 435 275 435 275 425 c 128,-1,3
 275 415 275 415 267.5 407.5 c 128,-1,4
 260 400 260 400 250 400 c 128,-1,5
 240 400 240 400 232.5 407.5 c 128,-1,6
 225 415 225 415 225 425 c 128,-1,7
 225 435 225 435 232.5 442.5 c 128,-1,0
 240 450 240 450 250 450 c 128,-1,1
EndSplineSet
EndChar

StartChar: ampersand
Encoding: 38 38 71
Width: 500
VWidth: 1000
Flags: W
LayerCount: 2
Fore
SplineSet
350 450 m 2,0,1
 402 450 402 450 438.5 413.5 c 128,-1,2
 475 377 475 377 475 325 c 2,3,-1
 475 125 l 2,4,5
 475 73 475 73 438.5 36.5 c 128,-1,6
 402 0 402 0 350 0 c 2,7,-1
 50 0 l 2,8,9
 40 0 40 0 32.5 7.5 c 128,-1,10
 25 15 25 15 25 25 c 128,-1,11
 25 35 25 35 32.5 42.5 c 128,-1,12
 40 50 40 50 50 50 c 2,13,-1
 350 50 l 2,14,15
 381 50 381 50 403 72 c 128,-1,16
 425 94 425 94 425 125 c 2,17,-1
 425 325 l 2,18,19
 425 356 425 356 403 378 c 128,-1,20
 381 400 381 400 350 400 c 2,21,-1
 50 400 l 2,22,23
 40 400 40 400 32.5 407.5 c 128,-1,24
 25 415 25 415 25 425 c 128,-1,25
 25 435 25 435 32.5 442.5 c 128,-1,26
 40 450 40 450 50 450 c 2,27,-1
 350 450 l 2,0,1
150 350 m 1,28,-1
 250 350 l 2,29,30
 302 350 302 350 338.5 313.5 c 128,-1,31
 375 277 375 277 375 225 c 128,-1,32
 375 173 375 173 338.5 136.5 c 128,-1,33
 302 100 302 100 250 100 c 2,34,-1
 150 100 l 1,35,-1
 150 100.25 l 1,36,37
 139.720645017 100.25 139.720645017 100.25 132.411618608 107.492092487 c 128,-1,38
 125.102592198 114.734184973 125.102592198 114.734184973 125 125 c 0,39,40
 125.102592198 135.265815027 125.102592198 135.265815027 132.411618608 142.507907513 c 128,-1,41
 139.720645017 149.75 139.720645017 149.75 150 149.75 c 1,42,-1
 150 150 l 1,43,-1
 250 150 l 2,44,45
 281 150 281 150 303 172 c 128,-1,46
 325 194 325 194 325 225 c 128,-1,47
 325 256 325 256 303 278 c 128,-1,48
 281 300 281 300 250 300 c 2,49,-1
 150 300 l 1,50,-1
 150 300.25 l 1,51,52
 139.720645017 300.25 139.720645017 300.25 132.411618608 307.492092487 c 128,-1,53
 125.102592198 314.734184973 125.102592198 314.734184973 125 325 c 0,54,55
 125.102592198 335.265815027 125.102592198 335.265815027 132.411618608 342.507907513 c 128,-1,56
 139.720645017 349.75 139.720645017 349.75 150 349.75 c 1,57,-1
 150 350 l 1,28,-1
250 450 m 128,-1,59
 260 450 260 450 267.5 442.5 c 128,-1,60
 275 435 275 435 275 425 c 128,-1,61
 275 415 275 415 267.5 407.5 c 128,-1,62
 260 400 260 400 250 400 c 128,-1,63
 240 400 240 400 232.5 407.5 c 128,-1,64
 225 415 225 415 225 425 c 128,-1,65
 225 435 225 435 232.5 442.5 c 128,-1,58
 240 450 240 450 250 450 c 128,-1,59
250 250 m 128,-1,67
 260 250 260 250 267.5 242.5 c 128,-1,68
 275 235 275 235 275 225 c 128,-1,69
 275 215 275 215 267.5 207.5 c 128,-1,70
 260 200 260 200 250 200 c 128,-1,71
 240 200 240 200 232.5 207.5 c 128,-1,72
 225 215 225 215 225 225 c 128,-1,73
 225 235 225 235 232.5 242.5 c 128,-1,66
 240 250 240 250 250 250 c 128,-1,67
250 50 m 128,-1,75
 260 50 260 50 267.5 42.5 c 128,-1,76
 275 35 275 35 275 25 c 128,-1,77
 275 15 275 15 267.5 7.5 c 128,-1,78
 260 0 260 0 250 0 c 128,-1,79
 240 0 240 0 232.5 7.5 c 128,-1,80
 225 15 225 15 225 25 c 128,-1,81
 225 35 225 35 232.5 42.5 c 128,-1,74
 240 50 240 50 250 50 c 128,-1,75
EndSplineSet
EndChar

StartChar: two
Encoding: 50 50 72
Width: 500
VWidth: 1000
Flags: W
LayerCount: 2
Fore
SplineSet
50 450 m 128,-1,1
 60 450 60 450 67.5 442.5 c 128,-1,2
 75 435 75 435 75 425 c 2,3,-1
 75 125 l 2,4,5
 75 94 75 94 97 72 c 128,-1,6
 119 50 119 50 150 50 c 2,7,-1
 350 50 l 2,8,9
 381 50 381 50 403 72 c 128,-1,10
 425 94 425 94 425 125 c 2,11,-1
 425 425 l 2,12,13
 425 435 425 435 432.5 442.5 c 128,-1,14
 440 450 440 450 450 450 c 128,-1,15
 460 450 460 450 467.5 442.5 c 128,-1,16
 475 435 475 435 475 425 c 2,17,-1
 475 125 l 2,18,19
 475 73 475 73 438.5 36.5 c 128,-1,20
 402 0 402 0 350 0 c 2,21,-1
 150 0 l 2,22,23
 98 0 98 0 61.5 36.5 c 128,-1,24
 25 73 25 73 25 125 c 2,25,-1
 25 425 l 2,26,27
 25 435 25 435 32.5 442.5 c 128,-1,0
 40 450 40 450 50 450 c 128,-1,1
250 350 m 128,-1,29
 302 350 302 350 338.5 313.5 c 128,-1,30
 375 277 375 277 375 225 c 128,-1,31
 375 173 375 173 338.5 136.5 c 128,-1,32
 302 100 302 100 250 100 c 128,-1,33
 198 100 198 100 161.5 136.5 c 128,-1,34
 125 173 125 173 125 225 c 128,-1,35
 125 277 125 277 161.5 313.5 c 128,-1,28
 198 350 198 350 250 350 c 128,-1,29
250 300 m 128,-1,37
 219 300 219 300 197 278 c 128,-1,38
 175 256 175 256 175 225 c 128,-1,39
 175 194 175 194 197 172 c 128,-1,40
 219 150 219 150 250 150 c 128,-1,41
 281 150 281 150 303 172 c 128,-1,42
 325 194 325 194 325 225 c 128,-1,43
 325 256 325 256 303 278 c 128,-1,36
 281 300 281 300 250 300 c 128,-1,37
EndSplineSet
EndChar

StartChar: equal
Encoding: 61 61 73
Width: 500
VWidth: 1000
Flags: W
LayerCount: 2
Fore
SplineSet
150 350 m 2,0,-1
 350 350 l 2,1,2
 360 350 360 350 367.5 342.5 c 128,-1,3
 375 335 375 335 375 325 c 128,-1,4
 375 315 375 315 367.5 307.5 c 128,-1,5
 360 300 360 300 350 300 c 2,6,-1
 150 300 l 2,7,8
 140 300 140 300 132.5 307.5 c 128,-1,9
 125 315 125 315 125 325 c 128,-1,10
 125 335 125 335 132.5 342.5 c 128,-1,11
 140 350 140 350 150 350 c 2,0,-1
150 150 m 2,12,-1
 350 150 l 2,13,14
 360 150 360 150 367.5 142.5 c 128,-1,15
 375 135 375 135 375 125 c 128,-1,16
 375 115 375 115 367.5 107.5 c 128,-1,17
 360 100 360 100 350 100 c 2,18,-1
 150 100 l 2,19,20
 140 100 140 100 132.5 107.5 c 128,-1,21
 125 115 125 115 125 125 c 128,-1,22
 125 135 125 135 132.5 142.5 c 128,-1,23
 140 150 140 150 150 150 c 2,12,-1
EndSplineSet
EndChar

StartChar: plus
Encoding: 43 43 74
Width: 500
VWidth: 1000
Flags: W
LayerCount: 2
Fore
SplineSet
250 450 m 0,0,1
 260.222168496 449.844607793 260.222168496 449.844607793 267.420654561 442.543889569 c 128,-1,2
 274.619140625 435.243171345 274.619140625 435.243171345 274.619140625 425 c 1,3,-1
 275 425 l 1,4,-1
 275 250 l 1,5,-1
 450 250 l 1,6,-1
 450 249.619140625 l 1,7,8
 460.243171345 249.619140625 460.243171345 249.619140625 467.543889569 242.420654561 c 128,-1,9
 474.844607793 235.222168496 474.844607793 235.222168496 475 225 c 0,10,11
 474.844607793 214.777831504 474.844607793 214.777831504 467.543889569 207.579345439 c 128,-1,12
 460.243171345 200.380859375 460.243171345 200.380859375 450 200.380859375 c 1,13,-1
 450 200 l 1,14,-1
 275 200 l 1,15,-1
 275 25 l 1,16,-1
 274.619140625 25 l 1,17,18
 274.619140625 14.7568286549 274.619140625 14.7568286549 267.420654561 7.45611043104 c 128,-1,19
 260.222168496 0.155392207167 260.222168496 0.155392207167 250 0 c 0,20,21
 239.777831504 0.155392207167 239.777831504 0.155392207167 232.579345439 7.45611043104 c 128,-1,22
 225.380859375 14.7568286549 225.380859375 14.7568286549 225.380859375 25 c 1,23,-1
 225 25 l 1,24,-1
 225 200 l 1,25,-1
 50 200 l 1,26,-1
 50 200.380859375 l 1,27,28
 39.7568286549 200.380859375 39.7568286549 200.380859375 32.456110431 207.579345439 c 128,-1,29
 25.1553922072 214.777831504 25.1553922072 214.777831504 25 225 c 0,30,31
 25.1553922072 235.222168496 25.1553922072 235.222168496 32.456110431 242.420654561 c 128,-1,32
 39.7568286549 249.619140625 39.7568286549 249.619140625 50 249.619140625 c 1,33,-1
 50 250 l 1,34,-1
 225 250 l 1,35,-1
 225 425 l 1,36,-1
 225.380859375 425 l 1,37,38
 225.380859375 435.243171345 225.380859375 435.243171345 232.579345439 442.543889569 c 128,-1,39
 239.777831504 449.844607793 239.777831504 449.844607793 250 450 c 0,0,1
EndSplineSet
EndChar

StartChar: question
Encoding: 63 63 75
Width: 500
VWidth: 1000
Flags: W
LayerCount: 2
Fore
SplineSet
250 450 m 128,-1,1
 260 450 260 450 267.5 442.5 c 128,-1,2
 275 435 275 435 275 425 c 128,-1,3
 275 415 275 415 267.5 407.5 c 128,-1,4
 260 400 260 400 250 400 c 128,-1,5
 240 400 240 400 232.5 407.5 c 128,-1,6
 225 415 225 415 225 425 c 128,-1,7
 225 435 225 435 232.5 442.5 c 128,-1,0
 240 450 240 450 250 450 c 128,-1,1
250 250 m 128,-1,9
 260 250 260 250 267.5 242.5 c 128,-1,10
 275 235 275 235 275 225 c 128,-1,11
 275 215 275 215 267.5 207.5 c 128,-1,12
 260 200 260 200 250 200 c 128,-1,13
 240 200 240 200 232.5 207.5 c 128,-1,14
 225 215 225 215 225 225 c 128,-1,15
 225 235 225 235 232.5 242.5 c 128,-1,8
 240 250 240 250 250 250 c 128,-1,9
250 50 m 128,-1,17
 260 50 260 50 267.5 42.5 c 128,-1,18
 275 35 275 35 275 25 c 128,-1,19
 275 15 275 15 267.5 7.5 c 128,-1,20
 260 0 260 0 250 0 c 128,-1,21
 240 0 240 0 232.5 7.5 c 128,-1,22
 225 15 225 15 225 25 c 128,-1,23
 225 35 225 35 232.5 42.5 c 128,-1,16
 240 50 240 50 250 50 c 128,-1,17
EndSplineSet
EndChar

StartChar: dollar
Encoding: 36 36 76
Width: 500
VWidth: 1000
Flags: W
LayerCount: 2
Fore
SplineSet
250 550 m 128,-1,1
 260 550 260 550 267.5 542.5 c 128,-1,2
 275 535 275 535 275 525 c 2,3,-1
 275 -75 l 2,4,5
 275 -85 275 -85 267.5 -92.5 c 128,-1,6
 260 -100 260 -100 250 -100 c 128,-1,7
 240 -100 240 -100 232.5 -92.5 c 128,-1,8
 225 -85 225 -85 225 -75 c 2,9,-1
 225 525 l 2,10,11
 225 535 225 535 232.5 542.5 c 128,-1,0
 240 550 240 550 250 550 c 128,-1,1
50 450 m 0,12,13
 46.708238605 450 46.708238605 450 43.5302734375 449.1484375 c 0,14,15
 37.0594857498 447.4149545 37.0594857498 447.4149545 32.322265625 442.677734375 c 0,16,17
 24.99609375 435.3515625 24.99609375 435.3515625 24.99609375 425.00390625 c 128,-1,18
 24.99609375 414.6484375 24.99609375 414.6484375 32.322265625 407.322265625 c 1,19,-1
 32.322265625 407.322265625 432.322265625 7.322265625 432.322265625 7.322265625 c 2,20,21
 439.6484375 -0.00390625 439.6484375 -0.00390625 449.99609375 -0.00390625 c 128,-1,22
 460.3515625 -0.00390625 460.3515625 -0.00390625 467.677734375 7.322265625 c 128,-1,23
 475.00390625 14.6484375 475.00390625 14.6484375 475.00390625 24.99609375 c 128,-1,24
 475.00390625 35.3515625 475.00390625 35.3515625 467.677734375 42.677734375 c 1,25,-1
 467.677734375 42.677734375 67.677734375 442.677734375 67.677734375 442.677734375 c 2,26,27
 60.35546875 450 60.35546875 450 50 450 c 1024,28,-1
50 450 m 2,29,-1
 450 450 l 2,30,31
 460 450 460 450 467.5 442.5 c 128,-1,32
 475 435 475 435 475 425 c 128,-1,33
 475 415 475 415 467.5 407.5 c 128,-1,34
 460 400 460 400 450 400 c 2,35,-1
 50 400 l 2,36,37
 40 400 40 400 32.5 407.5 c 128,-1,38
 25 415 25 415 25 425 c 128,-1,39
 25 435 25 435 32.5 442.5 c 128,-1,40
 40 450 40 450 50 450 c 2,29,-1
50 50 m 2,41,-1
 450 50 l 2,42,43
 460 50 460 50 467.5 42.5 c 128,-1,44
 475 35 475 35 475 25 c 128,-1,45
 475 15 475 15 467.5 7.5 c 128,-1,46
 460 0 460 0 450 0 c 2,47,-1
 50 0 l 2,48,49
 40 0 40 0 32.5 7.5 c 128,-1,50
 25 15 25 15 25 25 c 128,-1,51
 25 35 25 35 32.5 42.5 c 128,-1,52
 40 50 40 50 50 50 c 2,41,-1
EndSplineSet
EndChar

StartChar: zero
Encoding: 48 48 77
Width: 500
VWidth: 1000
Flags: W
LayerCount: 2
Fore
SplineSet
250 350 m 128,-1,1
 302 350 302 350 338.5 313.5 c 128,-1,2
 375 277 375 277 375 225 c 128,-1,3
 375 173 375 173 338.5 136.5 c 128,-1,4
 302 100 302 100 250 100 c 128,-1,5
 198 100 198 100 161.5 136.5 c 128,-1,6
 125 173 125 173 125 225 c 128,-1,7
 125 277 125 277 161.5 313.5 c 128,-1,0
 198 350 198 350 250 350 c 128,-1,1
250 300 m 128,-1,9
 219 300 219 300 197 278 c 128,-1,10
 175 256 175 256 175 225 c 128,-1,11
 175 194 175 194 197 172 c 128,-1,12
 219 150 219 150 250 150 c 128,-1,13
 281 150 281 150 303 172 c 128,-1,14
 325 194 325 194 325 225 c 128,-1,15
 325 256 325 256 303 278 c 128,-1,8
 281 300 281 300 250 300 c 128,-1,9
EndSplineSet
EndChar

StartChar: one
Encoding: 49 49 78
Width: 500
VWidth: 1000
Flags: W
LayerCount: 2
Fore
SplineSet
450 450 m 128,-1,1
 460 450 460 450 467.5 442.5 c 128,-1,2
 475 435 475 435 475 425 c 2,3,-1
 475 125 l 2,4,5
 475 73 475 73 438.5 36.5 c 128,-1,6
 402 0 402 0 350 0 c 2,7,-1
 50 0 l 2,8,9
 40 0 40 0 32.5 7.5 c 128,-1,10
 25 15 25 15 25 25 c 128,-1,11
 25 35 25 35 32.5 42.5 c 128,-1,12
 40 50 40 50 50 50 c 2,13,-1
 350 50 l 2,14,15
 381 50 381 50 403 72 c 128,-1,16
 425 94 425 94 425 125 c 2,17,-1
 425 425 l 2,18,19
 425 435 425 435 432.5 442.5 c 128,-1,0
 440 450 440 450 450 450 c 128,-1,1
250 350 m 128,-1,21
 302 350 302 350 338.5 313.5 c 128,-1,22
 375 277 375 277 375 225 c 128,-1,23
 375 173 375 173 338.5 136.5 c 128,-1,24
 302 100 302 100 250 100 c 128,-1,25
 198 100 198 100 161.5 136.5 c 128,-1,26
 125 173 125 173 125 225 c 128,-1,27
 125 277 125 277 161.5 313.5 c 128,-1,20
 198 350 198 350 250 350 c 128,-1,21
250 300 m 128,-1,29
 219 300 219 300 197 278 c 128,-1,30
 175 256 175 256 175 225 c 128,-1,31
 175 194 175 194 197 172 c 128,-1,32
 219 150 219 150 250 150 c 128,-1,33
 281 150 281 150 303 172 c 128,-1,34
 325 194 325 194 325 225 c 128,-1,35
 325 256 325 256 303 278 c 128,-1,28
 281 300 281 300 250 300 c 128,-1,29
EndSplineSet
EndChar

StartChar: percent
Encoding: 37 37 79
Width: 500
VWidth: 1000
Flags: W
LayerCount: 2
Fore
SplineSet
50 450 m 128,-1,1
 60 450 60 450 67.5 442.5 c 128,-1,2
 75 435 75 435 75 425 c 128,-1,3
 75 415 75 415 67.5 407.5 c 128,-1,4
 60 400 60 400 50 400 c 128,-1,5
 40 400 40 400 32.5 407.5 c 128,-1,6
 25 415 25 415 25 425 c 128,-1,7
 25 435 25 435 32.5 442.5 c 128,-1,0
 40 450 40 450 50 450 c 128,-1,1
450 450 m 0,8,9
 453.292737957 450 453.292737957 450 456.470703125 449.1484375 c 0,10,11
 462.940156905 447.415311845 462.940156905 447.415311845 467.677734375 442.677734375 c 0,12,13
 475.00390625 435.3515625 475.00390625 435.3515625 475.00390625 424.99609375 c 128,-1,14
 475.00390625 414.6484375 475.00390625 414.6484375 467.677734375 407.322265625 c 2,15,-1
 367.676215278 307.322265625 l 0,16,17
 267.674696181 207.322265625 267.674696181 207.322265625 167.674696181 107.322265625 c 128,-1,18
 67.6746961806 7.322265625 67.6746961806 7.322265625 67.677734375 7.322265625 c 1,19,20
 60.3515625 -0.00390625 60.3515625 -0.00390625 49.99609375 -0.00390625 c 128,-1,21
 39.6484375 -0.00390625 39.6484375 -0.00390625 32.322265625 7.322265625 c 128,-1,22
 24.99609375 14.6484375 24.99609375 14.6484375 24.99609375 25.00390625 c 128,-1,23
 24.99609375 35.3515625 24.99609375 35.3515625 32.322265625 42.677734375 c 2,24,-1
 432.322265625 442.677734375 l 1,25,26
 439.64453125 450 439.64453125 450 450 450 c 0,8,9
450 50 m 128,-1,28
 460 50 460 50 467.5 42.5 c 128,-1,29
 475 35 475 35 475 25 c 128,-1,30
 475 15 475 15 467.5 7.5 c 128,-1,31
 460 0 460 0 450 0 c 128,-1,32
 440 0 440 0 432.5 7.5 c 128,-1,33
 425 15 425 15 425 25 c 128,-1,34
 425 35 425 35 432.5 42.5 c 128,-1,27
 440 50 440 50 450 50 c 128,-1,28
EndSplineSet
EndChar

StartChar: comma
Encoding: 44 44 80
Width: 500
VWidth: 1000
Flags: W
LayerCount: 2
Fore
SplineSet
50 250 m 128,-1,1
 60 250 60 250 67.5 242.5 c 128,-1,2
 75 235 75 235 75 225 c 128,-1,3
 75 215 75 215 67.5 207.5 c 128,-1,4
 60 200 60 200 50 200 c 128,-1,5
 40 200 40 200 32.5 207.5 c 128,-1,6
 25 215 25 215 25 225 c 128,-1,7
 25 235 25 235 32.5 242.5 c 128,-1,0
 40 250 40 250 50 250 c 128,-1,1
250 250 m 128,-1,9
 260 250 260 250 267.5 242.5 c 128,-1,10
 275 235 275 235 275 225 c 128,-1,11
 275 215 275 215 267.5 207.5 c 128,-1,12
 260 200 260 200 250 200 c 128,-1,13
 240 200 240 200 232.5 207.5 c 128,-1,14
 225 215 225 215 225 225 c 128,-1,15
 225 235 225 235 232.5 242.5 c 128,-1,8
 240 250 240 250 250 250 c 128,-1,9
450 250 m 128,-1,17
 460 250 460 250 467.5 242.5 c 128,-1,18
 475 235 475 235 475 225 c 128,-1,19
 475 215 475 215 467.5 207.5 c 128,-1,20
 460 200 460 200 450 200 c 128,-1,21
 440 200 440 200 432.5 207.5 c 128,-1,22
 425 215 425 215 425 225 c 128,-1,23
 425 235 425 235 432.5 242.5 c 128,-1,16
 440 250 440 250 450 250 c 128,-1,17
EndSplineSet
EndChar

StartChar: exclam
Encoding: 33 33 81
Width: 500
VWidth: 1000
Flags: W
LayerCount: 2
Fore
SplineSet
250 450 m 128,-1,1
 260 450 260 450 267.5 442.5 c 128,-1,2
 275 435 275 435 275 425 c 128,-1,3
 275 415 275 415 267.5 407.5 c 128,-1,4
 260 400 260 400 250 400 c 128,-1,5
 240 400 240 400 232.5 407.5 c 128,-1,6
 225 415 225 415 225 425 c 128,-1,7
 225 435 225 435 232.5 442.5 c 128,-1,0
 240 450 240 450 250 450 c 128,-1,1
250 50 m 128,-1,9
 260 50 260 50 267.5 42.5 c 128,-1,10
 275 35 275 35 275 25 c 128,-1,11
 275 15 275 15 267.5 7.5 c 128,-1,12
 260 0 260 0 250 0 c 128,-1,13
 240 0 240 0 232.5 7.5 c 128,-1,14
 225 15 225 15 225 25 c 128,-1,15
 225 35 225 35 232.5 42.5 c 128,-1,8
 240 50 240 50 250 50 c 128,-1,9
EndSplineSet
EndChar

StartChar: five
Encoding: 53 53 82
Width: 500
VWidth: 1000
Flags: W
LayerCount: 2
Fore
SplineSet
150 450 m 2,0,-1
 350 450 l 2,1,2
 402 450 402 450 438.5 413.5 c 128,-1,3
 475 377 475 377 475 325 c 2,4,-1
 475 125 l 2,5,6
 475 73 475 73 438.5 36.5 c 128,-1,7
 402 0 402 0 350 0 c 2,8,-1
 150 0 l 2,9,10
 98 0 98 0 61.5 36.5 c 128,-1,11
 25 73 25 73 25 125 c 2,12,-1
 25 325 l 2,13,14
 25 377 25 377 61.5 413.5 c 128,-1,15
 98 450 98 450 150 450 c 2,0,-1
150 400 m 2,16,17
 119 400 119 400 97 378 c 128,-1,18
 75 356 75 356 75 325 c 2,19,-1
 75 125 l 2,20,21
 75 94 75 94 97 72 c 128,-1,22
 119 50 119 50 150 50 c 2,23,-1
 350 50 l 2,24,25
 381 50 381 50 403 72 c 128,-1,26
 425 94 425 94 425 125 c 2,27,-1
 425 325 l 2,28,29
 425 356 425 356 403 378 c 128,-1,30
 381 400 381 400 350 400 c 2,31,-1
 150 400 l 2,16,17
250 350 m 128,-1,33
 302 350 302 350 338.5 313.5 c 128,-1,34
 375 277 375 277 375 225 c 128,-1,35
 375 173 375 173 338.5 136.5 c 128,-1,36
 302 100 302 100 250 100 c 128,-1,37
 198 100 198 100 161.5 136.5 c 128,-1,38
 125 173 125 173 125 225 c 128,-1,39
 125 277 125 277 161.5 313.5 c 128,-1,32
 198 350 198 350 250 350 c 128,-1,33
250 300 m 128,-1,41
 219 300 219 300 197 278 c 128,-1,42
 175 256 175 256 175 225 c 128,-1,43
 175 194 175 194 197 172 c 128,-1,44
 219 150 219 150 250 150 c 128,-1,45
 281 150 281 150 303 172 c 128,-1,46
 325 194 325 194 325 225 c 128,-1,47
 325 256 325 256 303 278 c 128,-1,40
 281 300 281 300 250 300 c 128,-1,41
EndSplineSet
EndChar

StartChar: less
Encoding: 60 60 83
Width: 500
VWidth: 1000
Flags: W
LayerCount: 2
Fore
SplineSet
250 350 m 2,0,-1
 350 350 l 1,1,-1
 350 349.75 l 1,2,3
 360.279354983 349.75 360.279354983 349.75 367.588381392 342.507907513 c 128,-1,4
 374.897407802 335.265815027 374.897407802 335.265815027 375 325 c 0,5,6
 374.897407802 314.734184973 374.897407802 314.734184973 367.588381392 307.492092487 c 128,-1,7
 360.279354983 300.25 360.279354983 300.25 350 300.25 c 1,8,-1
 350 300 l 1,9,-1
 250 300 l 2,10,11
 219 300 219 300 197 278 c 128,-1,12
 175 256 175 256 175 225 c 128,-1,13
 175 194 175 194 197 172 c 128,-1,14
 219 150 219 150 250 150 c 2,15,-1
 350 150 l 1,16,-1
 350 149.75 l 1,17,18
 360.279354983 149.75 360.279354983 149.75 367.588381392 142.507907513 c 128,-1,19
 374.897407802 135.265815027 374.897407802 135.265815027 375 125 c 0,20,21
 374.897407802 114.734184973 374.897407802 114.734184973 367.588381392 107.492092487 c 128,-1,22
 360.279354983 100.25 360.279354983 100.25 350 100.25 c 1,23,-1
 350 100 l 1,24,-1
 250 100 l 2,25,26
 198 100 198 100 161.5 136.5 c 128,-1,27
 125 173 125 173 125 225 c 128,-1,28
 125 277 125 277 161.5 313.5 c 128,-1,29
 198 350 198 350 250 350 c 2,0,-1
EndSplineSet
EndChar

StartChar: semicolon
Encoding: 59 59 84
Width: 500
VWidth: 1000
Flags: W
LayerCount: 2
Fore
SplineSet
50 450 m 0,0,1
 46.708238605 450 46.708238605 450 43.5302734375 449.1484375 c 0,2,3
 37.0594857498 447.4149545 37.0594857498 447.4149545 32.322265625 442.677734375 c 0,4,5
 24.99609375 435.3515625 24.99609375 435.3515625 24.99609375 425.00390625 c 128,-1,6
 24.99609375 414.6484375 24.99609375 414.6484375 32.322265625 407.322265625 c 1,7,-1
 32.322265625 407.322265625 432.322265625 7.322265625 432.322265625 7.322265625 c 2,8,9
 439.6484375 -0.00390625 439.6484375 -0.00390625 449.99609375 -0.00390625 c 128,-1,10
 460.3515625 -0.00390625 460.3515625 -0.00390625 467.677734375 7.322265625 c 128,-1,11
 475.00390625 14.6484375 475.00390625 14.6484375 475.00390625 24.99609375 c 128,-1,12
 475.00390625 35.3515625 475.00390625 35.3515625 467.677734375 42.677734375 c 1,13,-1
 467.677734375 42.677734375 67.677734375 442.677734375 67.677734375 442.677734375 c 2,14,15
 60.35546875 450 60.35546875 450 50 450 c 1024,16,-1
50 250 m 128,-1,18
 60 250 60 250 67.5 242.5 c 128,-1,19
 75 235 75 235 75 225 c 128,-1,20
 75 215 75 215 67.5 207.5 c 128,-1,21
 60 200 60 200 50 200 c 128,-1,22
 40 200 40 200 32.5 207.5 c 128,-1,23
 25 215 25 215 25 225 c 128,-1,24
 25 235 25 235 32.5 242.5 c 128,-1,17
 40 250 40 250 50 250 c 128,-1,18
250 250 m 128,-1,26
 260 250 260 250 267.5 242.5 c 128,-1,27
 275 235 275 235 275 225 c 128,-1,28
 275 215 275 215 267.5 207.5 c 128,-1,29
 260 200 260 200 250 200 c 128,-1,30
 240 200 240 200 232.5 207.5 c 128,-1,31
 225 215 225 215 225 225 c 128,-1,32
 225 235 225 235 232.5 242.5 c 128,-1,25
 240 250 240 250 250 250 c 128,-1,26
450 250 m 128,-1,34
 460 250 460 250 467.5 242.5 c 128,-1,35
 475 235 475 235 475 225 c 128,-1,36
 475 215 475 215 467.5 207.5 c 128,-1,37
 460 200 460 200 450 200 c 128,-1,38
 440 200 440 200 432.5 207.5 c 128,-1,39
 425 215 425 215 425 225 c 128,-1,40
 425 235 425 235 432.5 242.5 c 128,-1,33
 440 250 440 250 450 250 c 128,-1,34
EndSplineSet
EndChar

StartChar: slash
Encoding: 47 47 85
Width: 500
VWidth: 1000
Flags: W
LayerCount: 2
Fore
SplineSet
450 450 m 0,0,1
 453.291761395 450 453.291761395 450 456.469726562 449.1484375 c 0,2,3
 462.94051425 447.4149545 462.94051425 447.4149545 467.677734375 442.677734375 c 0,4,5
 475.00390625 435.3515625 475.00390625 435.3515625 475.00390625 425.00390625 c 128,-1,6
 475.00390625 414.6484375 475.00390625 414.6484375 467.677734375 407.322265625 c 1,7,-1
 467.677734375 407.322265625 67.677734375 7.322265625 67.677734375 7.322265625 c 2,8,9
 60.3515625 -0.00390625 60.3515625 -0.00390625 50.00390625 -0.00390625 c 128,-1,10
 39.6484375 -0.00390625 39.6484375 -0.00390625 32.322265625 7.322265625 c 128,-1,11
 24.99609375 14.6484375 24.99609375 14.6484375 24.99609375 24.99609375 c 128,-1,12
 24.99609375 35.3515625 24.99609375 35.3515625 32.322265625 42.677734375 c 1,13,-1
 32.322265625 42.677734375 432.322265625 442.677734375 432.322265625 442.677734375 c 2,14,15
 439.64453125 450 439.64453125 450 450 450 c 1024,16,-1
EndSplineSet
EndChar

StartChar: four
Encoding: 52 52 86
Width: 500
VWidth: 1000
Flags: W
LayerCount: 2
Fore
SplineSet
350 450 m 2,0,1
 402 450 402 450 438.5 413.5 c 128,-1,2
 475 377 475 377 475 325 c 2,3,-1
 475 125 l 2,4,5
 475 73 475 73 438.5 36.5 c 128,-1,6
 402 0 402 0 350 0 c 2,7,-1
 50 0 l 2,8,9
 40 0 40 0 32.5 7.5 c 128,-1,10
 25 15 25 15 25 25 c 128,-1,11
 25 35 25 35 32.5 42.5 c 128,-1,12
 40 50 40 50 50 50 c 2,13,-1
 350 50 l 2,14,15
 381 50 381 50 403 72 c 128,-1,16
 425 94 425 94 425 125 c 2,17,-1
 425 325 l 2,18,19
 425 356 425 356 403 378 c 128,-1,20
 381 400 381 400 350 400 c 2,21,-1
 50 400 l 2,22,23
 40 400 40 400 32.5 407.5 c 128,-1,24
 25 415 25 415 25 425 c 128,-1,25
 25 435 25 435 32.5 442.5 c 128,-1,26
 40 450 40 450 50 450 c 2,27,-1
 350 450 l 2,0,1
250 350 m 128,-1,29
 302 350 302 350 338.5 313.5 c 128,-1,30
 375 277 375 277 375 225 c 128,-1,31
 375 173 375 173 338.5 136.5 c 128,-1,32
 302 100 302 100 250 100 c 128,-1,33
 198 100 198 100 161.5 136.5 c 128,-1,34
 125 173 125 173 125 225 c 128,-1,35
 125 277 125 277 161.5 313.5 c 128,-1,28
 198 350 198 350 250 350 c 128,-1,29
250 300 m 128,-1,37
 219 300 219 300 197 278 c 128,-1,38
 175 256 175 256 175 225 c 128,-1,39
 175 194 175 194 197 172 c 128,-1,40
 219 150 219 150 250 150 c 128,-1,41
 281 150 281 150 303 172 c 128,-1,42
 325 194 325 194 325 225 c 128,-1,43
 325 256 325 256 303 278 c 128,-1,36
 281 300 281 300 250 300 c 128,-1,37
EndSplineSet
EndChar

StartChar: six
Encoding: 54 54 87
Width: 500
VWidth: 1000
Flags: W
LayerCount: 2
Fore
SplineSet
150 450 m 2,0,-1
 450 450 l 2,1,2
 460 450 460 450 467.5 442.5 c 128,-1,3
 475 435 475 435 475 425 c 128,-1,4
 475 415 475 415 467.5 407.5 c 128,-1,5
 460 400 460 400 450 400 c 2,6,-1
 150 400 l 2,7,8
 119 400 119 400 97 378 c 128,-1,9
 75 356 75 356 75 325 c 2,10,-1
 75 125 l 2,11,12
 75 94 75 94 97 72 c 128,-1,13
 119 50 119 50 150 50 c 2,14,-1
 450 50 l 2,15,16
 460 50 460 50 467.5 42.5 c 128,-1,17
 475 35 475 35 475 25 c 128,-1,18
 475 15 475 15 467.5 7.5 c 128,-1,19
 460 0 460 0 450 0 c 2,20,-1
 150 0 l 2,21,22
 98 0 98 0 61.5 36.5 c 128,-1,23
 25 73 25 73 25 125 c 2,24,-1
 25 325 l 2,25,26
 25 377 25 377 61.5 413.5 c 128,-1,27
 98 450 98 450 150 450 c 2,0,-1
250 350 m 128,-1,29
 302 350 302 350 338.5 313.5 c 128,-1,30
 375 277 375 277 375 225 c 128,-1,31
 375 173 375 173 338.5 136.5 c 128,-1,32
 302 100 302 100 250 100 c 128,-1,33
 198 100 198 100 161.5 136.5 c 128,-1,34
 125 173 125 173 125 225 c 128,-1,35
 125 277 125 277 161.5 313.5 c 128,-1,28
 198 350 198 350 250 350 c 128,-1,29
250 300 m 128,-1,37
 219 300 219 300 197 278 c 128,-1,38
 175 256 175 256 175 225 c 128,-1,39
 175 194 175 194 197 172 c 128,-1,40
 219 150 219 150 250 150 c 128,-1,41
 281 150 281 150 303 172 c 128,-1,42
 325 194 325 194 325 225 c 128,-1,43
 325 256 325 256 303 278 c 128,-1,36
 281 300 281 300 250 300 c 128,-1,37
EndSplineSet
EndChar

StartChar: quotedbl
Encoding: 34 34 88
Width: 500
VWidth: 1000
Flags: W
LayerCount: 2
Fore
SplineSet
106.794921875 391.357421875 m 0,0,1
 107.730624112 391.424804688 107.730624112 391.424804688 108.58203125 391.424804688 c 0,2,3
 118.929082971 391.424804688 118.929082971 391.424804688 126.255859375 384.099609375 c 128,-1,4
 133.58203125 376.7734375 133.58203125 376.7734375 133.58203125 366.41796875 c 128,-1,5
 133.58203125 356.0703125 133.58203125 356.0703125 126.255859375 348.744140625 c 128,-1,6
 118.9296875 341.41796875 118.9296875 341.41796875 108.57421875 341.41796875 c 128,-1,7
 98.2265625 341.41796875 98.2265625 341.41796875 90.900390625 348.744140625 c 128,-1,8
 83.57421875 356.0703125 83.57421875 356.0703125 83.57421875 366.42578125 c 128,-1,9
 83.57421875 376.7734375 83.57421875 376.7734375 90.900390625 384.099609375 c 0,10,11
 97.4938401442 390.693058894 97.4938401442 390.693058894 106.794921875 391.357421875 c 0,0,1
389.638671875 391.357421875 m 0,12,13
 390.574374112 391.424804688 390.574374112 391.424804688 391.42578125 391.424804688 c 0,14,15
 401.772832971 391.424804688 401.772832971 391.424804688 409.099609375 384.099609375 c 128,-1,16
 416.42578125 376.7734375 416.42578125 376.7734375 416.42578125 366.41796875 c 128,-1,17
 416.42578125 356.0703125 416.42578125 356.0703125 409.099609375 348.744140625 c 128,-1,18
 401.7734375 341.41796875 401.7734375 341.41796875 391.41796875 341.41796875 c 128,-1,19
 381.0703125 341.41796875 381.0703125 341.41796875 373.744140625 348.744140625 c 128,-1,20
 366.41796875 356.0703125 366.41796875 356.0703125 366.41796875 366.42578125 c 128,-1,21
 366.41796875 376.7734375 366.41796875 376.7734375 373.744140625 384.099609375 c 0,22,23
 380.337590144 390.693058894 380.337590144 390.693058894 389.638671875 391.357421875 c 0,12,13
EndSplineSet
EndChar

StartChar: hyphen
Encoding: 45 45 89
Width: 500
VWidth: 1000
Flags: W
LayerCount: 2
Fore
SplineSet
50 250 m 1,0,-1
 450 250 l 1,1,-1
 450 249.620117188 l 1,2,3
 460.243811485 249.620117188 460.243811485 249.620117188 467.544208938 242.421555454 c 128,-1,4
 474.844606391 235.22299372 474.844606391 235.22299372 475 225 c 0,5,6
 474.844606391 214.77700628 474.844606391 214.77700628 467.544208938 207.578444546 c 128,-1,7
 460.243811485 200.379882812 460.243811485 200.379882812 450 200.379882812 c 1,8,-1
 450 200 l 1,9,-1
 50 200 l 1,10,-1
 50 200.379882812 l 1,11,12
 39.7561885147 200.379882812 39.7561885147 200.379882812 32.455791062 207.578444546 c 128,-1,13
 25.1553936093 214.77700628 25.1553936093 214.77700628 25 225 c 0,14,15
 25.1553936093 235.22299372 25.1553936093 235.22299372 32.455791062 242.421555454 c 128,-1,16
 39.7561885147 249.620117188 39.7561885147 249.620117188 50 249.620117188 c 1,17,-1
 50 250 l 1,0,-1
EndSplineSet
EndChar

StartChar: period
Encoding: 46 46 90
Width: 500
VWidth: 1000
Flags: W
LayerCount: 2
Fore
SplineSet
250 450 m 128,-1,1
 260 450 260 450 267.5 442.5 c 128,-1,2
 275 435 275 435 275 425 c 128,-1,3
 275 415 275 415 267.5 407.5 c 128,-1,4
 260 400 260 400 250 400 c 128,-1,5
 240 400 240 400 232.5 407.5 c 128,-1,6
 225 415 225 415 225 425 c 128,-1,7
 225 435 225 435 232.5 442.5 c 128,-1,0
 240 450 240 450 250 450 c 128,-1,1
50 250 m 128,-1,9
 60 250 60 250 67.5 242.5 c 128,-1,10
 75 235 75 235 75 225 c 128,-1,11
 75 215 75 215 67.5 207.5 c 128,-1,12
 60 200 60 200 50 200 c 128,-1,13
 40 200 40 200 32.5 207.5 c 128,-1,14
 25 215 25 215 25 225 c 128,-1,15
 25 235 25 235 32.5 242.5 c 128,-1,8
 40 250 40 250 50 250 c 128,-1,9
250 250 m 0,16,17
 260 250 260 250 267.5 242.5 c 128,-1,18
 275 235 275 235 275 225 c 128,-1,19
 275 215 275 215 267.5 207.5 c 128,-1,20
 260 200 260 200 250 200 c 128,-1,21
 240 200 240 200 232.5 207.5 c 128,-1,22
 225 215 225 215 225 225 c 0,23,24
 225 228.961427592 225 228.961427592 226.22265625 232.724609375 c 0,25,26
 231.835811719 250 231.835811719 250 250 250 c 0,16,17
450 250 m 128,-1,28
 460 250 460 250 467.5 242.5 c 128,-1,29
 475 235 475 235 475 225 c 128,-1,30
 475 215 475 215 467.5 207.5 c 128,-1,31
 460 200 460 200 450 200 c 128,-1,32
 440 200 440 200 432.5 207.5 c 128,-1,33
 425 215 425 215 425 225 c 128,-1,34
 425 235 425 235 432.5 242.5 c 128,-1,27
 440 250 440 250 450 250 c 128,-1,28
250 50 m 128,-1,36
 260 50 260 50 267.5 42.5 c 128,-1,37
 275 35 275 35 275 25 c 128,-1,38
 275 15 275 15 267.5 7.5 c 128,-1,39
 260 0 260 0 250 0 c 128,-1,40
 240 0 240 0 232.5 7.5 c 128,-1,41
 225 15 225 15 225 25 c 128,-1,42
 225 35 225 35 232.5 42.5 c 128,-1,35
 240 50 240 50 250 50 c 128,-1,36
EndSplineSet
EndChar

StartChar: colon
Encoding: 58 58 91
Width: 500
VWidth: 1000
Flags: W
LayerCount: 2
Fore
SplineSet
50 450 m 0,0,1
 46.708238605 450 46.708238605 450 43.5302734375 449.1484375 c 0,2,3
 37.0594857498 447.4149545 37.0594857498 447.4149545 32.322265625 442.677734375 c 0,4,5
 24.99609375 435.3515625 24.99609375 435.3515625 24.99609375 425.00390625 c 128,-1,6
 24.99609375 414.6484375 24.99609375 414.6484375 32.322265625 407.322265625 c 1,7,-1
 32.322265625 407.322265625 432.322265625 7.322265625 432.322265625 7.322265625 c 2,8,9
 439.6484375 -0.00390625 439.6484375 -0.00390625 449.99609375 -0.00390625 c 128,-1,10
 460.3515625 -0.00390625 460.3515625 -0.00390625 467.677734375 7.322265625 c 128,-1,11
 475.00390625 14.6484375 475.00390625 14.6484375 475.00390625 24.99609375 c 128,-1,12
 475.00390625 35.3515625 475.00390625 35.3515625 467.677734375 42.677734375 c 1,13,-1
 467.677734375 42.677734375 67.677734375 442.677734375 67.677734375 442.677734375 c 2,14,15
 60.35546875 450 60.35546875 450 50 450 c 1024,16,-1
250 450 m 128,-1,18
 260 450 260 450 267.5 442.5 c 128,-1,19
 275 435 275 435 275 425 c 128,-1,20
 275 415 275 415 267.5 407.5 c 128,-1,21
 260 400 260 400 250 400 c 128,-1,22
 240 400 240 400 232.5 407.5 c 128,-1,23
 225 415 225 415 225 425 c 128,-1,24
 225 435 225 435 232.5 442.5 c 128,-1,17
 240 450 240 450 250 450 c 128,-1,18
50 250 m 128,-1,26
 60 250 60 250 67.5 242.5 c 128,-1,27
 75 235 75 235 75 225 c 128,-1,28
 75 215 75 215 67.5 207.5 c 128,-1,29
 60 200 60 200 50 200 c 128,-1,30
 40 200 40 200 32.5 207.5 c 128,-1,31
 25 215 25 215 25 225 c 128,-1,32
 25 235 25 235 32.5 242.5 c 128,-1,25
 40 250 40 250 50 250 c 128,-1,26
250 250 m 0,33,34
 260 250 260 250 267.5 242.5 c 128,-1,35
 275 235 275 235 275 225 c 128,-1,36
 275 215 275 215 267.5 207.5 c 128,-1,37
 260 200 260 200 250 200 c 128,-1,38
 240 200 240 200 232.5 207.5 c 128,-1,39
 225 215 225 215 225 225 c 0,40,41
 225 228.961427592 225 228.961427592 226.22265625 232.724609375 c 0,42,43
 231.835811719 250 231.835811719 250 250 250 c 0,33,34
450 250 m 128,-1,45
 460 250 460 250 467.5 242.5 c 128,-1,46
 475 235 475 235 475 225 c 128,-1,47
 475 215 475 215 467.5 207.5 c 128,-1,48
 460 200 460 200 450 200 c 128,-1,49
 440 200 440 200 432.5 207.5 c 128,-1,50
 425 215 425 215 425 225 c 128,-1,51
 425 235 425 235 432.5 242.5 c 128,-1,44
 440 250 440 250 450 250 c 128,-1,45
250 50 m 128,-1,53
 260 50 260 50 267.5 42.5 c 128,-1,54
 275 35 275 35 275 25 c 128,-1,55
 275 15 275 15 267.5 7.5 c 128,-1,56
 260 0 260 0 250 0 c 128,-1,57
 240 0 240 0 232.5 7.5 c 128,-1,58
 225 15 225 15 225 25 c 128,-1,59
 225 35 225 35 232.5 42.5 c 128,-1,52
 240 50 240 50 250 50 c 128,-1,53
EndSplineSet
EndChar

StartChar: numbersign
Encoding: 35 35 92
Width: 500
VWidth: 1000
Flags: W
LayerCount: 2
Fore
SplineSet
250 550 m 128,-1,1
 260 550 260 550 267.5 542.5 c 128,-1,2
 275 535 275 535 275 525 c 2,3,-1
 275 -75 l 2,4,5
 275 -85 275 -85 267.5 -92.5 c 128,-1,6
 260 -100 260 -100 250 -100 c 128,-1,7
 240 -100 240 -100 232.5 -92.5 c 128,-1,8
 225 -85 225 -85 225 -75 c 2,9,-1
 225 525 l 2,10,11
 225 535 225 535 232.5 542.5 c 128,-1,0
 240 550 240 550 250 550 c 128,-1,1
150 450 m 2,12,-1
 450 450 l 2,13,14
 460 450 460 450 467.5 442.5 c 128,-1,15
 475 435 475 435 475 425 c 128,-1,16
 475 415 475 415 467.5 407.5 c 128,-1,17
 460 400 460 400 450 400 c 2,18,-1
 150 400 l 2,19,20
 119 400 119 400 97 378 c 128,-1,21
 75 356 75 356 75 325 c 2,22,-1
 75 125 l 2,23,24
 75 94 75 94 97 72 c 128,-1,25
 119 50 119 50 150 50 c 2,26,-1
 450 50 l 2,27,28
 460 50 460 50 467.5 42.5 c 128,-1,29
 475 35 475 35 475 25 c 128,-1,30
 475 15 475 15 467.5 7.5 c 128,-1,31
 460 0 460 0 450 0 c 2,32,-1
 150 0 l 2,33,34
 98 0 98 0 61.5 36.5 c 128,-1,35
 25 73 25 73 25 125 c 2,36,-1
 25 325 l 2,37,38
 25 377 25 377 61.5 413.5 c 128,-1,39
 98 450 98 450 150 450 c 2,12,-1
50 450 m 0,40,41
 46.708238605 450 46.708238605 450 43.5302734375 449.1484375 c 0,42,43
 37.0594857498 447.4149545 37.0594857498 447.4149545 32.322265625 442.677734375 c 0,44,45
 24.99609375 435.3515625 24.99609375 435.3515625 24.99609375 425.00390625 c 128,-1,46
 24.99609375 414.6484375 24.99609375 414.6484375 32.322265625 407.322265625 c 1,47,-1
 32.322265625 407.322265625 432.322265625 7.322265625 432.322265625 7.322265625 c 2,48,49
 439.6484375 -0.00390625 439.6484375 -0.00390625 449.99609375 -0.00390625 c 128,-1,50
 460.3515625 -0.00390625 460.3515625 -0.00390625 467.677734375 7.322265625 c 128,-1,51
 475.00390625 14.6484375 475.00390625 14.6484375 475.00390625 24.99609375 c 128,-1,52
 475.00390625 35.3515625 475.00390625 35.3515625 467.677734375 42.677734375 c 1,53,-1
 467.677734375 42.677734375 67.677734375 442.677734375 67.677734375 442.677734375 c 2,54,55
 60.35546875 450 60.35546875 450 50 450 c 1024,56,-1
EndSplineSet
EndChar

StartChar: seven
Encoding: 55 55 93
Width: 500
VWidth: 1000
Flags: W
LayerCount: 2
Fore
SplineSet
450 0 m 128,-1,1
 440 0 440 0 432.5 7.5 c 128,-1,2
 425 15 425 15 425 25 c 2,3,-1
 425 325 l 2,4,5
 425 356 425 356 403 378 c 128,-1,6
 381 400 381 400 350 400 c 2,7,-1
 50 400 l 2,8,9
 40 400 40 400 32.5 407.5 c 128,-1,10
 25 415 25 415 25 425 c 128,-1,11
 25 435 25 435 32.5 442.5 c 128,-1,12
 40 450 40 450 50 450 c 2,13,-1
 350 450 l 2,14,15
 402 450 402 450 438.5 413.5 c 128,-1,16
 475 377 475 377 475 325 c 2,17,-1
 475 25 l 2,18,19
 475 15 475 15 467.5 7.5 c 128,-1,0
 460 0 460 0 450 0 c 128,-1,1
250 350 m 128,-1,21
 302 350 302 350 338.5 313.5 c 128,-1,22
 375 277 375 277 375 225 c 128,-1,23
 375 173 375 173 338.5 136.5 c 128,-1,24
 302 100 302 100 250 100 c 128,-1,25
 198 100 198 100 161.5 136.5 c 128,-1,26
 125 173 125 173 125 225 c 128,-1,27
 125 277 125 277 161.5 313.5 c 128,-1,20
 198 350 198 350 250 350 c 128,-1,21
250 300 m 128,-1,29
 219 300 219 300 197 278 c 128,-1,30
 175 256 175 256 175 225 c 128,-1,31
 175 194 175 194 197 172 c 128,-1,32
 219 150 219 150 250 150 c 128,-1,33
 281 150 281 150 303 172 c 128,-1,34
 325 194 325 194 325 225 c 128,-1,35
 325 256 325 256 303 278 c 128,-1,28
 281 300 281 300 250 300 c 128,-1,29
EndSplineSet
EndChar

StartChar: uni0042.isol
Encoding: 256 -1 95
Width: 500
Flags: W
LayerCount: 2
Fore
SplineSet
150 450 m 2,0,-1
 450 450 l 2,1,2
 460 450 460 450 467.5 442.5 c 128,-1,3
 475 435 475 435 475 425 c 128,-1,4
 475 415 475 415 467.5 407.5 c 128,-1,5
 460 400 460 400 450 400 c 2,6,-1
 150 400 l 2,7,8
 119 400 119 400 97 378 c 128,-1,9
 75 356 75 356 75 325 c 2,10,-1
 75 125 l 2,11,12
 75 94 75 94 97 72 c 128,-1,13
 119 50 119 50 150 50 c 2,14,-1
 450 50 l 2,15,16
 460 50 460 50 467.5 42.5 c 128,-1,17
 475 35 475 35 475 25 c 128,-1,18
 475 15 475 15 467.5 7.5 c 128,-1,19
 460 0 460 0 450 0 c 2,20,-1
 150 0 l 2,21,22
 98 0 98 0 61.5 36.5 c 128,-1,23
 25 73 25 73 25 125 c 2,24,-1
 25 325 l 2,25,26
 25 377 25 377 61.5 413.5 c 128,-1,27
 98 450 98 450 150 450 c 2,0,-1
50 450 m 0,28,29
 46.708238605 450 46.708238605 450 43.5302734375 449.1484375 c 0,30,31
 37.0594857498 447.4149545 37.0594857498 447.4149545 32.322265625 442.677734375 c 0,32,33
 24.99609375 435.3515625 24.99609375 435.3515625 24.99609375 425.00390625 c 128,-1,34
 24.99609375 414.6484375 24.99609375 414.6484375 32.322265625 407.322265625 c 1,35,-1
 32.322265625 407.322265625 432.322265625 7.322265625 432.322265625 7.322265625 c 2,36,37
 439.6484375 -0.00390625 439.6484375 -0.00390625 449.99609375 -0.00390625 c 128,-1,38
 460.3515625 -0.00390625 460.3515625 -0.00390625 467.677734375 7.322265625 c 128,-1,39
 475.00390625 14.6484375 475.00390625 14.6484375 475.00390625 24.99609375 c 128,-1,40
 475.00390625 35.3515625 475.00390625 35.3515625 467.677734375 42.677734375 c 1,41,-1
 467.677734375 42.677734375 67.677734375 442.677734375 67.677734375 442.677734375 c 2,42,43
 60.35546875 450 60.35546875 450 50 450 c 1024,44,-1
EndSplineSet
EndChar

StartChar: uni0042.init
Encoding: 257 -1 96
Width: 500
Flags: W
LayerCount: 2
Fore
SplineSet
150 450 m 2,0,-1
 450 450 l 2,1,2
 460 450 460 450 467.5 442.5 c 128,-1,3
 475 435 475 435 475 425 c 128,-1,4
 475 415 475 415 467.5 407.5 c 128,-1,5
 460 400 460 400 450 400 c 2,6,-1
 150 400 l 2,7,8
 119 400 119 400 97 378 c 128,-1,9
 75 356 75 356 75 325 c 2,10,-1
 75 125 l 1,11,-1
 75 124.99609375 l 0,12,13
 75.0244022625 120.478804326 75.0244022625 120.478804326 75.591796875 115.98828125 c 0,14,15
 75.6514302072 115.491336815 75.6514302072 115.491336815 75.8111441469 114.510746069 c 0,16,17
 75.8946938606 113.99777847 75.8946938606 113.99777847 75.93359375 113.740234375 c 0,18,19
 76.4578523394 110.258806862 76.4578523394 110.258806862 77.310546875 106.82421875 c 0,20,21
 77.7055019129 105.240034455 77.7055019129 105.240034455 77.85546875 104.705078125 c 0,22,23
 79.0186092187 100.485756702 79.0186092187 100.485756702 80.666015625 96.4296875 c 0,24,-1
 80.724609375 96.26953125 l 0,25,26
 82.4943837192 92.0525710066 82.4943837192 92.0525710066 84.759765625 88.0859375 c 0,27,28
 84.9518290338 87.7471032475 84.9518290338 87.7471032475 85.3350360634 87.1273122002 c 128,-1,29
 85.7182430931 86.507521153 85.7182430931 86.507521153 85.791015625 86.38671875 c 0,30,31
 87.6195770804 83.3532685214 87.6195770804 83.3532685214 89.7109375 80.5234375 c 0,32,33
 90.8528702152 78.9772180471 90.8528702152 78.9772180471 91.13671875 78.6171875 c 0,34,35
 93.8600866185 75.1142574005 93.8600866185 75.1142574005 96.96875 71.96484375 c 128,-1,36
 100.121070385 68.8548461846 100.121070385 68.8548461846 103.607421875 66.14453125 c 0,37,38
 104.000241488 65.8342826838 104.000241488 65.8342826838 105.541015625 64.697265625 c 0,39,40
 108.379924888 62.6014955692 108.379924888 62.6014955692 111.38671875 60.791015625 c 0,41,42
 111.510004565 60.7167903744 111.510004565 60.7167903744 112.130031319 60.3335644959 c 128,-1,43
 112.750058073 59.9503386173 112.750058073 59.9503386173 113.08984375 59.7578125 c 0,44,45
 117.061890261 57.4893391762 117.061890261 57.4893391762 121.271484375 55.72265625 c 0,46,-1
 121.431640625 55.6640625 l 0,47,48
 125.484126291 54.0195970925 125.484126291 54.0195970925 129.70703125 52.85546875 c 0,49,50
 130.314379409 52.6849408436 130.314379409 52.6849408436 131.84375 52.3046875 c 0,51,52
 135.247297544 51.4616069156 135.247297544 51.4616069156 138.703125 50.94140625 c 0,53,54
 138.812130832 50.9249447093 138.812130832 50.9249447093 139.681569318 50.7839098405 c 128,-1,55
 140.551007804 50.6428749716 140.551007804 50.6428749716 141.01171875 50.587890625 c 0,56,57
 145.495833509 50.0229511668 145.495833509 50.0229511668 150 50 c 2,58,-1
 350 50 l 2,59,60
 381 50 381 50 403 72 c 128,-1,61
 425 94 425 94 425 125 c 128,-1,62
 425 156 425 156 403 178 c 128,-1,63
 381 200 381 200 350 200 c 0,64,65
 340 200 340 200 332.5 207.5 c 128,-1,66
 325 215 325 215 325 225 c 128,-1,67
 325 235 325 235 332.5 242.5 c 128,-1,68
 340 250 340 250 350 250 c 2,69,-1
 500 250 l 2,70,71
 510 250 510 250 517.5 242.5 c 128,-1,72
 525 235 525 235 525 225 c 128,-1,73
 525 215 525 215 517.5 207.5 c 128,-1,74
 510 200 510 200 500 200 c 2,75,-1
 450 200 l 1,76,77
 475 167 475 167 475 125 c 0,78,79
 475 73 475 73 438.5 36.5 c 128,-1,80
 402 0 402 0 350 0 c 2,81,-1
 150 0 l 2,82,83
 143.236123388 0 143.236123388 0 135.044921875 0.978515625 c 0,84,85
 133.128343296 1.23933442252 133.128343296 1.23933442252 131.21875 1.560546875 c 0,86,87
 125.341029918 2.44895321588 125.341029918 2.44895321588 119.796875 3.828125 c 0,88,89
 117.999213261 4.26086797424 117.999213261 4.26086797424 116.234375 4.7421875 c 0,90,91
 108.655169239 6.86588316819 108.655169239 6.86588316819 102.51953125 9.388671875 c 0,92,-1
 102.19921875 9.505859375 l 0,93,94
 95.562038202 12.2564150861 95.562038202 12.2564150861 88.58203125 16.205078125 c 0,95,96
 87.1448924955 17.0509794852 87.1448924955 17.0509794852 85.779296875 17.904296875 c 0,97,98
 80.7233528619 20.9434369955 80.7233528619 20.9434369955 76.0078125 24.41796875 c 0,99,100
 74.3770238267 25.5929012568 74.3770238267 25.5929012568 72.8125 26.798828125 c 0,101,102
 66.3664936025 31.8724063249 66.3664936025 31.8724063249 61.748046875 36.4765625 c 0,103,104
 61.611328125 36.6118164062 61.611328125 36.6118164062 61.4765625 36.748046875 c 0,105,106
 56.8724063249 41.3664936025 56.8724063249 41.3664936025 51.798828125 47.8125 c 0,107,108
 50.5929012568 49.3770238267 50.5929012568 49.3770238267 49.41796875 51.0078125 c 0,109,110
 45.9434369955 55.7233528619 45.9434369955 55.7233528619 42.904296875 60.779296875 c 0,111,112
 42.0509794852 62.1448924955 42.0509794852 62.1448924955 41.205078125 63.58203125 c 0,113,114
 37.2564150861 70.562038202 37.2564150861 70.562038202 34.505859375 77.19921875 c 0,115,-1
 34.388671875 77.51953125 l 0,116,117
 31.8658831682 83.6551692385 31.8658831682 83.6551692385 29.7421875 91.234375 c 0,118,119
 29.2608679742 92.9992132611 29.2608679742 92.9992132611 28.828125 94.796875 c 0,120,121
 27.4489532159 100.341029918 27.4489532159 100.341029918 26.560546875 106.21875 c 0,122,123
 26.2393344225 108.128343296 26.2393344225 108.128343296 25.978515625 110.044921875 c 0,124,125
 25 118.236123388 25 118.236123388 25 125 c 2,126,-1
 25 325 l 2,127,128
 25 377 25 377 61.5 413.5 c 128,-1,129
 98 450 98 450 150 450 c 2,0,-1
50 450 m 0,130,131
 46.708238605 450 46.708238605 450 43.5302734375 449.1484375 c 0,132,133
 37.0594857498 447.4149545 37.0594857498 447.4149545 32.322265625 442.677734375 c 0,134,135
 24.99609375 435.3515625 24.99609375 435.3515625 24.99609375 425.00390625 c 128,-1,136
 24.99609375 414.6484375 24.99609375 414.6484375 32.322265625 407.322265625 c 1,137,-1
 32.322265625 407.322265625 432.322265625 7.322265625 432.322265625 7.322265625 c 2,138,139
 439.6484375 -0.00390625 439.6484375 -0.00390625 449.99609375 -0.00390625 c 128,-1,140
 460.3515625 -0.00390625 460.3515625 -0.00390625 467.677734375 7.322265625 c 128,-1,141
 475.00390625 14.6484375 475.00390625 14.6484375 475.00390625 24.99609375 c 128,-1,142
 475.00390625 35.3515625 475.00390625 35.3515625 467.677734375 42.677734375 c 1,143,-1
 467.677734375 42.677734375 67.677734375 442.677734375 67.677734375 442.677734375 c 2,144,145
 60.35546875 450 60.35546875 450 50 450 c 1024,146,-1
EndSplineSet
EndChar

StartChar: uni0042.medi
Encoding: 258 -1 97
Width: 500
Flags: W
LayerCount: 2
Fore
SplineSet
150 450 m 2,0,-1
 200 450 l 0,1,2
 250 450 250 450 300 450 c 0,3,-1
 350 450 l 1,4,5
 402.466706132 450 402.466706132 450 439.216796875 412.55078125 c 0,6,7
 445.023946043 406.632797492 445.023946043 406.632797492 450 400 c 0,8,9
 475 367 475 367 475 325 c 0,10,11
 474.963773791 283.319573317 474.963773791 283.319573317 449.91796875 250 c 1,12,-1
 500 250 l 2,13,14
 510 250 510 250 517.5 242.5 c 128,-1,15
 525 235 525 235 525 225 c 128,-1,16
 525 215 525 215 517.5 207.5 c 128,-1,17
 510 200 510 200 500 200 c 2,18,-1
 449.91796875 200 l 1,19,20
 474.963773791 166.680426683 474.963773791 166.680426683 475 125 c 0,21,22
 475 83 475 83 450 50 c 0,23,24
 418.518058555 8.02616259032 418.518058555 8.02616259032 366.509765625 1.095703125 c 0,25,26
 358.289780135 0 358.289780135 0 350 0 c 2,27,-1
 150 0 l 2,28,29
 98 0 98 0 61.5 36.5 c 128,-1,30
 25 73 25 73 25 125 c 2,31,-1
 25 200 l 1,32,-1
 0 200 l 2,33,34
 -10 200 -10 200 -17.5 207.5 c 128,-1,35
 -25 215 -25 215 -25 225 c 128,-1,36
 -25 235 -25 235 -17.5 242.5 c 128,-1,37
 -10 250 -10 250 0 250 c 2,38,-1
 25 250 l 1,39,-1
 25 325 l 2,40,41
 25 377 25 377 61.5 413.5 c 128,-1,42
 98 450 98 450 150 450 c 2,0,-1
150 400 m 2,43,44
 120.835615645 400 120.835615645 400 99.349609375 380.314453125 c 1,45,-1
 99.349609375 380.3125 l 1,46,47
 78.4457168389 361.160861563 78.4457168389 361.160861563 75.431640625 333.1015625 c 0,48,49
 75 329.08715737 75 329.08715737 75 325 c 2,50,-1
 75 250 l 1,51,-1
 350 250 l 2,52,53
 381 250 381 250 403 272 c 128,-1,54
 425 294 425 294 425 325 c 128,-1,55
 425 356 425 356 403 378 c 128,-1,56
 381 400 381 400 350 400 c 2,57,-1
 150 400 l 2,43,44
75 200 m 1,58,-1
 75 125 l 2,59,60
 75 94 75 94 97 72 c 128,-1,61
 119 50 119 50 150 50 c 2,62,-1
 350 50 l 2,63,64
 381 50 381 50 403 72 c 128,-1,65
 425 94 425 94 425 125 c 128,-1,66
 425 156 425 156 403 178 c 128,-1,67
 381 200 381 200 350 200 c 2,68,-1
 75 200 l 1,58,-1
50 450 m 0,69,70
 46.708238605 450 46.708238605 450 43.5302734375 449.1484375 c 0,71,72
 37.0594857498 447.4149545 37.0594857498 447.4149545 32.322265625 442.677734375 c 0,73,74
 24.99609375 435.3515625 24.99609375 435.3515625 24.99609375 425.00390625 c 128,-1,75
 24.99609375 414.6484375 24.99609375 414.6484375 32.322265625 407.322265625 c 1,76,-1
 32.322265625 407.322265625 432.322265625 7.322265625 432.322265625 7.322265625 c 2,77,78
 439.6484375 -0.00390625 439.6484375 -0.00390625 449.99609375 -0.00390625 c 128,-1,79
 460.3515625 -0.00390625 460.3515625 -0.00390625 467.677734375 7.322265625 c 128,-1,80
 475.00390625 14.6484375 475.00390625 14.6484375 475.00390625 24.99609375 c 128,-1,81
 475.00390625 35.3515625 475.00390625 35.3515625 467.677734375 42.677734375 c 1,82,-1
 467.677734375 42.677734375 67.677734375 442.677734375 67.677734375 442.677734375 c 2,83,84
 60.35546875 450 60.35546875 450 50 450 c 1024,85,-1
EndSplineSet
EndChar

StartChar: uni0042.fina
Encoding: 259 -1 98
Width: 500
Flags: W
LayerCount: 2
Fore
SplineSet
150 450 m 2,0,-1
 350 450 l 2,1,2
 402 450 402 450 438.5 413.5 c 128,-1,3
 475 377 475 377 475 325 c 128,-1,4
 475 273 475 273 438.5 236.5 c 128,-1,5
 402 200 402 200 350 200 c 2,6,-1
 75 200 l 1,7,-1
 75 125 l 2,8,9
 75 94 75 94 97 72 c 128,-1,10
 119 50 119 50 150 50 c 2,11,-1
 450 50 l 2,12,13
 460 50 460 50 467.5 42.5 c 128,-1,14
 475 35 475 35 475 25 c 128,-1,15
 475 15 475 15 467.5 7.5 c 128,-1,16
 460 0 460 0 450 0 c 2,17,-1
 150 0 l 2,18,19
 98 0 98 0 61.5 36.5 c 128,-1,20
 25 73 25 73 25 125 c 2,21,-1
 25 200 l 1,22,-1
 0 200 l 2,23,24
 -10 200 -10 200 -17.5 207.5 c 128,-1,25
 -25 215 -25 215 -25 225 c 128,-1,26
 -25 235 -25 235 -17.5 242.5 c 128,-1,27
 -10 250 -10 250 0 250 c 2,28,-1
 25 250 l 1,29,-1
 25 325 l 2,30,31
 25 377 25 377 61.5 413.5 c 128,-1,32
 98 450 98 450 150 450 c 2,0,-1
150 400 m 2,33,34
 119 400 119 400 97 378 c 128,-1,35
 75 356 75 356 75 325 c 2,36,-1
 75 250 l 1,37,-1
 350 250 l 2,38,39
 381 250 381 250 403 272 c 128,-1,40
 425 294 425 294 425 325 c 128,-1,41
 425 356 425 356 403 378 c 128,-1,42
 381 400 381 400 350 400 c 2,43,-1
 150 400 l 2,33,34
50 450 m 0,44,45
 46.708238605 450 46.708238605 450 43.5302734375 449.1484375 c 0,46,47
 37.0594857498 447.4149545 37.0594857498 447.4149545 32.322265625 442.677734375 c 0,48,49
 24.99609375 435.3515625 24.99609375 435.3515625 24.99609375 425.00390625 c 128,-1,50
 24.99609375 414.6484375 24.99609375 414.6484375 32.322265625 407.322265625 c 1,51,-1
 32.322265625 407.322265625 432.322265625 7.322265625 432.322265625 7.322265625 c 2,52,53
 439.6484375 -0.00390625 439.6484375 -0.00390625 449.99609375 -0.00390625 c 128,-1,54
 460.3515625 -0.00390625 460.3515625 -0.00390625 467.677734375 7.322265625 c 128,-1,55
 475.00390625 14.6484375 475.00390625 14.6484375 475.00390625 24.99609375 c 128,-1,56
 475.00390625 35.3515625 475.00390625 35.3515625 467.677734375 42.677734375 c 1,57,-1
 467.677734375 42.677734375 67.677734375 442.677734375 67.677734375 442.677734375 c 2,58,59
 60.35546875 450 60.35546875 450 50 450 c 1024,60,-1
EndSplineSet
EndChar

StartChar: uni0043.isol
Encoding: 260 -1 99
Width: 500
Flags: W
LayerCount: 2
Fore
SplineSet
350 450 m 2,0,1
 402 450 402 450 438.5 413.5 c 128,-1,2
 475 377 475 377 475 325 c 2,3,-1
 475 125 l 2,4,5
 475 73 475 73 438.5 36.5 c 128,-1,6
 402 0 402 0 350 0 c 2,7,-1
 50 0 l 2,8,9
 40 0 40 0 32.5 7.5 c 128,-1,10
 25 15 25 15 25 25 c 128,-1,11
 25 35 25 35 32.5 42.5 c 128,-1,12
 40 50 40 50 50 50 c 2,13,-1
 350 50 l 2,14,15
 381 50 381 50 403 72 c 128,-1,16
 425 94 425 94 425 125 c 2,17,-1
 425 325 l 2,18,19
 425 356 425 356 403 378 c 128,-1,20
 381 400 381 400 350 400 c 2,21,-1
 50 400 l 2,22,23
 40 400 40 400 32.5 407.5 c 128,-1,24
 25 415 25 415 25 425 c 128,-1,25
 25 435 25 435 32.5 442.5 c 128,-1,26
 40 450 40 450 50 450 c 2,27,-1
 350 450 l 2,0,1
50 450 m 0,28,29
 46.708238605 450 46.708238605 450 43.5302734375 449.1484375 c 0,30,31
 37.0594857498 447.4149545 37.0594857498 447.4149545 32.322265625 442.677734375 c 0,32,33
 24.99609375 435.3515625 24.99609375 435.3515625 24.99609375 425.00390625 c 128,-1,34
 24.99609375 414.6484375 24.99609375 414.6484375 32.322265625 407.322265625 c 1,35,-1
 32.322265625 407.322265625 432.322265625 7.322265625 432.322265625 7.322265625 c 2,36,37
 439.6484375 -0.00390625 439.6484375 -0.00390625 449.99609375 -0.00390625 c 128,-1,38
 460.3515625 -0.00390625 460.3515625 -0.00390625 467.677734375 7.322265625 c 128,-1,39
 475.00390625 14.6484375 475.00390625 14.6484375 475.00390625 24.99609375 c 128,-1,40
 475.00390625 35.3515625 475.00390625 35.3515625 467.677734375 42.677734375 c 1,41,-1
 467.677734375 42.677734375 67.677734375 442.677734375 67.677734375 442.677734375 c 2,42,43
 60.35546875 450 60.35546875 450 50 450 c 1024,44,-1
EndSplineSet
EndChar

StartChar: uni0043.init
Encoding: 261 -1 100
Width: 500
Flags: W
LayerCount: 2
Fore
SplineSet
150 450 m 2,0,-1
 350 450 l 2,1,2
 402 450 402 450 438.5 413.5 c 128,-1,3
 475 377 475 377 475 325 c 2,4,-1
 475 250 l 1,5,-1
 500 250 l 2,6,7
 510 250 510 250 517.5 242.5 c 128,-1,8
 525 235 525 235 525 225 c 128,-1,9
 525 215 525 215 517.5 207.5 c 128,-1,10
 510 200 510 200 500 200 c 2,11,-1
 475 200 l 1,12,-1
 475 125 l 2,13,14
 475 73 475 73 438.5 36.5 c 128,-1,15
 402 0 402 0 350 0 c 2,16,-1
 50 0 l 2,17,18
 40 0 40 0 32.5 7.5 c 128,-1,19
 25 15 25 15 25 25 c 128,-1,20
 25 35 25 35 32.5 42.5 c 128,-1,21
 40 50 40 50 50 50 c 2,22,-1
 350 50 l 2,23,24
 381 50 381 50 403 72 c 128,-1,25
 425 94 425 94 425 125 c 2,26,-1
 425 200 l 1,27,-1
 150 200 l 2,28,29
 98 200 98 200 61.5 236.5 c 128,-1,30
 25 273 25 273 25 325 c 128,-1,31
 25 377 25 377 61.5 413.5 c 128,-1,32
 98 450 98 450 150 450 c 2,0,-1
150 400 m 2,33,34
 119 400 119 400 97 378 c 128,-1,35
 75 356 75 356 75 325 c 128,-1,36
 75 294 75 294 97 272 c 128,-1,37
 119 250 119 250 150 250 c 2,38,-1
 425 250 l 1,39,-1
 425 325 l 2,40,41
 425 356 425 356 403 378 c 128,-1,42
 381 400 381 400 350 400 c 2,43,-1
 150 400 l 2,33,34
50 450 m 0,44,45
 46.708238605 450 46.708238605 450 43.5302734375 449.1484375 c 0,46,47
 37.0594857498 447.4149545 37.0594857498 447.4149545 32.322265625 442.677734375 c 0,48,49
 24.99609375 435.3515625 24.99609375 435.3515625 24.99609375 425.00390625 c 128,-1,50
 24.99609375 414.6484375 24.99609375 414.6484375 32.322265625 407.322265625 c 1,51,-1
 32.322265625 407.322265625 432.322265625 7.322265625 432.322265625 7.322265625 c 2,52,53
 439.6484375 -0.00390625 439.6484375 -0.00390625 449.99609375 -0.00390625 c 128,-1,54
 460.3515625 -0.00390625 460.3515625 -0.00390625 467.677734375 7.322265625 c 128,-1,55
 475.00390625 14.6484375 475.00390625 14.6484375 475.00390625 24.99609375 c 128,-1,56
 475.00390625 35.3515625 475.00390625 35.3515625 467.677734375 42.677734375 c 1,57,-1
 467.677734375 42.677734375 67.677734375 442.677734375 67.677734375 442.677734375 c 2,58,59
 60.35546875 450 60.35546875 450 50 450 c 1024,60,-1
EndSplineSet
EndChar

StartChar: uni0043.medi
Encoding: 262 -1 101
Width: 500
Flags: W
LayerCount: 2
Fore
SplineSet
150 450 m 2,0,-1
 350 450 l 2,1,2
 402 450 402 450 438.5 413.5 c 128,-1,3
 475 377 475 377 475 325 c 2,4,-1
 475 250 l 1,5,-1
 481.5 250 l 0,6,7
 488 250 488 250 494 250 c 0,8,-1
 500 250 l 1,9,10
 510.35546875 250 510.35546875 250 517.677734375 242.677734375 c 0,11,12
 520.004180871 240.351287879 520.004180871 240.351287879 521.650390625 237.5 c 0,13,14
 524.135748594 233.195384274 524.135748594 233.195384274 524.78515625 228.263671875 c 0,15,16
 525 226.630859375 525 226.630859375 525 225 c 0,17,18
 525 214.64453125 525 214.64453125 517.677734375 207.322265625 c 0,19,20
 515.351287879 204.995819129 515.351287879 204.995819129 512.5 203.349609375 c 0,21,22
 508.195384274 200.864251406 508.195384274 200.864251406 503.263671875 200.21484375 c 0,23,24
 501.630859375 200 501.630859375 200 500 200 c 2,25,-1
 475 200 l 1,26,-1
 475 125 l 2,27,28
 475 73 475 73 438.5 36.5 c 128,-1,29
 402 0 402 0 350 0 c 2,30,-1
 150 0 l 0,31,32
 87 0 87 0 50 50 c 0,33,34
 25 83 25 83 25 125 c 0,35,36
 25.0362262087 166.680426683 25.0362262087 166.680426683 50.08203125 200 c 1,37,-1
 0 200 l 2,38,39
 -10 200 -10 200 -17.5 207.5 c 128,-1,40
 -25 215 -25 215 -25 225 c 128,-1,41
 -25 235 -25 235 -17.5 242.5 c 128,-1,42
 -10 250 -10 250 0 250 c 2,43,-1
 50.08203125 250 l 1,44,45
 25.0362262087 283.319573317 25.0362262087 283.319573317 25 325 c 0,46,47
 25 367 25 367 50 400 c 0,48,49
 87 450 87 450 150 450 c 2,0,-1
150 400 m 2,50,51
 119 400 119 400 97 378 c 128,-1,52
 75 356 75 356 75 325 c 128,-1,53
 75 294 75 294 97 272 c 128,-1,54
 119 250 119 250 150 250 c 2,55,-1
 425 250 l 1,56,-1
 425 325 l 2,57,58
 425 356 425 356 403 378 c 128,-1,59
 381 400 381 400 350 400 c 2,60,-1
 150 400 l 2,50,51
150 200 m 2,61,62
 119 200 119 200 97 178 c 128,-1,63
 75 156 75 156 75 125 c 128,-1,64
 75 94 75 94 97 72 c 128,-1,65
 119 50 119 50 150 50 c 2,66,-1
 350 50 l 2,67,68
 353.856870229 50 353.856870229 50 357.66796875 50.38671875 c 0,69,70
 384.141002923 53.0745966733 384.141002923 53.0745966733 403.033203125 71.966796875 c 0,71,72
 405.580566406 74.5141601563 405.580566406 74.5141601563 407.873046875 77.29296875 c 0,73,74
 425 98.0466589369 425 98.0466589369 425 125 c 2,75,-1
 425 200 l 1,76,-1
 150 200 l 2,61,62
50 450 m 0,77,78
 46.708238605 450 46.708238605 450 43.5302734375 449.1484375 c 0,79,80
 37.0594857498 447.4149545 37.0594857498 447.4149545 32.322265625 442.677734375 c 0,81,82
 24.99609375 435.3515625 24.99609375 435.3515625 24.99609375 425.00390625 c 128,-1,83
 24.99609375 414.6484375 24.99609375 414.6484375 32.322265625 407.322265625 c 1,84,-1
 32.322265625 407.322265625 432.322265625 7.322265625 432.322265625 7.322265625 c 2,85,86
 439.6484375 -0.00390625 439.6484375 -0.00390625 449.99609375 -0.00390625 c 128,-1,87
 460.3515625 -0.00390625 460.3515625 -0.00390625 467.677734375 7.322265625 c 128,-1,88
 475.00390625 14.6484375 475.00390625 14.6484375 475.00390625 24.99609375 c 128,-1,89
 475.00390625 35.3515625 475.00390625 35.3515625 467.677734375 42.677734375 c 1,90,-1
 467.677734375 42.677734375 67.677734375 442.677734375 67.677734375 442.677734375 c 2,91,92
 60.35546875 450 60.35546875 450 50 450 c 1024,93,-1
EndSplineSet
EndChar

StartChar: uni0043.fina
Encoding: 263 -1 102
Width: 500
Flags: W
LayerCount: 2
Fore
SplineSet
50 450 m 2,0,-1
 350 450 l 2,1,2
 402 450 402 450 438.5 413.5 c 128,-1,3
 475 377 475 377 475 325 c 2,4,-1
 475 125 l 1,5,-1
 475 124.994140625 l 2,6,7
 475 118.233192076 475 118.233192076 474.021484375 110.046875 c 0,8,9
 473.764261983 108.157670992 473.764261983 108.157670992 473.443359375 106.244140625 c 0,10,11
 472.556706478 100.363219158 472.556706478 100.363219158 471.171875 94.794921875 c 0,12,13
 470.744373987 93.0181207916 470.744373987 93.0181207916 470.271484375 91.279296875 c 0,14,15
 468.159890119 83.7333831229 468.159890119 83.7333831229 465.63671875 77.587890625 c 0,16,-1
 465.505859375 77.228515625 l 0,17,18
 462.767837054 70.6148419909 462.767837054 70.6148419909 458.830078125 63.646484375 c 0,19,20
 458.011846379 62.2509288369 458.011846379 62.2509288369 457.111328125 60.8046875 c 0,21,22
 454.087955261 55.7711089144 454.087955261 55.7711089144 450.62890625 51.0703125 c 0,23,24
 449.478428566 49.4737019479 449.478428566 49.4737019479 448.240234375 47.865234375 c 0,25,26
 443.156070158 41.3993969035 443.156070158 41.3993969035 438.587890625 36.810546875 c 0,27,-1
 438.189453125 36.412109375 l 0,28,29
 433.596045016 31.8380881882 433.596045016 31.8380881882 427.126953125 26.751953125 c 0,30,31
 425.528832822 25.5217242358 425.528832822 25.5217242358 423.921875 24.365234375 c 0,32,33
 419.239283158 20.9193607398 419.239283158 20.9193607398 414.20703125 17.896484375 c 0,34,35
 412.79221034 17.0136828984 412.79221034 17.0136828984 411.34765625 16.166015625 c 0,36,37
 404.375480841 12.2267753828 404.375480841 12.2267753828 397.76953125 9.4921875 c 0,38,-1
 397.400390625 9.357421875 l 0,39,40
 391.277177057 6.8451610004 391.277177057 6.8451610004 383.740234375 4.734375 c 0,41,42
 381.949810488 4.24770117538 381.949810488 4.24770117538 380.16796875 3.818359375 c 0,43,44
 374.656030956 2.44974897029 374.656030956 2.44974897029 368.787109375 1.5625 c 0,45,46
 366.865042465 1.23872150068 366.865042465 1.23872150068 364.9296875 0.974609375 c 0,47,48
 356.758588533 0 356.758588533 0 350 0 c 2,49,-1
 150 0 l 2,50,51
 98 0 98 0 61.5 36.5 c 128,-1,52
 25 73 25 73 25 125 c 0,53,54
 25 167 25 167 50 200 c 1,55,-1
 0 200 l 2,56,57
 -10 200 -10 200 -17.5 207.5 c 128,-1,58
 -25 215 -25 215 -25 225 c 128,-1,59
 -25 235 -25 235 -17.5 242.5 c 128,-1,60
 -10 250 -10 250 0 250 c 2,61,-1
 150 250 l 2,62,63
 160 250 160 250 167.5 242.5 c 128,-1,64
 175 235 175 235 175 225 c 128,-1,65
 175 215 175 215 167.5 207.5 c 128,-1,66
 160 200 160 200 150 200 c 0,67,68
 119 200 119 200 97 178 c 128,-1,69
 75 156 75 156 75 125 c 128,-1,70
 75 94 75 94 97 72 c 128,-1,71
 119 50 119 50 150 50 c 2,72,-1
 350 50 l 0,73,74
 354.517289424 50.0244022625 354.517289424 50.0244022625 359.0078125 50.591796875 c 0,75,76
 359.458415354 50.6456607123 359.458415354 50.6456607123 360.310042548 50.7829304814 c 128,-1,77
 361.161669741 50.9202002505 361.161669741 50.9202002505 361.263671875 50.935546875 c 0,78,79
 364.738179055 51.4576003529 364.738179055 51.4576003529 368.15625 52.3046875 c 0,80,81
 369.730502077 52.6971781406 369.730502077 52.6971781406 370.30078125 52.857421875 c 0,82,83
 374.486157862 54.0129210029 374.486157862 54.0129210029 378.501953125 55.640625 c 0,84,-1
 378.7421875 55.73046875 l 0,85,86
 382.947739359 57.4949847632 382.947739359 57.4949847632 386.9140625 59.759765625 c 0,87,88
 387.248899767 59.9497158977 387.248899767 59.9497158977 387.856688286 60.3261680615 c 128,-1,89
 388.464476804 60.7026202254 388.464476804 60.7026202254 388.6015625 60.78515625 c 0,90,91
 391.624086332 62.6047943315 391.624086332 62.6047943315 394.466796875 64.703125 c 0,92,93
 396.015410198 65.8464280279 396.015410198 65.8464280279 396.392578125 66.14453125 c 0,94,95
 399.892730583 68.8670341625 399.892730583 68.8670341625 403.033203125 71.966796875 c 128,-1,96
 406.132965837 75.1072694167 406.132965837 75.1072694167 408.85546875 78.607421875 c 0,97,98
 409.153571972 78.9845898024 409.153571972 78.9845898024 410.296875 80.533203125 c 0,99,100
 412.395205669 83.3759136676 412.395205669 83.3759136676 414.21484375 86.3984375 c 0,101,102
 414.297379775 86.5355231961 414.297379775 86.5355231961 414.673831938 87.1433117143 c 128,-1,103
 415.050284102 87.7511002325 415.050284102 87.7511002325 415.240234375 88.0859375 c 0,104,105
 417.505015237 92.0522606411 417.505015237 92.0522606411 419.26953125 96.2578125 c 0,106,-1
 419.359375 96.498046875 l 0,107,108
 420.987078997 100.513842138 420.987078997 100.513842138 422.142578125 104.69921875 c 0,109,110
 422.302821859 105.269497923 422.302821859 105.269497923 422.6953125 106.84375 c 0,111,112
 423.542399647 110.261820945 423.542399647 110.261820945 424.064453125 113.736328125 c 0,113,114
 424.07979975 113.838330259 424.07979975 113.838330259 424.217069519 114.689957452 c 128,-1,115
 424.354339288 115.541584646 424.354339288 115.541584646 424.408203125 115.9921875 c 0,116,117
 424.975597737 120.482710576 424.975597737 120.482710576 425 125 c 2,118,-1
 425 325 l 2,119,120
 425 356 425 356 403 378 c 128,-1,121
 381 400 381 400 350 400 c 2,122,-1
 50 400 l 2,123,124
 40 400 40 400 32.5 407.5 c 128,-1,125
 25 415 25 415 25 425 c 128,-1,126
 25 435 25 435 32.5 442.5 c 128,-1,127
 40 450 40 450 50 450 c 2,0,-1
50 450 m 0,128,129
 46.708238605 450 46.708238605 450 43.5302734375 449.1484375 c 0,130,131
 37.0594857498 447.4149545 37.0594857498 447.4149545 32.322265625 442.677734375 c 0,132,133
 24.99609375 435.3515625 24.99609375 435.3515625 24.99609375 425.00390625 c 128,-1,134
 24.99609375 414.6484375 24.99609375 414.6484375 32.322265625 407.322265625 c 1,135,-1
 32.322265625 407.322265625 432.322265625 7.322265625 432.322265625 7.322265625 c 2,136,137
 439.6484375 -0.00390625 439.6484375 -0.00390625 449.99609375 -0.00390625 c 128,-1,138
 460.3515625 -0.00390625 460.3515625 -0.00390625 467.677734375 7.322265625 c 128,-1,139
 475.00390625 14.6484375 475.00390625 14.6484375 475.00390625 24.99609375 c 128,-1,140
 475.00390625 35.3515625 475.00390625 35.3515625 467.677734375 42.677734375 c 1,141,-1
 467.677734375 42.677734375 67.677734375 442.677734375 67.677734375 442.677734375 c 2,142,143
 60.35546875 450 60.35546875 450 50 450 c 1024,144,-1
EndSplineSet
EndChar

StartChar: uni0044.isol
Encoding: 264 -1 103
Width: 500
Flags: W
LayerCount: 2
Fore
SplineSet
50 450 m 128,-1,1
 60 450 60 450 67.5 442.5 c 128,-1,2
 75 435 75 435 75 425 c 2,3,-1
 75 125 l 2,4,5
 75 94 75 94 97 72 c 128,-1,6
 119 50 119 50 150 50 c 2,7,-1
 350 50 l 2,8,9
 381 50 381 50 403 72 c 128,-1,10
 425 94 425 94 425 125 c 2,11,-1
 425 425 l 2,12,13
 425 435 425 435 432.5 442.5 c 128,-1,14
 440 450 440 450 450 450 c 128,-1,15
 460 450 460 450 467.5 442.5 c 128,-1,16
 475 435 475 435 475 425 c 2,17,-1
 475 125 l 2,18,19
 475 73 475 73 438.5 36.5 c 128,-1,20
 402 0 402 0 350 0 c 2,21,-1
 150 0 l 2,22,23
 98 0 98 0 61.5 36.5 c 128,-1,24
 25 73 25 73 25 125 c 2,25,-1
 25 425 l 2,26,27
 25 435 25 435 32.5 442.5 c 128,-1,0
 40 450 40 450 50 450 c 128,-1,1
50 450 m 0,28,29
 46.708238605 450 46.708238605 450 43.5302734375 449.1484375 c 0,30,31
 37.0594857498 447.4149545 37.0594857498 447.4149545 32.322265625 442.677734375 c 0,32,33
 24.99609375 435.3515625 24.99609375 435.3515625 24.99609375 425.00390625 c 128,-1,34
 24.99609375 414.6484375 24.99609375 414.6484375 32.322265625 407.322265625 c 1,35,-1
 32.322265625 407.322265625 432.322265625 7.322265625 432.322265625 7.322265625 c 2,36,37
 439.6484375 -0.00390625 439.6484375 -0.00390625 449.99609375 -0.00390625 c 128,-1,38
 460.3515625 -0.00390625 460.3515625 -0.00390625 467.677734375 7.322265625 c 128,-1,39
 475.00390625 14.6484375 475.00390625 14.6484375 475.00390625 24.99609375 c 128,-1,40
 475.00390625 35.3515625 475.00390625 35.3515625 467.677734375 42.677734375 c 1,41,-1
 467.677734375 42.677734375 67.677734375 442.677734375 67.677734375 442.677734375 c 2,42,43
 60.35546875 450 60.35546875 450 50 450 c 1024,44,-1
EndSplineSet
EndChar

StartChar: uni0044.init
Encoding: 265 -1 104
Width: 500
Flags: W
LayerCount: 2
Fore
SplineSet
50 450 m 128,-1,1
 60 450 60 450 67.5 442.5 c 128,-1,2
 75 435 75 435 75 425 c 2,3,-1
 75 125 l 2,4,5
 75 94 75 94 97 72 c 128,-1,6
 119 50 119 50 150 50 c 2,7,-1
 350 50 l 2,8,9
 381 50 381 50 403 72 c 128,-1,10
 425 94 425 94 425 125 c 2,11,-1
 425 200 l 1,12,-1
 350 200 l 2,13,14
 298 200 298 200 261.5 236.5 c 128,-1,15
 225 273 225 273 225 325 c 128,-1,16
 225 377 225 377 261.5 413.5 c 128,-1,17
 298 450 298 450 350 450 c 128,-1,18
 402 450 402 450 438.5 413.5 c 128,-1,19
 475 377 475 377 475 325 c 2,20,-1
 475 250 l 1,21,-1
 500 250 l 2,22,23
 510 250 510 250 517.5 242.5 c 128,-1,24
 525 235 525 235 525 225 c 128,-1,25
 525 215 525 215 517.5 207.5 c 128,-1,26
 510 200 510 200 500 200 c 2,27,-1
 475 200 l 1,28,-1
 475 181 l 0,29,30
 475 162 475 162 475 143.5 c 0,31,-1
 475 125 l 1,32,33
 475 77.7272126148 475 77.7272126148 443.763797554 42.4408634205 c 128,-1,34
 412.527595109 7.15451422615 412.527595109 7.15451422615 366.31640625 1.0703125 c 0,35,36
 358.191761364 0 358.191761364 0 350 0 c 2,37,-1
 150 0 l 2,38,39
 98 0 98 0 61.5 36.5 c 128,-1,40
 25 73 25 73 25 125 c 2,41,-1
 25 425 l 2,42,43
 25 435 25 435 32.5 442.5 c 128,-1,0
 40 450 40 450 50 450 c 128,-1,1
350 400 m 128,-1,45
 319 400 319 400 297 378 c 128,-1,46
 275 356 275 356 275 325 c 128,-1,47
 275 294 275 294 297 272 c 128,-1,48
 319 250 319 250 350 250 c 2,49,-1
 425 250 l 1,50,-1
 425 325 l 2,51,52
 425 356 425 356 403 378 c 128,-1,44
 381 400 381 400 350 400 c 128,-1,45
50 450 m 0,53,54
 46.708238605 450 46.708238605 450 43.5302734375 449.1484375 c 0,55,56
 37.0594857498 447.4149545 37.0594857498 447.4149545 32.322265625 442.677734375 c 0,57,58
 24.99609375 435.3515625 24.99609375 435.3515625 24.99609375 425.00390625 c 128,-1,59
 24.99609375 414.6484375 24.99609375 414.6484375 32.322265625 407.322265625 c 1,60,-1
 32.322265625 407.322265625 432.322265625 7.322265625 432.322265625 7.322265625 c 2,61,62
 439.6484375 -0.00390625 439.6484375 -0.00390625 449.99609375 -0.00390625 c 128,-1,63
 460.3515625 -0.00390625 460.3515625 -0.00390625 467.677734375 7.322265625 c 128,-1,64
 475.00390625 14.6484375 475.00390625 14.6484375 475.00390625 24.99609375 c 128,-1,65
 475.00390625 35.3515625 475.00390625 35.3515625 467.677734375 42.677734375 c 1,66,-1
 467.677734375 42.677734375 67.677734375 442.677734375 67.677734375 442.677734375 c 2,67,68
 60.35546875 450 60.35546875 450 50 450 c 1024,69,-1
EndSplineSet
EndChar

StartChar: uni0044.medi
Encoding: 266 -1 105
Width: 500
Flags: W
LayerCount: 2
Fore
SplineSet
150 450 m 0,0,1
 212.54554092 449.944780715 212.54554092 449.944780715 250 399.853515625 c 1,2,3
 287.45445908 449.944780715 287.45445908 449.944780715 350 450 c 0,4,5
 402 450 402 450 438.5 413.5 c 128,-1,6
 475 377 475 377 475 325 c 2,7,-1
 475 250 l 1,8,-1
 500 250 l 2,9,10
 510 250 510 250 517.5 242.5 c 128,-1,11
 525 235 525 235 525 225 c 128,-1,12
 525 215 525 215 517.5 207.5 c 128,-1,13
 510 200 510 200 500 200 c 2,14,-1
 475 200 l 1,15,-1
 475 181 l 0,16,17
 475 162 475 162 475 143.5 c 0,18,-1
 475 125 l 1,19,20
 475 77.7272126148 475 77.7272126148 443.763797554 42.4408634205 c 128,-1,21
 412.527595109 7.15451422615 412.527595109 7.15451422615 366.31640625 1.0703125 c 0,22,23
 358.191761364 0 358.191761364 0 350 0 c 2,24,-1
 275 0 l 1,25,-1
 225 0 l 1,26,-1
 150 0 l 2,27,28
 98 0 98 0 61.5 36.5 c 128,-1,29
 25 73 25 73 25 125 c 2,30,-1
 25 200 l 1,31,-1
 0 200 l 2,32,33
 -10 200 -10 200 -17.5 207.5 c 128,-1,34
 -25 215 -25 215 -25 225 c 128,-1,35
 -25 235 -25 235 -17.5 242.5 c 128,-1,36
 -10 250 -10 250 0 250 c 2,37,-1
 25 250 l 1,38,-1
 25 325 l 2,39,40
 25 377 25 377 61.5 413.5 c 128,-1,41
 98 450 98 450 150 450 c 0,0,1
150 400 m 128,-1,43
 119 400 119 400 97 378 c 128,-1,44
 75 356 75 356 75 325 c 2,45,-1
 75 250 l 1,46,-1
 150 250 l 2,47,48
 181 250 181 250 203 272 c 128,-1,49
 225 294 225 294 225 325 c 128,-1,50
 225 356 225 356 203 378 c 128,-1,42
 181 400 181 400 150 400 c 128,-1,43
350 400 m 128,-1,52
 319 400 319 400 297 378 c 128,-1,53
 275 356 275 356 275 325 c 128,-1,54
 275 294 275 294 297 272 c 128,-1,55
 319 250 319 250 350 250 c 2,56,-1
 425 250 l 1,57,-1
 425 325 l 2,58,59
 425 356 425 356 403 378 c 128,-1,51
 381 400 381 400 350 400 c 128,-1,52
250 250.146484375 m 1,60,61
 212.54554092 200.055219285 212.54554092 200.055219285 150 200 c 2,62,-1
 75 200 l 1,63,-1
 75 125 l 2,64,65
 75 94 75 94 97 72 c 128,-1,66
 119 50 119 50 150 50 c 2,67,-1
 225 50 l 1,68,-1
 275 50 l 1,69,-1
 350 50 l 2,70,71
 381 50 381 50 403 72 c 128,-1,72
 425 94 425 94 425 125 c 2,73,-1
 425 200 l 1,74,-1
 350 200 l 0,75,76
 287.45445908 200.055219285 287.45445908 200.055219285 250 250.146484375 c 1,60,61
50 450 m 0,77,78
 46.708238605 450 46.708238605 450 43.5302734375 449.1484375 c 0,79,80
 37.0594857498 447.4149545 37.0594857498 447.4149545 32.322265625 442.677734375 c 0,81,82
 24.99609375 435.3515625 24.99609375 435.3515625 24.99609375 425.00390625 c 128,-1,83
 24.99609375 414.6484375 24.99609375 414.6484375 32.322265625 407.322265625 c 1,84,-1
 32.322265625 407.322265625 432.322265625 7.322265625 432.322265625 7.322265625 c 2,85,86
 439.6484375 -0.00390625 439.6484375 -0.00390625 449.99609375 -0.00390625 c 128,-1,87
 460.3515625 -0.00390625 460.3515625 -0.00390625 467.677734375 7.322265625 c 128,-1,88
 475.00390625 14.6484375 475.00390625 14.6484375 475.00390625 24.99609375 c 128,-1,89
 475.00390625 35.3515625 475.00390625 35.3515625 467.677734375 42.677734375 c 1,90,-1
 467.677734375 42.677734375 67.677734375 442.677734375 67.677734375 442.677734375 c 2,91,92
 60.35546875 450 60.35546875 450 50 450 c 1024,93,-1
EndSplineSet
EndChar

StartChar: uni0044.fina
Encoding: 267 -1 106
Width: 500
Flags: W
LayerCount: 2
Fore
SplineSet
150 0 m 2,0,1
 98 0 98 0 61.5 36.5 c 128,-1,2
 25 73 25 73 25 125 c 2,3,-1
 25 200 l 1,4,-1
 0 200 l 2,5,6
 -10 200 -10 200 -17.5 207.5 c 128,-1,7
 -25 215 -25 215 -25 225 c 128,-1,8
 -25 235 -25 235 -17.5 242.5 c 128,-1,9
 -10 250 -10 250 0 250 c 2,10,-1
 25 250 l 1,11,-1
 25 325 l 2,12,13
 25 377 25 377 61.5 413.5 c 128,-1,14
 98 450 98 450 150 450 c 128,-1,15
 202 450 202 450 238.5 413.5 c 128,-1,16
 275 377 275 377 275 325 c 128,-1,17
 275 273 275 273 238.5 236.5 c 128,-1,18
 202 200 202 200 150 200 c 2,19,-1
 75 200 l 1,20,-1
 75 125 l 2,21,22
 75 94 75 94 97 72 c 128,-1,23
 119 50 119 50 150 50 c 2,24,-1
 350 50 l 2,25,26
 381 50 381 50 403 72 c 128,-1,27
 425 94 425 94 425 125 c 2,28,-1
 425 425 l 2,29,30
 425 435 425 435 432.5 442.5 c 128,-1,31
 440 450 440 450 450 450 c 128,-1,32
 460 450 460 450 467.5 442.5 c 128,-1,33
 475 435 475 435 475 425 c 2,34,-1
 475 125 l 2,35,36
 475 73 475 73 438.5 36.5 c 128,-1,37
 402 0 402 0 350 0 c 2,38,-1
 150 0 l 2,0,1
75 250 m 1,39,-1
 150 250 l 2,40,41
 181 250 181 250 203 272 c 128,-1,42
 225 294 225 294 225 325 c 128,-1,43
 225 356 225 356 203 378 c 128,-1,44
 181 400 181 400 150 400 c 128,-1,45
 119 400 119 400 97 378 c 128,-1,46
 75 356 75 356 75 325 c 2,47,-1
 75 250 l 1,39,-1
50 450 m 0,48,49
 46.708238605 450 46.708238605 450 43.5302734375 449.1484375 c 0,50,51
 37.0594857498 447.4149545 37.0594857498 447.4149545 32.322265625 442.677734375 c 0,52,53
 24.99609375 435.3515625 24.99609375 435.3515625 24.99609375 425.00390625 c 128,-1,54
 24.99609375 414.6484375 24.99609375 414.6484375 32.322265625 407.322265625 c 1,55,-1
 32.322265625 407.322265625 432.322265625 7.322265625 432.322265625 7.322265625 c 2,56,57
 439.6484375 -0.00390625 439.6484375 -0.00390625 449.99609375 -0.00390625 c 128,-1,58
 460.3515625 -0.00390625 460.3515625 -0.00390625 467.677734375 7.322265625 c 128,-1,59
 475.00390625 14.6484375 475.00390625 14.6484375 475.00390625 24.99609375 c 128,-1,60
 475.00390625 35.3515625 475.00390625 35.3515625 467.677734375 42.677734375 c 1,61,-1
 467.677734375 42.677734375 67.677734375 442.677734375 67.677734375 442.677734375 c 2,62,63
 60.35546875 450 60.35546875 450 50 450 c 1024,64,-1
EndSplineSet
EndChar

StartChar: uni0046.isol
Encoding: 268 -1 107
Width: 500
Flags: W
LayerCount: 2
Fore
SplineSet
50 0 m 128,-1,1
 40 0 40 0 32.5 7.5 c 128,-1,2
 25 15 25 15 25 25 c 2,3,-1
 25 325 l 2,4,5
 25 377 25 377 61.5 413.5 c 128,-1,6
 98 450 98 450 150 450 c 2,7,-1
 350 450 l 2,8,9
 402 450 402 450 438.5 413.5 c 128,-1,10
 475 377 475 377 475 325 c 2,11,-1
 475 25 l 2,12,13
 475 15 475 15 467.5 7.5 c 128,-1,14
 460 0 460 0 450 0 c 128,-1,15
 440 0 440 0 432.5 7.5 c 128,-1,16
 425 15 425 15 425 25 c 2,17,-1
 425 325 l 2,18,19
 425 356 425 356 403 378 c 128,-1,20
 381 400 381 400 350 400 c 2,21,-1
 150 400 l 2,22,23
 119 400 119 400 97 378 c 128,-1,24
 75 356 75 356 75 325 c 2,25,-1
 75 25 l 2,26,27
 75 15 75 15 67.5 7.5 c 128,-1,0
 60 0 60 0 50 0 c 128,-1,1
EndSplineSet
EndChar

StartChar: uni0046.init
Encoding: 269 -1 108
Width: 500
Flags: W
LayerCount: 2
Fore
SplineSet
50 0 m 128,-1,1
 40 0 40 0 32.5 7.5 c 128,-1,2
 25 15 25 15 25 25 c 2,3,-1
 25 325 l 2,4,5
 25 377 25 377 61.5 413.5 c 128,-1,6
 98 450 98 450 150 450 c 2,7,-1
 350 450 l 2,8,9
 358.191761364 450 358.191761364 450 366.31640625 448.9296875 c 0,10,11
 412.527595109 442.845485774 412.527595109 442.845485774 443.763797554 407.55913658 c 128,-1,12
 475 372.272787385 475 372.272787385 475 325 c 1,13,-1
 475 306.5 l 0,14,15
 475 288 475 288 475 269 c 0,16,-1
 475 250 l 1,17,-1
 500 250 l 2,18,19
 510 250 510 250 517.5 242.5 c 128,-1,20
 525 235 525 235 525 225 c 128,-1,21
 525 215 525 215 517.5 207.5 c 128,-1,22
 510 200 510 200 500 200 c 2,23,-1
 475 200 l 1,24,-1
 475 125 l 2,25,26
 475 73 475 73 438.5 36.5 c 128,-1,27
 402 0 402 0 350 0 c 128,-1,28
 298 0 298 0 261.5 36.5 c 128,-1,29
 225 73 225 73 225 125 c 128,-1,30
 225 177 225 177 261.5 213.5 c 128,-1,31
 298 250 298 250 350 250 c 2,32,-1
 425 250 l 1,33,-1
 425 325 l 2,34,35
 425 356 425 356 403 378 c 128,-1,36
 381 400 381 400 350 400 c 2,37,-1
 150 400 l 2,38,39
 119 400 119 400 97 378 c 128,-1,40
 75 356 75 356 75 325 c 2,41,-1
 75 25 l 2,42,43
 75 15 75 15 67.5 7.5 c 128,-1,0
 60 0 60 0 50 0 c 128,-1,1
350 50 m 128,-1,45
 381 50 381 50 403 72 c 128,-1,46
 425 94 425 94 425 125 c 2,47,-1
 425 200 l 1,48,-1
 350 200 l 2,49,50
 319 200 319 200 297 178 c 128,-1,51
 275 156 275 156 275 125 c 128,-1,52
 275 94 275 94 297 72 c 128,-1,44
 319 50 319 50 350 50 c 128,-1,45
EndSplineSet
EndChar

StartChar: uni0046.medi
Encoding: 270 -1 109
Width: 500
Flags: W
LayerCount: 2
Fore
SplineSet
150 450 m 2,0,-1
 225 450 l 1,1,-1
 275 450 l 1,2,-1
 350 450 l 0,3,4
 358.191761364 450 358.191761364 450 366.31640625 448.9296875 c 0,5,6
 412.527595109 442.845485774 412.527595109 442.845485774 443.763797554 407.55913658 c 128,-1,7
 475 372.272787385 475 372.272787385 475 325 c 2,8,-1
 475 250 l 1,9,-1
 500 250 l 2,10,11
 510 250 510 250 517.5 242.5 c 128,-1,12
 525 235 525 235 525 225 c 128,-1,13
 525 215 525 215 517.5 207.5 c 128,-1,14
 510 200 510 200 500 200 c 2,15,-1
 475 200 l 1,16,-1
 475 125 l 2,17,18
 475 73 475 73 438.5 36.5 c 128,-1,19
 402 0 402 0 350 0 c 0,20,21
 287.45445908 0.0552192849758 287.45445908 0.0552192849758 250 50.146484375 c 1,22,23
 212.54554092 0.0552192849758 212.54554092 0.0552192849758 150 0 c 0,24,25
 98 0 98 0 61.5 36.5 c 128,-1,26
 25 73 25 73 25 125 c 2,27,-1
 25 200 l 1,28,-1
 0 200 l 2,29,30
 -10 200 -10 200 -17.5 207.5 c 128,-1,31
 -25 215 -25 215 -25 225 c 128,-1,32
 -25 235 -25 235 -17.5 242.5 c 128,-1,33
 -10 250 -10 250 0 250 c 2,34,-1
 25 250 l 1,35,-1
 25 325 l 2,36,37
 25 377 25 377 61.5 413.5 c 128,-1,38
 98 450 98 450 150 450 c 2,0,-1
150 400 m 2,39,40
 119 400 119 400 97 378 c 128,-1,41
 75 356 75 356 75 325 c 2,42,-1
 75 250 l 1,43,-1
 150 250 l 0,44,45
 212.54554092 249.944780715 212.54554092 249.944780715 250 199.853515625 c 1,46,47
 287.45445908 249.944780715 287.45445908 249.944780715 350 250 c 2,48,-1
 425 250 l 1,49,-1
 425 325 l 2,50,51
 425 356 425 356 403 378 c 128,-1,52
 381 400 381 400 350 400 c 2,53,-1
 275 400 l 1,54,-1
 225 400 l 1,55,-1
 150 400 l 2,39,40
75 200 m 1,56,-1
 75 125 l 2,57,58
 75 94 75 94 97 72 c 128,-1,59
 119 50 119 50 150 50 c 128,-1,60
 181 50 181 50 203 72 c 128,-1,61
 225 94 225 94 225 125 c 128,-1,62
 225 156 225 156 203 178 c 128,-1,63
 181 200 181 200 150 200 c 2,64,-1
 75 200 l 1,56,-1
350 200 m 2,65,66
 319 200 319 200 297 178 c 128,-1,67
 275 156 275 156 275 125 c 128,-1,68
 275 94 275 94 297 72 c 128,-1,69
 319 50 319 50 350 50 c 128,-1,70
 381 50 381 50 403 72 c 128,-1,71
 425 94 425 94 425 125 c 2,72,-1
 425 200 l 1,73,-1
 350 200 l 2,65,66
EndSplineSet
EndChar

StartChar: uni0046.fina
Encoding: 271 -1 110
Width: 500
Flags: W
LayerCount: 2
Fore
SplineSet
150 450 m 2,0,-1
 350 450 l 2,1,2
 402 450 402 450 438.5 413.5 c 128,-1,3
 475 377 475 377 475 325 c 2,4,-1
 475 25 l 2,5,6
 475 15 475 15 467.5 7.5 c 128,-1,7
 460 0 460 0 450 0 c 128,-1,8
 440 0 440 0 432.5 7.5 c 128,-1,9
 425 15 425 15 425 25 c 2,10,-1
 425 325 l 2,11,12
 425 356 425 356 403 378 c 128,-1,13
 381 400 381 400 350 400 c 2,14,-1
 150 400 l 2,15,16
 119 400 119 400 97 378 c 128,-1,17
 75 356 75 356 75 325 c 2,18,-1
 75 250 l 1,19,-1
 150 250 l 2,20,21
 202 250 202 250 238.5 213.5 c 128,-1,22
 275 177 275 177 275 125 c 128,-1,23
 275 73 275 73 238.5 36.5 c 128,-1,24
 202 0 202 0 150 0 c 128,-1,25
 98 0 98 0 61.5 36.5 c 128,-1,26
 25 73 25 73 25 125 c 2,27,-1
 25 200 l 1,28,-1
 0 200 l 2,29,30
 -10 200 -10 200 -17.5 207.5 c 128,-1,31
 -25 215 -25 215 -25 225 c 128,-1,32
 -25 235 -25 235 -17.5 242.5 c 128,-1,33
 -10 250 -10 250 0 250 c 2,34,-1
 25 250 l 1,35,-1
 25 325 l 2,36,37
 25 377 25 377 61.5 413.5 c 128,-1,38
 98 450 98 450 150 450 c 2,0,-1
75 200 m 1,39,-1
 75 125 l 2,40,41
 75 94 75 94 97 72 c 128,-1,42
 119 50 119 50 150 50 c 128,-1,43
 181 50 181 50 203 72 c 128,-1,44
 225 94 225 94 225 125 c 128,-1,45
 225 156 225 156 203 178 c 128,-1,46
 181 200 181 200 150 200 c 2,47,-1
 75 200 l 1,39,-1
EndSplineSet
EndChar

StartChar: uni0047.isol
Encoding: 272 -1 111
Width: 500
Flags: W
LayerCount: 2
Fore
SplineSet
450 450 m 128,-1,1
 460 450 460 450 467.5 442.5 c 128,-1,2
 475 435 475 435 475 425 c 2,3,-1
 475 125 l 2,4,5
 475 73 475 73 438.5 36.5 c 128,-1,6
 402 0 402 0 350 0 c 2,7,-1
 50 0 l 2,8,9
 40 0 40 0 32.5 7.5 c 128,-1,10
 25 15 25 15 25 25 c 128,-1,11
 25 35 25 35 32.5 42.5 c 128,-1,12
 40 50 40 50 50 50 c 2,13,-1
 350 50 l 2,14,15
 381 50 381 50 403 72 c 128,-1,16
 425 94 425 94 425 125 c 2,17,-1
 425 425 l 2,18,19
 425 435 425 435 432.5 442.5 c 128,-1,0
 440 450 440 450 450 450 c 128,-1,1
50 450 m 0,20,21
 46.708238605 450 46.708238605 450 43.5302734375 449.1484375 c 0,22,23
 37.0594857498 447.4149545 37.0594857498 447.4149545 32.322265625 442.677734375 c 0,24,25
 24.99609375 435.3515625 24.99609375 435.3515625 24.99609375 425.00390625 c 128,-1,26
 24.99609375 414.6484375 24.99609375 414.6484375 32.322265625 407.322265625 c 1,27,-1
 32.322265625 407.322265625 432.322265625 7.322265625 432.322265625 7.322265625 c 2,28,29
 439.6484375 -0.00390625 439.6484375 -0.00390625 449.99609375 -0.00390625 c 128,-1,30
 460.3515625 -0.00390625 460.3515625 -0.00390625 467.677734375 7.322265625 c 128,-1,31
 475.00390625 14.6484375 475.00390625 14.6484375 475.00390625 24.99609375 c 128,-1,32
 475.00390625 35.3515625 475.00390625 35.3515625 467.677734375 42.677734375 c 1,33,-1
 467.677734375 42.677734375 67.677734375 442.677734375 67.677734375 442.677734375 c 2,34,35
 60.35546875 450 60.35546875 450 50 450 c 1024,36,-1
EndSplineSet
EndChar

StartChar: uni0047.init
Encoding: 273 -1 112
Width: 500
Flags: W
LayerCount: 2
Fore
SplineSet
350 450 m 128,-1,1
 402 450 402 450 438.5 413.5 c 128,-1,2
 475 377 475 377 475 325 c 2,3,-1
 475 250 l 1,4,-1
 500 250 l 2,5,6
 510 250 510 250 517.5 242.5 c 128,-1,7
 525 235 525 235 525 225 c 128,-1,8
 525 215 525 215 517.5 207.5 c 128,-1,9
 510 200 510 200 500 200 c 2,10,-1
 475 200 l 1,11,-1
 475 125 l 2,12,13
 475 73 475 73 438.5 36.5 c 128,-1,14
 402 0 402 0 350 0 c 2,15,-1
 50 0 l 2,16,17
 40 0 40 0 32.5 7.5 c 128,-1,18
 25 15 25 15 25 25 c 128,-1,19
 25 35 25 35 32.5 42.5 c 128,-1,20
 40 50 40 50 50 50 c 2,21,-1
 350 50 l 2,22,23
 381 50 381 50 403 72 c 128,-1,24
 425 94 425 94 425 125 c 2,25,-1
 425 200 l 1,26,-1
 350 200 l 2,27,28
 298 200 298 200 261.5 236.5 c 128,-1,29
 225 273 225 273 225 325 c 128,-1,30
 225 377 225 377 261.5 413.5 c 128,-1,0
 298 450 298 450 350 450 c 128,-1,1
350 400 m 128,-1,32
 319 400 319 400 297 378 c 128,-1,33
 275 356 275 356 275 325 c 128,-1,34
 275 294 275 294 297 272 c 128,-1,35
 319 250 319 250 350 250 c 2,36,-1
 425 250 l 1,37,-1
 425 325 l 2,38,39
 425 356 425 356 403 378 c 128,-1,31
 381 400 381 400 350 400 c 128,-1,32
50 450 m 0,40,41
 46.708238605 450 46.708238605 450 43.5302734375 449.1484375 c 0,42,43
 37.0594857498 447.4149545 37.0594857498 447.4149545 32.322265625 442.677734375 c 0,44,45
 24.99609375 435.3515625 24.99609375 435.3515625 24.99609375 425.00390625 c 128,-1,46
 24.99609375 414.6484375 24.99609375 414.6484375 32.322265625 407.322265625 c 1,47,-1
 32.322265625 407.322265625 432.322265625 7.322265625 432.322265625 7.322265625 c 2,48,49
 439.6484375 -0.00390625 439.6484375 -0.00390625 449.99609375 -0.00390625 c 128,-1,50
 460.3515625 -0.00390625 460.3515625 -0.00390625 467.677734375 7.322265625 c 128,-1,51
 475.00390625 14.6484375 475.00390625 14.6484375 475.00390625 24.99609375 c 128,-1,52
 475.00390625 35.3515625 475.00390625 35.3515625 467.677734375 42.677734375 c 1,53,-1
 467.677734375 42.677734375 67.677734375 442.677734375 67.677734375 442.677734375 c 2,54,55
 60.35546875 450 60.35546875 450 50 450 c 1024,56,-1
EndSplineSet
EndChar

StartChar: uni0047.medi
Encoding: 274 -1 113
Width: 500
Flags: W
LayerCount: 2
Fore
SplineSet
350 450 m 128,-1,1
 402 450 402 450 438.5 413.5 c 128,-1,2
 475 377 475 377 475 325 c 2,3,-1
 475 250 l 1,4,-1
 500 250 l 2,5,6
 510 250 510 250 517.5 242.5 c 128,-1,7
 525 235 525 235 525 225 c 128,-1,8
 525 215 525 215 517.5 207.5 c 128,-1,9
 510 200 510 200 500 200 c 2,10,-1
 475 200 l 1,11,-1
 475 125 l 2,12,13
 475 73 475 73 438.5 36.5 c 128,-1,14
 402 0 402 0 350 0 c 2,15,-1
 275 0 l 1,16,-1
 225 0 l 1,17,-1
 150 0 l 2,18,19
 98 0 98 0 61.5 36.5 c 128,-1,20
 25 73 25 73 25 125 c 0,21,22
 25 167 25 167 50 200 c 1,23,-1
 0 200 l 2,24,25
 -10 200 -10 200 -17.5 207.5 c 128,-1,26
 -25 215 -25 215 -25 225 c 128,-1,27
 -25 235 -25 235 -17.5 242.5 c 128,-1,28
 -10 250 -10 250 0 250 c 2,29,-1
 150 250 l 2,30,31
 160 250 160 250 167.5 242.5 c 128,-1,32
 175 235 175 235 175 225 c 128,-1,33
 175 215 175 215 167.5 207.5 c 128,-1,34
 160 200 160 200 150 200 c 0,35,36
 119 200 119 200 97 178 c 128,-1,37
 75 156 75 156 75 125 c 128,-1,38
 75 94 75 94 97 72 c 128,-1,39
 119 50 119 50 150 50 c 2,40,-1
 225 50 l 1,41,-1
 275 50 l 1,42,-1
 350 50 l 2,43,44
 381 50 381 50 403 72 c 128,-1,45
 425 94 425 94 425 125 c 2,46,-1
 425 200 l 1,47,-1
 350 200 l 2,48,49
 298 200 298 200 261.5 236.5 c 128,-1,50
 225 273 225 273 225 325 c 128,-1,51
 225 377 225 377 261.5 413.5 c 128,-1,0
 298 450 298 450 350 450 c 128,-1,1
350 400 m 128,-1,53
 319 400 319 400 297 378 c 128,-1,54
 275 356 275 356 275 325 c 128,-1,55
 275 294 275 294 297 272 c 128,-1,56
 319 250 319 250 350 250 c 2,57,-1
 425 250 l 1,58,-1
 425 325 l 2,59,60
 425 356 425 356 403 378 c 128,-1,52
 381 400 381 400 350 400 c 128,-1,53
50 450 m 0,61,62
 46.708238605 450 46.708238605 450 43.5302734375 449.1484375 c 0,63,64
 37.0594857498 447.4149545 37.0594857498 447.4149545 32.322265625 442.677734375 c 0,65,66
 24.99609375 435.3515625 24.99609375 435.3515625 24.99609375 425.00390625 c 128,-1,67
 24.99609375 414.6484375 24.99609375 414.6484375 32.322265625 407.322265625 c 1,68,-1
 32.322265625 407.322265625 432.322265625 7.322265625 432.322265625 7.322265625 c 2,69,70
 439.6484375 -0.00390625 439.6484375 -0.00390625 449.99609375 -0.00390625 c 128,-1,71
 460.3515625 -0.00390625 460.3515625 -0.00390625 467.677734375 7.322265625 c 128,-1,72
 475.00390625 14.6484375 475.00390625 14.6484375 475.00390625 24.99609375 c 128,-1,73
 475.00390625 35.3515625 475.00390625 35.3515625 467.677734375 42.677734375 c 1,74,-1
 467.677734375 42.677734375 67.677734375 442.677734375 67.677734375 442.677734375 c 2,75,76
 60.35546875 450 60.35546875 450 50 450 c 1024,77,-1
EndSplineSet
EndChar

StartChar: uni0047.fina
Encoding: 275 -1 114
Width: 500
Flags: W
LayerCount: 2
Fore
SplineSet
150 0 m 2,0,1
 98 0 98 0 61.5 36.5 c 128,-1,2
 25 73 25 73 25 125 c 0,3,4
 25 167 25 167 50 200 c 1,5,-1
 0 200 l 2,6,7
 -10 200 -10 200 -17.5 207.5 c 128,-1,8
 -25 215 -25 215 -25 225 c 128,-1,9
 -25 235 -25 235 -17.5 242.5 c 128,-1,10
 -10 250 -10 250 0 250 c 2,11,-1
 150 250 l 2,12,13
 160 250 160 250 167.5 242.5 c 128,-1,14
 175 235 175 235 175 225 c 128,-1,15
 175 215 175 215 167.5 207.5 c 128,-1,16
 160 200 160 200 150 200 c 0,17,18
 119 200 119 200 97 178 c 128,-1,19
 75 156 75 156 75 125 c 128,-1,20
 75 94 75 94 97 72 c 128,-1,21
 119 50 119 50 150 50 c 2,22,-1
 350 50 l 2,23,24
 381 50 381 50 403 72 c 128,-1,25
 425 94 425 94 425 125 c 2,26,-1
 425 425 l 2,27,28
 425 435 425 435 432.5 442.5 c 128,-1,29
 440 450 440 450 450 450 c 128,-1,30
 460 450 460 450 467.5 442.5 c 128,-1,31
 475 435 475 435 475 425 c 2,32,-1
 475 125 l 2,33,34
 475 73 475 73 438.5 36.5 c 128,-1,35
 402 0 402 0 350 0 c 2,36,-1
 150 0 l 2,0,1
50 450 m 0,37,38
 46.708238605 450 46.708238605 450 43.5302734375 449.1484375 c 0,39,40
 37.0594857498 447.4149545 37.0594857498 447.4149545 32.322265625 442.677734375 c 0,41,42
 24.99609375 435.3515625 24.99609375 435.3515625 24.99609375 425.00390625 c 128,-1,43
 24.99609375 414.6484375 24.99609375 414.6484375 32.322265625 407.322265625 c 1,44,-1
 32.322265625 407.322265625 432.322265625 7.322265625 432.322265625 7.322265625 c 2,45,46
 439.6484375 -0.00390625 439.6484375 -0.00390625 449.99609375 -0.00390625 c 128,-1,47
 460.3515625 -0.00390625 460.3515625 -0.00390625 467.677734375 7.322265625 c 128,-1,48
 475.00390625 14.6484375 475.00390625 14.6484375 475.00390625 24.99609375 c 128,-1,49
 475.00390625 35.3515625 475.00390625 35.3515625 467.677734375 42.677734375 c 1,50,-1
 467.677734375 42.677734375 67.677734375 442.677734375 67.677734375 442.677734375 c 2,51,52
 60.35546875 450 60.35546875 450 50 450 c 1024,53,-1
EndSplineSet
EndChar

StartChar: uni0048.isol
Encoding: 276 -1 115
Width: 500
Flags: W
LayerCount: 2
Fore
SplineSet
450 0 m 128,-1,1
 440 0 440 0 432.5 7.5 c 128,-1,2
 425 15 425 15 425 25 c 2,3,-1
 425 325 l 2,4,5
 425 356 425 356 403 378 c 128,-1,6
 381 400 381 400 350 400 c 2,7,-1
 50 400 l 2,8,9
 40 400 40 400 32.5 407.5 c 128,-1,10
 25 415 25 415 25 425 c 128,-1,11
 25 435 25 435 32.5 442.5 c 128,-1,12
 40 450 40 450 50 450 c 2,13,-1
 350 450 l 2,14,15
 402 450 402 450 438.5 413.5 c 128,-1,16
 475 377 475 377 475 325 c 2,17,-1
 475 25 l 2,18,19
 475 15 475 15 467.5 7.5 c 128,-1,0
 460 0 460 0 450 0 c 128,-1,1
EndSplineSet
EndChar

StartChar: uni0048.init
Encoding: 277 -1 116
Width: 500
Flags: W
LayerCount: 2
Fore
SplineSet
350 0 m 128,-1,1
 298 0 298 0 261.5 36.5 c 128,-1,2
 225 73 225 73 225 125 c 128,-1,3
 225 177 225 177 261.5 213.5 c 128,-1,4
 298 250 298 250 350 250 c 2,5,-1
 425 250 l 1,6,-1
 425 325 l 2,7,8
 425 356 425 356 403 378 c 128,-1,9
 381 400 381 400 350 400 c 2,10,-1
 50 400 l 2,11,12
 40 400 40 400 32.5 407.5 c 128,-1,13
 25 415 25 415 25 425 c 128,-1,14
 25 435 25 435 32.5 442.5 c 128,-1,15
 40 450 40 450 50 450 c 2,16,-1
 350 450 l 2,17,18
 402 450 402 450 438.5 413.5 c 128,-1,19
 475 377 475 377 475 325 c 2,20,-1
 475 250 l 1,21,-1
 500 250 l 2,22,23
 510 250 510 250 517.5 242.5 c 128,-1,24
 525 235 525 235 525 225 c 128,-1,25
 525 215 525 215 517.5 207.5 c 128,-1,26
 510 200 510 200 500 200 c 2,27,-1
 475 200 l 1,28,-1
 475 125 l 2,29,30
 475 73 475 73 438.5 36.5 c 128,-1,0
 402 0 402 0 350 0 c 128,-1,1
350 50 m 128,-1,32
 381 50 381 50 403 72 c 128,-1,33
 425 94 425 94 425 125 c 2,34,-1
 425 200 l 1,35,-1
 350 200 l 2,36,37
 319 200 319 200 297 178 c 128,-1,38
 275 156 275 156 275 125 c 128,-1,39
 275 94 275 94 297 72 c 128,-1,31
 319 50 319 50 350 50 c 128,-1,32
EndSplineSet
EndChar

StartChar: uni0048.medi
Encoding: 278 -1 117
Width: 500
Flags: W
LayerCount: 2
Fore
SplineSet
150 450 m 2,0,-1
 225 450 l 1,1,-1
 275 450 l 1,2,-1
 350 450 l 2,3,4
 402 450 402 450 438.5 413.5 c 128,-1,5
 475 377 475 377 475 325 c 2,6,-1
 475 250 l 1,7,-1
 500 250 l 2,8,9
 510 250 510 250 517.5 242.5 c 128,-1,10
 525 235 525 235 525 225 c 128,-1,11
 525 215 525 215 517.5 207.5 c 128,-1,12
 510 200 510 200 500 200 c 2,13,-1
 475 200 l 1,14,-1
 475 125 l 2,15,16
 475 73 475 73 438.5 36.5 c 128,-1,17
 402 0 402 0 350 0 c 128,-1,18
 298 0 298 0 261.5 36.5 c 128,-1,19
 225 73 225 73 225 125 c 128,-1,20
 225 177 225 177 261.5 213.5 c 128,-1,21
 298 250 298 250 350 250 c 2,22,-1
 425 250 l 1,23,-1
 425 325 l 2,24,25
 425 356 425 356 403 378 c 128,-1,26
 381 400 381 400 350 400 c 2,27,-1
 275 400 l 1,28,-1
 225 400 l 1,29,-1
 150 400 l 2,30,31
 119 400 119 400 97 378 c 128,-1,32
 75 356 75 356 75 325 c 128,-1,33
 75 294 75 294 97 272 c 128,-1,34
 119 250 119 250 150 250 c 0,35,36
 160 250 160 250 167.5 242.5 c 128,-1,37
 175 235 175 235 175 225 c 128,-1,38
 175 215 175 215 167.5 207.5 c 128,-1,39
 160 200 160 200 150 200 c 2,40,-1
 0 200 l 2,41,42
 -10 200 -10 200 -17.5 207.5 c 128,-1,43
 -25 215 -25 215 -25 225 c 128,-1,44
 -25 235 -25 235 -17.5 242.5 c 128,-1,45
 -10 250 -10 250 0 250 c 2,46,-1
 50 250 l 1,47,48
 25 283 25 283 25 325 c 0,49,50
 25 377 25 377 61.5 413.5 c 128,-1,51
 98 450 98 450 150 450 c 2,0,-1
350 200 m 2,52,53
 319 200 319 200 297 178 c 128,-1,54
 275 156 275 156 275 125 c 128,-1,55
 275 94 275 94 297 72 c 128,-1,56
 319 50 319 50 350 50 c 128,-1,57
 381 50 381 50 403 72 c 128,-1,58
 425 94 425 94 425 125 c 2,59,-1
 425 200 l 1,60,-1
 350 200 l 2,52,53
EndSplineSet
EndChar

StartChar: uni0048.fina
Encoding: 279 -1 118
Width: 500
Flags: W
LayerCount: 2
Fore
SplineSet
150 450 m 2,0,-1
 350 450 l 2,1,2
 402 450 402 450 438.5 413.5 c 128,-1,3
 475 377 475 377 475 325 c 2,4,-1
 475 25 l 2,5,6
 475 15 475 15 467.5 7.5 c 128,-1,7
 460 0 460 0 450 0 c 128,-1,8
 440 0 440 0 432.5 7.5 c 128,-1,9
 425 15 425 15 425 25 c 2,10,-1
 425 325 l 2,11,12
 425 356 425 356 403 378 c 128,-1,13
 381 400 381 400 350 400 c 2,14,-1
 150 400 l 2,15,16
 119 400 119 400 97 378 c 128,-1,17
 75 356 75 356 75 325 c 128,-1,18
 75 294 75 294 97 272 c 128,-1,19
 119 250 119 250 150 250 c 0,20,21
 160 250 160 250 167.5 242.5 c 128,-1,22
 175 235 175 235 175 225 c 128,-1,23
 175 215 175 215 167.5 207.5 c 128,-1,24
 160 200 160 200 150 200 c 2,25,-1
 0 200 l 2,26,27
 -10 200 -10 200 -17.5 207.5 c 128,-1,28
 -25 215 -25 215 -25 225 c 128,-1,29
 -25 235 -25 235 -17.5 242.5 c 128,-1,30
 -10 250 -10 250 0 250 c 2,31,-1
 50 250 l 1,32,33
 25 283 25 283 25 325 c 0,34,35
 25 377 25 377 61.5 413.5 c 128,-1,36
 98 450 98 450 150 450 c 2,0,-1
EndSplineSet
EndChar

StartChar: uni004A.isol
Encoding: 280 -1 119
Width: 500
Flags: W
LayerCount: 2
Fore
SplineSet
50 450 m 128,-1,1
 60 450 60 450 67.5 442.5 c 128,-1,2
 75 435 75 435 75 425 c 2,3,-1
 75 125 l 2,4,5
 75 94 75 94 97 72 c 128,-1,6
 119 50 119 50 150 50 c 2,7,-1
 450 50 l 2,8,9
 460 50 460 50 467.5 42.5 c 128,-1,10
 475 35 475 35 475 25 c 128,-1,11
 475 15 475 15 467.5 7.5 c 128,-1,12
 460 0 460 0 450 0 c 2,13,-1
 150 0 l 2,14,15
 98 0 98 0 61.5 36.5 c 128,-1,16
 25 73 25 73 25 125 c 2,17,-1
 25 425 l 2,18,19
 25 435 25 435 32.5 442.5 c 128,-1,0
 40 450 40 450 50 450 c 128,-1,1
50 450 m 0,20,21
 46.708238605 450 46.708238605 450 43.5302734375 449.1484375 c 0,22,23
 37.0594857498 447.4149545 37.0594857498 447.4149545 32.322265625 442.677734375 c 0,24,25
 24.99609375 435.3515625 24.99609375 435.3515625 24.99609375 425.00390625 c 128,-1,26
 24.99609375 414.6484375 24.99609375 414.6484375 32.322265625 407.322265625 c 1,27,-1
 32.322265625 407.322265625 432.322265625 7.322265625 432.322265625 7.322265625 c 2,28,29
 439.6484375 -0.00390625 439.6484375 -0.00390625 449.99609375 -0.00390625 c 128,-1,30
 460.3515625 -0.00390625 460.3515625 -0.00390625 467.677734375 7.322265625 c 128,-1,31
 475.00390625 14.6484375 475.00390625 14.6484375 475.00390625 24.99609375 c 128,-1,32
 475.00390625 35.3515625 475.00390625 35.3515625 467.677734375 42.677734375 c 1,33,-1
 467.677734375 42.677734375 67.677734375 442.677734375 67.677734375 442.677734375 c 2,34,35
 60.35546875 450 60.35546875 450 50 450 c 1024,36,-1
250 350 m 128,-1,38
 302 350 302 350 338.5 313.5 c 128,-1,39
 375 277 375 277 375 225 c 128,-1,40
 375 173 375 173 338.5 136.5 c 128,-1,41
 302 100 302 100 250 100 c 128,-1,42
 198 100 198 100 161.5 136.5 c 128,-1,43
 125 173 125 173 125 225 c 128,-1,44
 125 277 125 277 161.5 313.5 c 128,-1,37
 198 350 198 350 250 350 c 128,-1,38
250 300 m 128,-1,46
 219 300 219 300 197 278 c 128,-1,47
 175 256 175 256 175 225 c 128,-1,48
 175 194 175 194 197 172 c 128,-1,49
 219 150 219 150 250 150 c 128,-1,50
 281 150 281 150 303 172 c 128,-1,51
 325 194 325 194 325 225 c 128,-1,52
 325 256 325 256 303 278 c 128,-1,45
 281 300 281 300 250 300 c 128,-1,46
EndSplineSet
EndChar

StartChar: uni004A.init
Encoding: 281 -1 120
Width: 500
Flags: W
LayerCount: 2
Fore
SplineSet
50 450 m 128,-1,1
 60 450 60 450 67.5 442.5 c 128,-1,2
 75 435 75 435 75 425 c 2,3,-1
 75 125 l 2,4,5
 75 94 75 94 97 72 c 128,-1,6
 119 50 119 50 150 50 c 2,7,-1
 350 50 l 2,8,9
 381 50 381 50 403 72 c 128,-1,10
 425 94 425 94 425 125 c 128,-1,11
 425 156 425 156 403 178 c 128,-1,12
 381 200 381 200 350 200 c 0,13,14
 340 200 340 200 332.5 207.5 c 128,-1,15
 325 215 325 215 325 225 c 128,-1,16
 325 235 325 235 332.5 242.5 c 128,-1,17
 340 250 340 250 350 250 c 2,18,-1
 500 250 l 2,19,20
 510 250 510 250 517.5 242.5 c 128,-1,21
 525 235 525 235 525 225 c 128,-1,22
 525 215 525 215 517.5 207.5 c 128,-1,23
 510 200 510 200 500 200 c 2,24,-1
 450 200 l 1,25,26
 475 167 475 167 475 125 c 0,27,28
 475 73 475 73 438.5 36.5 c 128,-1,29
 402 0 402 0 350 0 c 2,30,-1
 150 0 l 2,31,32
 98 0 98 0 61.5 36.5 c 128,-1,33
 25 73 25 73 25 125 c 2,34,-1
 25 425 l 2,35,36
 25 435 25 435 32.5 442.5 c 128,-1,0
 40 450 40 450 50 450 c 128,-1,1
50 450 m 0,37,38
 46.708238605 450 46.708238605 450 43.5302734375 449.1484375 c 0,39,40
 37.0594857498 447.4149545 37.0594857498 447.4149545 32.322265625 442.677734375 c 0,41,42
 24.99609375 435.3515625 24.99609375 435.3515625 24.99609375 425.00390625 c 128,-1,43
 24.99609375 414.6484375 24.99609375 414.6484375 32.322265625 407.322265625 c 1,44,-1
 32.322265625 407.322265625 432.322265625 7.322265625 432.322265625 7.322265625 c 2,45,46
 439.6484375 -0.00390625 439.6484375 -0.00390625 449.99609375 -0.00390625 c 128,-1,47
 460.3515625 -0.00390625 460.3515625 -0.00390625 467.677734375 7.322265625 c 128,-1,48
 475.00390625 14.6484375 475.00390625 14.6484375 475.00390625 24.99609375 c 128,-1,49
 475.00390625 35.3515625 475.00390625 35.3515625 467.677734375 42.677734375 c 1,50,-1
 467.677734375 42.677734375 67.677734375 442.677734375 67.677734375 442.677734375 c 2,51,52
 60.35546875 450 60.35546875 450 50 450 c 1024,53,-1
250 350 m 128,-1,55
 302 350 302 350 338.5 313.5 c 128,-1,56
 375 277 375 277 375 225 c 128,-1,57
 375 173 375 173 338.5 136.5 c 128,-1,58
 302 100 302 100 250 100 c 128,-1,59
 198 100 198 100 161.5 136.5 c 128,-1,60
 125 173 125 173 125 225 c 128,-1,61
 125 277 125 277 161.5 313.5 c 128,-1,54
 198 350 198 350 250 350 c 128,-1,55
250 300 m 128,-1,63
 219 300 219 300 197 278 c 128,-1,64
 175 256 175 256 175 225 c 128,-1,65
 175 194 175 194 197 172 c 128,-1,66
 219 150 219 150 250 150 c 128,-1,67
 281 150 281 150 303 172 c 128,-1,68
 325 194 325 194 325 225 c 128,-1,69
 325 256 325 256 303 278 c 128,-1,62
 281 300 281 300 250 300 c 128,-1,63
EndSplineSet
EndChar

StartChar: uni004A.medi
Encoding: 282 -1 121
Width: 500
Flags: W
LayerCount: 2
Fore
SplineSet
150 450 m 128,-1,1
 202 450 202 450 238.5 413.5 c 128,-1,2
 275 377 275 377 275 325 c 128,-1,3
 275 273 275 273 238.5 236.5 c 128,-1,4
 202 200 202 200 150 200 c 2,5,-1
 75 200 l 1,6,-1
 75 125 l 2,7,8
 75 94 75 94 97 72 c 128,-1,9
 119 50 119 50 150 50 c 2,10,-1
 225 50 l 1,11,-1
 275 50 l 1,12,-1
 350 50 l 2,13,14
 381 50 381 50 403 72 c 128,-1,15
 425 94 425 94 425 125 c 128,-1,16
 425 156 425 156 403 178 c 128,-1,17
 381 200 381 200 350 200 c 0,18,19
 340 200 340 200 332.5 207.5 c 128,-1,20
 325 215 325 215 325 225 c 128,-1,21
 325 235 325 235 332.5 242.5 c 128,-1,22
 340 250 340 250 350 250 c 2,23,-1
 500 250 l 2,24,25
 510 250 510 250 517.5 242.5 c 128,-1,26
 525 235 525 235 525 225 c 128,-1,27
 525 215 525 215 517.5 207.5 c 128,-1,28
 510 200 510 200 500 200 c 2,29,-1
 450 200 l 1,30,31
 475 167 475 167 475 125 c 0,32,33
 475 73 475 73 438.5 36.5 c 128,-1,34
 402 0 402 0 350 0 c 2,35,-1
 275 0 l 1,36,-1
 225 0 l 1,37,-1
 150 0 l 2,38,39
 98 0 98 0 61.5 36.5 c 128,-1,40
 25 73 25 73 25 125 c 2,41,-1
 25 200 l 1,42,-1
 0 200 l 2,43,44
 -10 200 -10 200 -17.5 207.5 c 128,-1,45
 -25 215 -25 215 -25 225 c 128,-1,46
 -25 235 -25 235 -17.5 242.5 c 128,-1,47
 -10 250 -10 250 0 250 c 2,48,-1
 25 250 l 1,49,-1
 25 325 l 2,50,51
 25 377 25 377 61.5 413.5 c 128,-1,0
 98 450 98 450 150 450 c 128,-1,1
150 400 m 128,-1,53
 119 400 119 400 97 378 c 128,-1,54
 75 356 75 356 75 325 c 2,55,-1
 75 250 l 1,56,-1
 150 250 l 2,57,58
 181 250 181 250 203 272 c 128,-1,59
 225 294 225 294 225 325 c 128,-1,60
 225 356 225 356 203 378 c 128,-1,52
 181 400 181 400 150 400 c 128,-1,53
50 450 m 0,61,62
 46.708238605 450 46.708238605 450 43.5302734375 449.1484375 c 0,63,64
 37.0594857498 447.4149545 37.0594857498 447.4149545 32.322265625 442.677734375 c 0,65,66
 24.99609375 435.3515625 24.99609375 435.3515625 24.99609375 425.00390625 c 128,-1,67
 24.99609375 414.6484375 24.99609375 414.6484375 32.322265625 407.322265625 c 1,68,-1
 32.322265625 407.322265625 432.322265625 7.322265625 432.322265625 7.322265625 c 2,69,70
 439.6484375 -0.00390625 439.6484375 -0.00390625 449.99609375 -0.00390625 c 128,-1,71
 460.3515625 -0.00390625 460.3515625 -0.00390625 467.677734375 7.322265625 c 128,-1,72
 475.00390625 14.6484375 475.00390625 14.6484375 475.00390625 24.99609375 c 128,-1,73
 475.00390625 35.3515625 475.00390625 35.3515625 467.677734375 42.677734375 c 1,74,-1
 467.677734375 42.677734375 67.677734375 442.677734375 67.677734375 442.677734375 c 2,75,76
 60.35546875 450 60.35546875 450 50 450 c 1024,77,-1
250 350 m 128,-1,79
 302 350 302 350 338.5 313.5 c 128,-1,80
 375 277 375 277 375 225 c 128,-1,81
 375 173 375 173 338.5 136.5 c 128,-1,82
 302 100 302 100 250 100 c 128,-1,83
 198 100 198 100 161.5 136.5 c 128,-1,84
 125 173 125 173 125 225 c 128,-1,85
 125 277 125 277 161.5 313.5 c 128,-1,78
 198 350 198 350 250 350 c 128,-1,79
250 300 m 128,-1,87
 219 300 219 300 197 278 c 128,-1,88
 175 256 175 256 175 225 c 128,-1,89
 175 194 175 194 197 172 c 128,-1,90
 219 150 219 150 250 150 c 128,-1,91
 281 150 281 150 303 172 c 128,-1,92
 325 194 325 194 325 225 c 128,-1,93
 325 256 325 256 303 278 c 128,-1,86
 281 300 281 300 250 300 c 128,-1,87
EndSplineSet
EndChar

StartChar: uni004A.fina
Encoding: 283 -1 122
Width: 500
Flags: W
LayerCount: 2
Fore
SplineSet
150 0 m 2,0,1
 98 0 98 0 61.5 36.5 c 128,-1,2
 25 73 25 73 25 125 c 2,3,-1
 25 200 l 1,4,-1
 0 200 l 2,5,6
 -10 200 -10 200 -17.5 207.5 c 128,-1,7
 -25 215 -25 215 -25 225 c 128,-1,8
 -25 235 -25 235 -17.5 242.5 c 128,-1,9
 -10 250 -10 250 0 250 c 2,10,-1
 25 250 l 1,11,-1
 25 325 l 2,12,13
 25 377 25 377 61.5 413.5 c 128,-1,14
 98 450 98 450 150 450 c 128,-1,15
 202 450 202 450 238.5 413.5 c 128,-1,16
 275 377 275 377 275 325 c 128,-1,17
 275 273 275 273 238.5 236.5 c 128,-1,18
 202 200 202 200 150 200 c 2,19,-1
 75 200 l 1,20,-1
 75 125 l 2,21,22
 75 94 75 94 97 72 c 128,-1,23
 119 50 119 50 150 50 c 2,24,-1
 450 50 l 2,25,26
 460 50 460 50 467.5 42.5 c 128,-1,27
 475 35 475 35 475 25 c 128,-1,28
 475 15 475 15 467.5 7.5 c 128,-1,29
 460 0 460 0 450 0 c 2,30,-1
 150 0 l 2,0,1
75 250 m 1,31,-1
 150 250 l 2,32,33
 181 250 181 250 203 272 c 128,-1,34
 225 294 225 294 225 325 c 128,-1,35
 225 356 225 356 203 378 c 128,-1,36
 181 400 181 400 150 400 c 128,-1,37
 119 400 119 400 97 378 c 128,-1,38
 75 356 75 356 75 325 c 2,39,-1
 75 250 l 1,31,-1
50 450 m 0,40,41
 46.708238605 450 46.708238605 450 43.5302734375 449.1484375 c 0,42,43
 37.0594857498 447.4149545 37.0594857498 447.4149545 32.322265625 442.677734375 c 0,44,45
 24.99609375 435.3515625 24.99609375 435.3515625 24.99609375 425.00390625 c 128,-1,46
 24.99609375 414.6484375 24.99609375 414.6484375 32.322265625 407.322265625 c 1,47,-1
 32.322265625 407.322265625 432.322265625 7.322265625 432.322265625 7.322265625 c 2,48,49
 439.6484375 -0.00390625 439.6484375 -0.00390625 449.99609375 -0.00390625 c 128,-1,50
 460.3515625 -0.00390625 460.3515625 -0.00390625 467.677734375 7.322265625 c 128,-1,51
 475.00390625 14.6484375 475.00390625 14.6484375 475.00390625 24.99609375 c 128,-1,52
 475.00390625 35.3515625 475.00390625 35.3515625 467.677734375 42.677734375 c 1,53,-1
 467.677734375 42.677734375 67.677734375 442.677734375 67.677734375 442.677734375 c 2,54,55
 60.35546875 450 60.35546875 450 50 450 c 1024,56,-1
250 350 m 128,-1,58
 302 350 302 350 338.5 313.5 c 128,-1,59
 375 277 375 277 375 225 c 128,-1,60
 375 173 375 173 338.5 136.5 c 128,-1,61
 302 100 302 100 250 100 c 128,-1,62
 198 100 198 100 161.5 136.5 c 128,-1,63
 125 173 125 173 125 225 c 128,-1,64
 125 277 125 277 161.5 313.5 c 128,-1,57
 198 350 198 350 250 350 c 128,-1,58
250 300 m 128,-1,66
 219 300 219 300 197 278 c 128,-1,67
 175 256 175 256 175 225 c 128,-1,68
 175 194 175 194 197 172 c 128,-1,69
 219 150 219 150 250 150 c 128,-1,70
 281 150 281 150 303 172 c 128,-1,71
 325 194 325 194 325 225 c 128,-1,72
 325 256 325 256 303 278 c 128,-1,65
 281 300 281 300 250 300 c 128,-1,66
EndSplineSet
EndChar

StartChar: uni004B.isol
Encoding: 284 -1 123
Width: 500
Flags: W
LayerCount: 2
Fore
SplineSet
450 450 m 128,-1,1
 460 450 460 450 467.5 442.5 c 128,-1,2
 475 435 475 435 475 425 c 2,3,-1
 475 125 l 2,4,5
 475 73 475 73 438.5 36.5 c 128,-1,6
 402 0 402 0 350 0 c 2,7,-1
 50 0 l 2,8,9
 40 0 40 0 32.5 7.5 c 128,-1,10
 25 15 25 15 25 25 c 128,-1,11
 25 35 25 35 32.5 42.5 c 128,-1,12
 40 50 40 50 50 50 c 2,13,-1
 350 50 l 2,14,15
 381 50 381 50 403 72 c 128,-1,16
 425 94 425 94 425 125 c 2,17,-1
 425 425 l 2,18,19
 425 435 425 435 432.5 442.5 c 128,-1,0
 440 450 440 450 450 450 c 128,-1,1
EndSplineSet
EndChar

StartChar: uni004B.init
Encoding: 285 -1 124
Width: 500
Flags: W
LayerCount: 2
Fore
SplineSet
350 450 m 128,-1,1
 402 450 402 450 438.5 413.5 c 128,-1,2
 475 377 475 377 475 325 c 2,3,-1
 475 250 l 1,4,-1
 500 250 l 2,5,6
 510 250 510 250 517.5 242.5 c 128,-1,7
 525 235 525 235 525 225 c 128,-1,8
 525 215 525 215 517.5 207.5 c 128,-1,9
 510 200 510 200 500 200 c 2,10,-1
 475 200 l 1,11,-1
 475 125 l 2,12,13
 475 73 475 73 438.5 36.5 c 128,-1,14
 402 0 402 0 350 0 c 2,15,-1
 50 0 l 2,16,17
 40 0 40 0 32.5 7.5 c 128,-1,18
 25 15 25 15 25 25 c 128,-1,19
 25 35 25 35 32.5 42.5 c 128,-1,20
 40 50 40 50 50 50 c 2,21,-1
 350 50 l 2,22,23
 381 50 381 50 403 72 c 128,-1,24
 425 94 425 94 425 125 c 2,25,-1
 425 200 l 1,26,-1
 350 200 l 2,27,28
 298 200 298 200 261.5 236.5 c 128,-1,29
 225 273 225 273 225 325 c 128,-1,30
 225 377 225 377 261.5 413.5 c 128,-1,0
 298 450 298 450 350 450 c 128,-1,1
350 400 m 128,-1,32
 319 400 319 400 297 378 c 128,-1,33
 275 356 275 356 275 325 c 128,-1,34
 275 294 275 294 297 272 c 128,-1,35
 319 250 319 250 350 250 c 2,36,-1
 425 250 l 1,37,-1
 425 325 l 2,38,39
 425 356 425 356 403 378 c 128,-1,31
 381 400 381 400 350 400 c 128,-1,32
EndSplineSet
EndChar

